<?xml version="1.0" encoding="UTF-8" standalone="no"?>
<!-- Created with Inkscape (http://www.inkscape.org/) -->

<svg
   xmlns:dc="http://purl.org/dc/elements/1.1/"
   xmlns:cc="http://creativecommons.org/ns#"
   xmlns:rdf="http://www.w3.org/1999/02/22-rdf-syntax-ns#"
   xmlns:svg="http://www.w3.org/2000/svg"
   xmlns="http://www.w3.org/2000/svg"
   xmlns:xlink="http://www.w3.org/1999/xlink"
   xmlns:sodipodi="http://sodipodi.sourceforge.net/DTD/sodipodi-0.dtd"
   xmlns:inkscape="http://www.inkscape.org/namespaces/inkscape"
   width="317mm"
   height="228mm"
   viewBox="0 0 317 228"
   version="1.1"
   id="svg7044"
   inkscape:version="0.92.1 r"
   sodipodi:docname="invitation-back.svg"
   inkscape:export-filename="/home/petervaro/documents/personal/local/tomi-wedding/invitation-back.png"
   inkscape:export-xdpi="149.94913"
   inkscape:export-ydpi="149.94913"
   style="enable-background:new">
  <defs
     id="defs7038">
    <linearGradient
       inkscape:collect="always"
       id="linearGradient10026">
      <stop
         style="stop-color:#ffe86a;stop-opacity:0"
         offset="0"
         id="stop10022" />
      <stop
         id="stop10147"
         offset="0.17620288"
         style="stop-color:#ffff95;stop-opacity:0.89803922" />
      <stop
         style="stop-color:#ffe86a;stop-opacity:0"
         offset="1"
         id="stop10024" />
    </linearGradient>
    <linearGradient
       inkscape:collect="always"
       xlink:href="#linearGradient8797"
       id="linearGradient8799"
       x1="104.69941"
       y1="34.334835"
       x2="104.69941"
       y2="283.05951"
       gradientUnits="userSpaceOnUse"
       gradientTransform="matrix(1.4333333,0,0,0.71380474,7.9999993,77.000001)" />
    <linearGradient
       inkscape:collect="always"
       id="linearGradient8797">
      <stop
         style="stop-color:#b4cecb;stop-opacity:1"
         offset="0"
         id="stop8793" />
      <stop
         id="stop8801"
         offset="0.29235208"
         style="stop-color:#d1b0c1;stop-opacity:1" />
      <stop
         style="stop-color:#cdbfc5;stop-opacity:1"
         offset="0.41891104"
         id="stop8803" />
      <stop
         style="stop-color:#eaefed;stop-opacity:1"
         offset="1"
         id="stop8795" />
    </linearGradient>
    <filter
       style="color-interpolation-filters:sRGB"
       id="filter7699"
       inkscape:label="ripple">
      <feTurbulence
         id="feTurbulence7701"
         result="result1"
         numOctaves="1"
         seed="66"
         baseFrequency="0.016 0.57799999999999996"
         scale="2.6000000000000001" />
      <feDisplacementMap
         in2="result1"
         id="feDisplacementMap7703"
         in="SourceGraphic"
         scale="2.5"
         xChannelSelector="R"
         seed="142"
         yChannelSelector="A" />
    </filter>
    <filter
       style="color-interpolation-filters:sRGB"
       id="filter7699-0"
       inkscape:label="ripple">
      <feTurbulence
         id="feTurbulence7701-2"
         result="result1"
         numOctaves="1"
         seed="66"
         baseFrequency="0.016 0.57799999999999996"
         scale="2.6000000000000001" />
      <feDisplacementMap
         yChannelSelector="A"
         in2="result1"
         id="feDisplacementMap7703-6"
         in="SourceGraphic"
         scale="2.5"
         xChannelSelector="R"
         seed="142" />
    </filter>
    <filter
       inkscape:collect="always"
       style="color-interpolation-filters:sRGB"
       id="filter9987">
      <feBlend
         inkscape:collect="always"
         mode="overlay"
         in2="BackgroundImage"
         id="feBlend9989" />
    </filter>
    <linearGradient
       inkscape:collect="always"
       xlink:href="#linearGradient5246"
       id="linearGradient5248"
       x1="239.44791"
       y1="87.185432"
       x2="228.59999"
       y2="245.40623"
       gradientUnits="userSpaceOnUse"
       gradientTransform="matrix(4.8674601,0,0,3.7795276,-868.01006,-336.37802)" />
    <linearGradient
       inkscape:collect="always"
       id="linearGradient5246">
      <stop
         style="stop-color:#ffff95;stop-opacity:0.9"
         offset="0"
         id="stop5242" />
      <stop
         style="stop-color:#ffe86a;stop-opacity:0.15"
         offset="1"
         id="stop5244" />
    </linearGradient>
    <linearGradient
       inkscape:collect="always"
       xlink:href="#linearGradient10026"
       id="linearGradient10058"
       gradientUnits="userSpaceOnUse"
       gradientTransform="matrix(4.2659241,0,0,0.14713929,-666.96924,48.890377)"
       x1="227.95924"
       y1="28.210228"
       x2="218.70303"
       y2="206.03716" />
    <filter
       inkscape:label="Film Grain"
       inkscape:menu="Image Effects"
       inkscape:menu-tooltip="Adds a small scale graininess"
       style="color-interpolation-filters:sRGB"
       id="filter10075">
      <feTurbulence
         type="fractalNoise"
         numOctaves="3"
         baseFrequency="1"
         seed="0"
         result="result0"
         id="feTurbulence10065" />
      <feColorMatrix
         result="result4"
         values="0"
         type="saturate"
         id="feColorMatrix10067" />
      <feComposite
         in="SourceGraphic"
         in2="result4"
         operator="arithmetic"
         k1="1.25"
         k2="0.5"
         k3="0.5"
         result="result2"
         id="feComposite10069"
         k4="0" />
      <feBlend
         result="result5"
         mode="normal"
         in="result2"
         in2="SourceGraphic"
         id="feBlend10071" />
      <feComposite
         in="result5"
         in2="SourceGraphic"
         operator="in"
         result="result3"
         id="feComposite10073" />
    </filter>
  </defs>
  <sodipodi:namedview
     id="base"
     pagecolor="#ffffff"
     bordercolor="#666666"
     borderopacity="1.0"
     inkscape:pageopacity="0"
     inkscape:pageshadow="2"
     inkscape:zoom="1.4"
     inkscape:cx="463.48086"
     inkscape:cy="435.52641"
     inkscape:document-units="mm"
     inkscape:current-layer="layer3"
     showgrid="false"
     inkscape:showpageshadow="false"
     inkscape:window-width="2560"
     inkscape:window-height="1437"
     inkscape:window-x="0"
     inkscape:window-y="0"
     inkscape:window-maximized="1"
     inkscape:snap-grids="false"
     inkscape:snap-to-guides="false"
     inkscape:snap-others="false"
     inkscape:object-nodes="false"
     inkscape:snap-nodes="false"
     inkscape:snap-global="false"
     showguides="true"
     inkscape:guide-bbox="true" />
  <metadata
     id="metadata7041">
    <rdf:RDF>
      <cc:Work
         rdf:about="">
        <dc:format>image/svg+xml</dc:format>
        <dc:type
           rdf:resource="http://purl.org/dc/dcmitype/StillImage" />
        <dc:title></dc:title>
      </cc:Work>
    </rdf:RDF>
  </metadata>
  <g
     inkscape:label="bg"
     inkscape:groupmode="layer"
     id="layer1"
     transform="translate(0,-69)"
     sodipodi:insensitive="true">
    <rect
       style="opacity:1;fill:url(#linearGradient8799);fill-opacity:1;fill-rule:evenodd;stroke:none;stroke-width:0.52916664;stroke-linecap:round;stroke-linejoin:miter;stroke-miterlimit:4;stroke-dasharray:none;stroke-opacity:1;enable-background:new"
       id="rect8791"
       width="301"
       height="212"
       x="8"
       y="77" />
  </g>
  <g
     inkscape:groupmode="layer"
     id="layer3"
     inkscape:label="fg"
     style="filter:url(#filter9987)">
    <g
       id="g9509"
       style="fill:#22295c;fill-opacity:1;stroke-width:0.75646996"
       transform="matrix(1.3219295,0,0,1.3219295,615.70492,128.51559)">
      <path
         d="m -284.46009,-24.770159 q -0.1905,0 -0.3175,-0.127 -0.127,-0.127 -0.127,-0.3175 l 0.0423,-0.1905 5.08001,-13.6525 q 0.21167,-0.529166 0.762,-0.529166 h 2.32833 q 0.55034,0 0.762,0.529166 l 5.08001,13.6525 0.0423,0.1905 q 0,0.1905 -0.14817,0.3175 -0.127,0.127 -0.29633,0.127 h -1.88384 q -0.4445,0 -0.61383,-0.402167 l -0.97367,-2.561166 h -6.26533 l -0.97367,2.561166 q -0.16933,0.402167 -0.61383,0.402167 z m 4.21217,-5.418667 h 4.78367 l -2.39183,-6.519333 z m -19.72733,5.418667 q -0.21166,0 -0.35983,-0.148167 -0.14817,-0.148166 -0.14817,-0.359833 v -13.7795 q 0,-0.232833 0.127,-0.381 0.14817,-0.148166 0.381,-0.148166 h 1.7145 q 0.40217,0 0.635,0.402166 l 4.08517,7.577667 4.08517,-7.577667 q 0.23283,-0.402166 0.635,-0.402166 h 1.69333 q 0.23283,0 0.381,0.148166 0.14817,0.148167 0.14817,0.381 v 13.7795 q 0,0.232833 -0.14817,0.381 -0.14817,0.127 -0.381,0.127 h -1.82033 q -0.21167,0 -0.35984,-0.148167 -0.14816,-0.148166 -0.14816,-0.359833 v -9.101666 l -2.94217,5.587999 q -0.23283,0.465667 -0.6985,0.465667 h -0.889 q -0.4445,0 -0.71967,-0.465667 l -2.94216,-5.587999 v 9.101666 q 0,0.211667 -0.14817,0.359833 -0.127,0.148167 -0.35983,0.148167 z m -13.60123,0 q -0.21167,0 -0.35984,-0.148167 -0.14816,-0.148166 -0.14816,-0.359833 v -13.800666 q 0,-0.232834 0.14816,-0.359834 0.14817,-0.148166 0.35984,-0.148166 h 1.98966 q 0.23284,0 0.35984,0.148166 0.14816,0.127 0.14816,0.359834 v 11.768666 h 6.70984 q 0.23283,0 0.381,0.148167 0.14816,0.148166 0.14816,0.359833 v 1.524 q 0,0.211667 -0.14816,0.359833 -0.14817,0.148167 -0.381,0.148167 z m -17.41719,0 q -0.1905,0 -0.3175,-0.127 -0.127,-0.127 -0.127,-0.3175 l 0.0423,-0.1905 5.08,-13.6525 q 0.21167,-0.529166 0.762,-0.529166 h 2.32833 q 0.55034,0 0.762,0.529166 l 5.08,13.6525 0.0423,0.1905 q 0,0.1905 -0.14817,0.3175 -0.127,0.127 -0.29633,0.127 h -1.88384 q -0.4445,0 -0.61383,-0.402167 l -0.97367,-2.561166 h -6.26533 l -0.97367,2.561166 q -0.16933,0.402167 -0.61383,0.402167 z m 4.21216,-5.418667 h 4.78367 l -2.39183,-6.519333 z m -17.12283,5.418667 q -0.21166,0 -0.35983,-0.148167 -0.14817,-0.148166 -0.14817,-0.359833 v -13.7795 q 0,-0.232833 0.127,-0.381 0.14817,-0.148166 0.381,-0.148166 h 5.16467 q 6.24417,0 6.37117,5.757333 0.0423,1.227666 0.0423,1.651 0,0.402166 -0.0423,1.629833 -0.0847,2.963333 -1.60867,4.3815 -1.50283,1.397 -4.65667,1.397 z m 5.16467,-2.455333 q 1.75683,0 2.54,-0.783167 0.78317,-0.783167 0.8255,-2.6035 0.0423,-1.27 0.0423,-1.5875 0,-0.338667 -0.0423,-1.566333 -0.0423,-1.735667 -0.86783,-2.54 -0.8255,-0.8255 -2.6035,-0.8255 h -2.58234 v 9.906 z"
         style="font-style:normal;font-variant:normal;font-weight:500;font-stretch:normal;font-size:21.16666603px;line-height:6.3499999px;font-family:Rubik;-inkscape-font-specification:'Rubik Medium';letter-spacing:1.32291663px;word-spacing:0px;fill:#22295c;fill-opacity:1;stroke:none;stroke-width:0.20014934px;stroke-linecap:butt;stroke-linejoin:miter;stroke-opacity:1"
         id="path9008"
         inkscape:connector-curvature="0" />
      <path
         d="m -329.93548,-25.645228 c -0.51592,-0.0028 -0.98156,0.107733 -1.28134,0.321427 -0.57216,0.407863 -0.57653,0.761979 -0.0157,1.258321 0.23807,0.210712 0.43696,0.552135 0.4421,0.758611 0.005,0.206473 0.15674,0.519012 0.33663,0.694531 0.2197,0.214376 0.25351,0.364863 0.10293,0.459404 -0.12328,0.07741 -0.15387,0.297939 -0.0674,0.489892 0.0865,0.19195 0.14926,0.619453 0.13937,0.949812 -0.013,0.4314 0.0974,0.63044 0.39172,0.70693 0.54364,0.14124 0.74219,1.10071 0.35653,1.7229 -0.34189,0.5516 -0.12239,0.97902 0.62343,1.21388 0.27516,0.0866 0.38076,0.24903 0.30304,0.4656 -0.072,0.20067 0.10692,0.56346 0.45059,0.91312 l 0.57046,0.57981 -0.49218,0.15762 c -0.47418,0.15194 -0.4766,0.16445 -0.0644,0.34209 0.3117,0.1343 0.23326,0.15483 -0.28856,0.0749 -0.70118,-0.10741 -0.70943,-0.0996 -0.39189,0.36638 0.17843,0.26186 0.6523,0.66633 1.05331,0.89917 0.67898,0.39425 0.72608,0.4888 0.68524,1.37201 -0.0241,0.52159 -0.14038,1.0681 -0.25816,1.2144 -0.34799,0.43227 0.0164,1.2534198 0.7681,1.7321898 h 5.2e-4 c 0.57999,0.36939 0.97267,0.43692 2.28611,0.39222 l 1.58615,-0.0543 0.10555,-0.84646 c 0.13538,-1.0861798 1.09329,-2.8272698 1.71215,-3.1124698 0.26358,-0.12148 0.42929,-0.34355 0.36806,-0.49351 -0.0612,-0.14995 0.0607,-0.32501 0.27146,-0.3886 0.21069,-0.0635 0.0844,-0.0897 -0.28051,-0.0584 -0.58388,0.0502 -0.65825,-0.002 -0.6212,-0.43873 0.0231,-0.27283 0.0782,-0.52206 0.12213,-0.55346 0.0439,-0.0314 0.32933,-0.21548 0.63475,-0.40927 0.40346,-0.25602 0.52092,-0.47255 0.42936,-0.7922 -0.0813,-0.28385 0.0125,-0.54558 0.26433,-0.73743 0.37791,-0.28793 0.37498,-0.30795 -0.0944,-0.63717 -0.67244,-0.47166 -0.62105,-0.6358 0.37582,-1.19992 0.87569,-0.49556 1.1597,-1.09839 0.74559,-1.58285 -0.2482,-0.29036 -0.0213,-0.882712 0.51098,-1.333771 0.18679,-0.15829 0.31407,-0.607449 0.30262,-1.068152 -0.0109,-0.437158 0.10448,-0.899991 0.25657,-1.028877 0.15209,-0.128889 0.24743,-0.450448 0.21168,-0.714169 -0.0358,-0.263721 -0.0747,-0.556778 -0.087,-0.651639 -0.0124,-0.09486 -0.64057,-0.144598 -1.39698,-0.110588 -1.11947,0.05033 -1.3968,0.134278 -1.48994,0.452686 -0.0634,0.215146 -0.057,0.447675 0.0138,0.516763 0.0708,0.06909 -0.0217,0.296555 -0.20551,0.505396 -0.18378,0.208841 -0.27535,0.523433 -0.2038,0.698664 0.0717,0.175234 0.0388,0.375473 -0.0726,0.445453 -0.11146,0.06998 -0.14585,0.216149 -0.0761,0.324527 0.0762,0.118343 -1.18311,0.196887 -3.15408,0.196887 -2.98991,0 -3.92166,-0.15064 -3.30872,-0.535368 0.15074,-0.09462 0.10534,-0.270854 -0.13725,-0.531749 -0.19948,-0.21454 -0.32466,-0.513485 -0.27802,-0.664559 0.0466,-0.151075 -0.1419,-0.449583 -0.41853,-0.663009 -0.36227,-0.279469 -0.47217,-0.523597 -0.39325,-0.872816 0.0862,-0.381275 0.004,-0.51291 -0.38534,-0.6165 -0.32068,-0.0853 -0.64866,-0.128048 -0.9582,-0.129707 z m 4.9436,7.011978 c 0.29875,-0.003 0.63781,9.3e-4 1.01623,0.0109 l 2.29903,0.0599 -0.82892,0.49765 c -0.77733,0.46622 -0.80364,0.51508 -0.42641,0.786 0.22127,0.1589 0.50868,0.33274 0.63902,0.38654 0.13625,0.0562 0.0209,0.27587 -0.27137,0.51676 -0.41321,0.34064 -0.45874,0.47716 -0.24334,0.72915 0.21793,0.25496 0.13361,0.4122 -0.47612,0.88625 -0.69921,0.54363 -0.90902,1.34931 -0.31887,1.22474 0.4151,-0.0876 0.302,0.76256 -0.13279,0.99839 -0.52797,0.28648 -0.64899,0.2764 -0.54321,-0.0455 0.0478,-0.14552 -0.34543,-0.52305 -0.87404,-0.83871 -1.13038,-0.67503 -1.2124,-1.035 -0.33233,-1.45676 l 0.64294,-0.30799 -0.55133,-0.57929 c -0.30336,-0.31877 -0.507,-0.70436 -0.45229,-0.8568 0.0562,-0.15652 -0.13705,-0.38366 -0.44396,-0.52193 -0.59602,-0.26852 -0.7315,-0.90674 -0.27454,-1.29398 0.14274,-0.12095 0.67607,-0.18677 1.5723,-0.19533 z m -13.88496,-6.418374 c -1.80222,0 -2.74766,0.632426 -2.10427,1.407666 0.15697,0.189135 0.29711,0.640162 0.31162,1.002525 0.0145,0.362362 0.0816,0.873394 0.14934,1.135329 0.0677,0.261938 0.0486,0.475941 -0.0424,0.475941 -0.24007,0 -0.68387,1.054623 -0.54105,1.285713 0.0666,0.10774 0.28219,0.19747 0.47904,0.19947 0.20386,0.002 0.26679,0.07 0.14625,0.15864 -0.26847,0.19726 -0.33255,0.89607 -0.0822,0.89607 0.34838,0 0.19189,0.53121 -0.23513,0.79789 -0.54718,0.34175 -0.53972,0.81847 0.0176,1.11673 0.4205,0.22506 0.42374,0.25462 0.0729,0.64233 -0.34968,0.38637 -0.34874,0.42734 0.0165,0.83096 0.21139,0.23355 0.34494,0.45332 0.29714,0.48783 -0.0478,0.0345 -0.34854,0.22656 -0.66869,0.42684 -0.7444,0.46567 -0.7343,0.78086 0.0424,1.30122 0.61494,0.41199 0.61762,0.42304 0.21084,0.80201 -0.22685,0.21134 -0.41237,0.51254 -0.41237,0.66922 0,0.18928 -0.40826,0.33233 -1.21698,0.42632 -2.16613,0.25169 -2.59313,0.36503 -2.59313,0.6904 0,0.17211 -0.20677,0.4807698 -0.45992,0.6857498 l -0.46044,0.37259 0.47698,0.67024 0.47749,0.67024 5.5392,-0.0563 c 4.80761,-0.0489 5.52683,-0.0986 5.44463,-0.37413 -0.0964,-0.32307 -0.0862,-1.08021 0.03,-2.2226098 l 0.0646,-0.63458 -2.16937,-0.0605 c -2.15321,-0.0599 -2.46284,-0.1737 -1.85209,-0.68058 0.46124,-0.38279 0.39038,-0.73603 -0.21187,-1.05834 -0.85104,-0.45546 -0.56326,-1.21006 0.42375,-1.11156 0.24729,0.0247 0.3029,-0.0101 0.13435,-0.0837 -0.21841,-0.0954 -0.22621,-0.16435 -0.0331,-0.28371 0.19672,-0.12157 0.19045,-0.26148 -0.0274,-0.61029 -0.20688,-0.33135 -0.22198,-0.54818 -0.0563,-0.81081 0.17989,-0.28518 0.11756,-0.45206 -0.30489,-0.81545 l -0.53124,-0.45682 0.56793,-0.37259 c 0.63226,-0.41427 0.72444,-1.0514 0.24391,-1.68672 -0.38045,-0.50298 -0.40216,-1.261644 -0.0465,-1.637625 0.29219,-0.30885 0.31015,-0.715311 0.0574,-1.299662 -0.0976,-0.225645 -0.068,-0.482912 0.0718,-0.622699 0.1766,-0.17661 0.11731,-0.367314 -0.22892,-0.735873 -0.39241,-0.41769 -0.42566,-0.562835 -0.20981,-0.908471 0.3787,-0.606388 0.35052,-0.628904 -0.78755,-0.628904 z m -6.13968,15.4517738 c 0.23971,0 0.37679,0.0949 0.30489,0.21135 -0.0719,0.11647 -0.26839,0.21188 -0.43615,0.21188 -0.16775,0 -0.30489,-0.0955 -0.30489,-0.21188 0,-0.11647 0.19645,-0.21135 0.43615,-0.21135 z m 30.47273,2.24395 c -0.37923,-0.047 -0.69176,-0.2056 -0.69451,-0.35256 -0.003,-0.14695 -0.24733,-0.4909 -0.54349,-0.76432 -0.29617,-0.27341 -0.5408,-0.6204 -0.54362,-0.77108 -0.003,-0.1641 -0.13988,-0.22188 -0.34115,-0.14408 -0.29644,0.11457 -0.30352,0.0702 -0.06,-0.37706 0.15183,-0.2788198 0.41035,-0.6776898 0.5745,-0.8863798 0.80322,-1.02122 0.86958,-2.68973 0.10697,-2.68973 -0.14466,0 -0.42243,-0.18219 -0.61727,-0.40487 -0.33222,-0.3797 -0.32589,-0.4127 0.10177,-0.53069 0.25081,-0.0692 0.63423,-0.26502 0.85204,-0.43517 0.33095,-0.25853 0.34995,-0.36367 0.11565,-0.63975 -0.20713,-0.24406 -0.22497,-0.45723 -0.0683,-0.81586 0.17326,-0.39656 0.13767,-0.53141 -0.19435,-0.73635 -0.52861,-0.32631 -0.52515,-0.78213 0.009,-1.16111 0.33146,-0.23525 0.39297,-0.43862 0.2757,-0.91158 -0.083,-0.33483 -0.14222,-0.79928 -0.13158,-1.03212 0.10764,-2.357079 0.0845,-3.519069 -0.0717,-3.614731 -0.27809,-0.169903 -0.23397,-0.441992 0.1322,-0.815153 0.22107,-0.2253 0.71932,-0.332619 1.54423,-0.332619 h 1.21784 l 0.0119,0.687916 c 0.006,0.378354 0.0753,1.257372 0.1529,1.953373 0.0776,0.696001 0.0493,1.475741 -0.063,1.732751 -0.1123,0.257023 -0.12647,0.640063 -0.0316,0.851213 0.35571,0.79097 0.33448,1.19168 -0.0786,1.4849 -0.53309,0.37835 -0.52919,0.83251 0.01,1.16534 0.37898,0.23394 0.38897,0.29378 0.10296,0.61652 -0.26728,0.30159 -0.27185,0.42876 -0.0292,0.81388 0.25832,0.40999 0.22917,0.50002 -0.28647,0.8846 -0.31574,0.23548 -0.5713,0.57593 -0.56791,0.75654 0.004,0.22541 0.13745,0.15741 0.42479,-0.21681 0.23026,-0.29986 0.61356,-0.60743 0.8518,-0.6835 0.32678,-0.10433 0.40096,-0.25766 0.30207,-0.62433 -0.0996,-0.36926 0.003,-0.57484 0.42606,-0.85564 0.50488,-0.33493 0.52347,-0.39389 0.1981,-0.62859 -0.53182,-0.38362 -0.45004,-0.58975 0.42028,-1.0594 0.43188,-0.23306 0.79491,-0.54262 0.80674,-0.68792 0.0118,-0.14529 0.0426,-0.33561 0.0684,-0.42292 0.0258,-0.0873 0.0244,-0.38073 -0.003,-0.65205 -0.0766,-0.754133 0.54307,-1.305873 1.46657,-1.305873 1.15859,0 1.422,0.15041 1.31816,0.75266 -0.0493,0.285873 0.0276,0.657933 0.17092,0.826793 0.14331,0.16885 0.21137,0.38908 0.15125,0.48939 -0.0601,0.10031 0.0664,0.30727 0.28094,0.4599 0.23494,0.16708 0.35105,0.43899 0.29175,0.68324 -0.0594,0.24486 0.0614,0.52616 0.30484,0.70951 0.35106,0.26444 0.36273,0.33254 0.0899,0.52565 -0.26327,0.18639 -0.19302,0.32516 0.4396,0.86841 l 0.75295,0.64656 -0.47015,0.3256 c -0.47699,0.33033 -0.63458,0.90896 -0.24756,0.90896 0.11642,0 0.2087,-0.15875 0.20506,-0.35278 -0.004,-0.19403 0.05,-0.29721 0.11918,-0.22931 0.14064,0.13806 0.92375,-0.5926 0.9188,-0.85725 -0.002,-0.0931 -0.11863,-0.28266 -0.25975,-0.42119 -0.42472,-0.41691 -0.38353,-0.84581 0.0933,-0.97111 0.44167,-0.11607 0.44221,-0.12324 0.0315,-0.41949 -0.36637,-0.26427 -0.3817,-0.34595 -0.12438,-0.66315 0.32995,-0.40675 0.45128,-0.95405 0.21151,-0.95405 -0.0868,0 -0.13408,-0.59532 -0.10508,-1.32292 0.11351,-2.852018 0.0957,-3.758278 -0.0745,-3.814764 -0.0976,-0.03235 -0.11928,-0.309709 -0.048,-0.616362 0.11494,-0.49493 0.24765,-0.565652 1.18157,-0.629674 0.57865,-0.03967 1.23736,-0.004 1.46381,0.07935 0.36379,0.133846 0.3826,0.218117 0.16157,0.724024 -0.15595,0.356955 -0.17089,0.598766 -0.0397,0.642174 0.19117,0.06324 0.25191,2.019237 0.12875,4.144412 -0.0253,0.43656 0.005,0.79375 0.0672,0.79375 0.0623,0 0.12092,0.50006 0.13033,1.11125 0.0136,0.88857 -0.0624,1.14386 -0.37948,1.27398 -0.36884,0.15135 -0.37182,0.18953 -0.0427,0.54584 0.49602,0.53699 0.44851,0.8568 -0.16204,1.0906 -0.69331,0.26548 -0.65778,0.80431 0.0739,1.12147 0.53191,0.23055 0.58878,0.35723 0.60744,1.35329 0.0162,0.86699 -0.0782,1.19262 -0.44734,1.54283 -0.57837,0.54867 -0.5875,0.9778998 -0.0281,1.3231998 0.44319,0.27357 0.59711,1.10124 0.24566,1.32099 -0.11005,0.0688 -0.1438,0.26493 -0.075,0.43583 0.10058,0.24991 -0.10215,0.31072 -1.03584,0.31072 -1.21439,0 -1.79851,-0.34663 -1.5823,-0.93897 0.0691,-0.18915 -0.0498,-0.36069 -0.30579,-0.44146 -0.85021,-0.26825 -2.16022,-2.0062398 -1.51221,-2.0062398 0.11232,0 0.30457,-0.19433 0.42723,-0.43184 0.34967,-0.67706 -0.43196,-1.7127 -1.73249,-2.29554 -0.59168,-0.26515 -1.07744,-0.57099 -1.07947,-0.67964 -0.002,-0.10864 0.27835,-0.37104 0.6231,-0.58311 l 0.62681,-0.38557 -0.80469,-0.63547 c -0.93162,-0.73571 -1.33501,-0.69703 -1.31958,0.12651 0.008,0.42692 -0.14376,0.65904 -0.56586,0.86547 l -0.5768,0.28209 0.63807,0.16358 c 0.41538,0.10649 0.15733,0.13259 -0.73944,0.0748 -1.16451,-0.0751 -1.26934,-0.0556 -0.67802,0.12548 0.38471,0.11784 0.64521,0.30481 0.57888,0.41549 -0.0663,0.11068 0.0108,0.1505 0.17109,0.0885 0.20024,-0.0774 0.28354,0.0357 0.26568,0.36076 -0.0143,0.26042 -0.13711,0.51076 -0.27289,0.55631 -0.13579,0.0456 -0.58529,0.60745 -0.9989,1.24868 -0.41361,0.64123 -0.87096,1.21184 -1.01634,1.26803 -0.18314,0.0708 -0.22528,0.4115298 -0.13718,1.1093698 0.12975,1.02775 -0.22527,1.75882 -0.8153,1.67891 -0.13756,-0.0186 -0.56039,-0.0723 -0.93963,-0.11925 z m 34.45578,-0.0636 c -0.68175,-0.15067 -0.86172,-0.26054 -0.65098,-0.39742 0.22018,-0.14302 0.17195,-0.18998 -0.19761,-0.19243 -0.26888,-0.002 -0.42689,0.0909 -0.35114,0.206 0.0757,0.11508 0.009,0.16087 -0.14672,0.10174 -0.15645,-0.0591 -0.40985,-0.29615 -0.56313,-0.52674 -0.23801,-0.35807 -0.22438,-0.41972 0.0934,-0.42249 0.31593,-0.003 0.32312,-0.0334 0.0475,-0.20331 -0.2814,-0.17348 -0.27543,-0.23705 0.045,-0.47844 0.34444,-0.2595 0.30892,-0.34128 -0.52402,-1.2058598 -0.66709,-0.69244 -0.83936,-0.99605 -0.6798,-1.19811 0.14707,-0.18623 0.14115,-0.39679 -0.0189,-0.67508 -0.16536,-0.28741 -0.16208,-0.48091 0.0113,-0.66871 0.19156,-0.20744 0.13882,-0.33378 -0.24518,-0.58741 -0.67865,-0.44823 -0.63103,-0.60805 0.373,-1.25196 0.48233,-0.30934 1.2421,-0.9571 1.68838,-1.43947 0.72574,-0.78442 1.02645,-0.93022 2.84772,-1.38071 1.86589,-0.46152 2.10466,-0.5809 2.85308,-1.42635 0.90039,-1.01714 0.94322,-1.227917 0.46276,-2.276937 -0.43846,-0.957241 -0.92847,-1.174407 -2.64996,-1.174407 -1.60858,0 -2.40495,0.367313 -2.20846,1.018617 0.0717,0.23736 -0.11577,0.64682 -0.48504,1.05992 -0.53464,0.598077 -0.73113,0.673127 -1.76215,0.673127 -1.09769,0 -1.16771,-0.0315 -1.29554,-0.582077 -0.0744,-0.32015 -0.0577,-0.68053 0.0369,-0.80085 0.0953,-0.1212 0.0844,-0.35199 -0.0248,-0.517482 -0.23705,-0.360132 0.44816,-1.486255 0.90434,-1.486255 0.38315,0 0.37588,-0.108801 -0.0481,-0.718405 -0.40717,-0.585511 -0.25452,-0.767891 1.01439,-1.211927 1.26676,-0.443283 6.7167,-0.39148 7.78172,0.07397 0.6461,0.282363 0.81256,0.467861 0.83098,0.926001 0.0126,0.315097 0.28913,0.904312 0.61436,1.309365 0.73914,0.920541 0.83851,2.567133 0.2097,3.47534 -0.21838,0.31543 -0.39129,0.71693 -0.38425,0.89222 0.007,0.17529 -0.25184,0.6346 -0.57533,1.0207 -0.42845,0.51141 -0.53287,0.79411 -0.3846,1.04131 0.1568,0.26141 0.0727,0.39177 -0.36623,0.56773 -0.63845,0.25593 -3.49276,0.97256 -4.73419,1.18861 -0.44587,0.0776 -1.04752,0.23253 -1.33701,0.3443 -0.49982,0.19298 -0.50744,0.22322 -0.15116,0.60015 0.28822,0.30494 0.31543,0.43481 0.11742,0.5603 -0.18762,0.11892 -0.14464,0.20697 0.15797,0.32364 0.33015,0.12728 0.34421,0.16334 0.0684,0.17515 -0.38082,0.0163 -0.4122,1.07022 -0.0321,1.07631 0.1165,0.002 0.0895,0.083 -0.06,0.18021 -0.49625,0.32291 1.07499,0.76919 2.70812,0.76919 1.17236,0 1.60887,-0.0822 1.78567,-0.33607 0.12869,-0.18485 0.37462,-0.39164 0.54651,-0.45954 0.19582,-0.0773 0.21281,-0.12971 0.0455,-0.14018 -0.21391,-0.0134 -0.21783,-0.10094 -0.0196,-0.44004 0.19919,-0.3409 0.47447,-0.4227 1.41365,-0.42009 1.29474,0.004 2.01697,0.28842 1.53701,0.60613 -0.23728,0.15708 -0.23541,0.20392 0.0124,0.30079 0.1961,0.0768 0.20798,0.12028 0.0359,0.13146 -0.14151,0.009 -0.20566,0.13843 -0.14259,0.2872 0.0641,0.15112 -0.34004,0.62822 -0.91569,1.0811 -1.11893,0.8802998 -1.27734,1.3191198 -0.5279,1.4623598 0.35242,0.0674 0.30013,0.0994 -0.19686,0.12056 -0.73462,0.0313 -1.73924,0.4247 -1.72909,0.67709 0.0225,0.55944 -2.94646,0.78551 -4.8349,0.36816 z m -7.72955,-17.4207658 c -1.55256,0 -2.16783,0.428331 -1.96524,1.367358 0.0664,0.307645 -0.004,0.636781 -0.16649,0.774113 -0.15511,0.13141 -0.27925,0.370348 -0.2753,0.530717 0.006,0.234154 -0.59226,0.291454 -3.03813,0.291454 -2.6731,0 -3.10774,-0.0493 -3.55073,-0.401007 -0.37979,-0.301538 -0.50965,-0.614254 -0.52562,-1.264008 -0.018,-0.732607 -0.10649,-0.898617 -0.58292,-1.093988 -0.30889,-0.126654 -1.0276,-0.200512 -1.59671,-0.164333 l -1.0345,0.06563 0.088,0.74104 c 0.0483,0.407458 0.26328,1.031007 0.47797,1.385961 0.21463,0.354957 0.37386,0.878936 0.35418,1.16427 -0.0197,0.285337 0.0954,0.720781 0.2553,0.967902 0.16003,0.247118 0.24258,0.652037 0.18387,0.899687 -0.0664,0.28034 -0.008,0.45062 0.15576,0.45062 0.20827,0 0.2096,0.0654 0.007,0.31729 -0.21156,0.26268 -0.18726,0.31998 0.14098,0.33228 0.36913,0.0138 0.36773,0.0276 -0.0221,0.19689 -0.23034,0.10009 -0.2954,0.18889 -0.14399,0.19688 0.15141,0.008 0.46708,0.41939 0.7015,0.91416 0.42408,0.89498 0.42442,0.90045 -0.002,1.00666 -0.41502,0.10346 -0.41117,0.126 0.13241,0.74052 0.30849,0.34871 0.56594,0.53913 0.57108,0.42271 0.005,-0.11641 0.0897,-0.0215 0.18761,0.21136 0.1389,0.33018 0.0807,0.44898 -0.2658,0.53899 -0.64404,0.16725 -0.53268,0.65864 0.26082,1.15031 0.37965,0.23524 0.69696,0.53485 0.70419,0.66611 0.007,0.13127 0.13865,0.34017 0.29098,0.46406 0.1735,0.1411 0.26992,0.63901 0.25807,1.33273 -0.014,0.8175598 0.0895,1.2405998 0.39476,1.6169598 0.28669,0.35342 0.38049,0.69873 0.30567,1.12499 -0.0893,0.50886 -0.0208,0.6491 0.39884,0.81546 l 1e-5,5.2e-4 c 0.64477,0.25557 2.53406,0.27942 2.91132,0.0367 0.16034,-0.10317 0.21395,-0.29881 0.12141,-0.44286 -0.12012,-0.1869 0.002,-0.23157 0.44508,-0.16227 0.33627,0.0525 0.49104,0.0554 0.34433,0.007 -0.40746,-0.13525 -0.32739,-0.4754 0.15442,-0.65526 l 0.43168,-0.16123 -0.45137,-0.55603 -0.45085,-0.55604 0.54883,-0.4402898 c 0.3019,-0.24215 0.63768,-0.44028 0.74624,-0.44028 0.1086,0 0.13504,-0.18263 0.0587,-0.40566 -0.0763,-0.22304 -0.0395,-0.46764 0.0817,-0.54364 0.12123,-0.076 0.16846,-0.21932 0.10483,-0.31832 -0.0636,-0.099 0.0258,-0.32524 0.19899,-0.50282 0.28224,-0.28934 0.25288,-0.3803 -0.28414,-0.87953 l -0.59918,-0.55707 0.50908,-0.3545 c 1.28346,-0.89337 1.34272,-0.97982 0.94089,-1.37201 -0.20193,-0.19705 -0.2653,-0.35812 -0.14057,-0.35812 0.12477,0 0.20559,-0.0713 0.17955,-0.15864 -0.026,-0.0873 0.10992,-0.4681 0.30217,-0.84646 0.19233,-0.37835 0.2752,-0.6974 0.18462,-0.709 -0.0906,-0.0116 0.0714,-0.0975 0.36015,-0.19069 0.50366,-0.16257 0.50593,-0.17048 0.0485,-0.19069 -0.6264,-0.0277 -0.60602,-0.18921 0.12256,-0.96376 0.60432,-0.64245 0.78316,-1.19612 0.87641,-2.712497 0.027,-0.438613 0.19651,-0.964583 0.37642,-1.168921 0.21257,-0.241503 0.25923,-0.476686 0.13386,-0.671793 -0.12059,-0.187637 -0.0832,-0.522808 0.1,-0.894519 l 0.29285,-0.594796 z m -7.7723,3.293856 c 0.61423,-0.0079 1.58754,0.01318 3.1369,0.04806 1.54339,0.03474 2.01882,0.115919 2.11937,0.362251 0.11178,0.273701 -0.31906,0.31781 -3.12584,0.31781 -2.98004,0 -3.25193,-0.03144 -3.21046,-0.37052 0.0306,-0.249791 0.0563,-0.34439 1.08003,-0.357601 z m 2.13858,3.7083 c 1.42633,0.009 2.47565,0.0648 2.33157,0.12351 -0.14408,0.0587 -0.25819,0.25985 -0.25358,0.44752 0.005,0.18765 -0.24118,0.6083 -0.54598,0.93482 l -0.55436,0.59376 0.51634,0.0248 c 0.37777,0.018 0.41478,0.0511 0.13739,0.12351 -0.26764,0.0699 -0.31505,0.17367 -0.16185,0.35294 0.28791,0.33694 0.0788,0.63529 -0.74438,1.06247 -0.59912,0.31091 -0.93514,0.96469 -0.505,0.98289 0.0874,0.004 0.3471,0.14689 0.57728,0.31781 0.39935,0.29657 0.4015,0.32345 0.0475,0.58704 -0.23076,0.17182 -0.37211,0.57178 -0.37395,1.05833 -0.002,0.43018 -0.0792,0.78187 -0.1725,0.78187 -0.0933,0 -0.17198,-0.10099 -0.17501,-0.22427 -0.003,-0.12331 -0.0994,-0.16524 -0.21366,-0.0935 -0.1364,0.0856 -0.14394,-0.0482 -0.0225,-0.38964 0.14589,-0.41027 0.097,-0.59821 -0.22955,-0.88728 -0.2278,-0.20167 -0.37545,-0.43158 -0.32831,-0.51108 0.0472,-0.0795 -0.19853,-0.31058 -0.54643,-0.51315 -0.70297,-0.40931 -0.82366,-0.90817 -0.31177,-1.28933 0.51769,-0.38547 0.16209,-1.23452 -0.43919,-1.04851 -0.25066,0.0775 -0.38697,0.0668 -0.30291,-0.0243 0.0841,-0.0911 0.0434,-0.29335 -0.0902,-0.44959 -0.1798,-0.21036 -0.17773,-0.28422 0.008,-0.28422 0.13756,0 0.18904,-0.0954 0.11418,-0.21187 -0.0749,-0.11646 -0.0355,-0.21136 0.0878,-0.21136 0.34309,0 0.25124,-0.63191 -0.11193,-0.76997 -0.87018,-0.3308 -0.0855,-0.49828 2.26344,-0.48318 z m -0.28306,12.4715898 c -0.63625,0 -1.1551,0.0576 -1.15337,0.12816 0.002,0.0705 0.233,0.30552 0.51411,0.52245 0.28111,0.21692 0.5764,0.685 0.65602,1.039734 0.0941,0.41883 0.32659,0.71303 0.66297,0.83974 0.67159,0.25297 0.912,0.64109 0.54994,0.88677 -0.48184,0.32695 2.39882,0.15062 3.06497,-0.18759 l 0.60227,-0.30541 -0.49333,-0.24494 c -0.27145,-0.1347 -0.65055,-0.50672 -0.84198,-0.82683 -0.19144,-0.32012 -0.8105,-0.868204 -1.3761,-1.217494 -0.81716,-0.50463 -1.26627,-0.63459 -2.1855,-0.63459 z"
         style="fill:#22295c;fill-opacity:1;stroke-width:0.75646991"
         id="path9485"
         inkscape:connector-curvature="0" />
    </g>
    <rect
       y="52"
       x="8"
       height="28.000002"
       width="301"
       id="rect10056"
       style="opacity:0.65;fill:url(#linearGradient10058);fill-opacity:1;fill-rule:evenodd;stroke:none;stroke-width:0.20000003;stroke-linecap:round;stroke-linejoin:miter;stroke-miterlimit:4;stroke-dasharray:none;stroke-opacity:0.36153846" />
    <text
       xml:space="preserve"
       style="font-style:normal;font-weight:normal;font-size:10.58333302px;line-height:6.3499999px;font-family:sans-serif;letter-spacing:0px;word-spacing:0px;fill:#22295c;fill-opacity:1;stroke:none;stroke-width:0.26458332px;stroke-linecap:butt;stroke-linejoin:miter;stroke-opacity:1;"
       x="59.663021"
       y="95.83522"
       id="text4533"><tspan
         sodipodi:role="line"
         id="tspan4531"
         x="59.663021"
         y="95.83522"
         style="font-style:normal;font-variant:normal;font-weight:normal;font-stretch:normal;font-size:8.81944466px;font-family:'EB Garamond 12 All SC';-inkscape-font-specification:'EB Garamond 12 All SC';text-align:center;text-anchor:middle;stroke-width:0.26458332px;fill:#22295c;fill-opacity:1;">2017. július 27.</tspan></text>
  </g>
  <g
     inkscape:groupmode="layer"
     id="layer2"
     inkscape:label="mk"
     style="display:inline"
     sodipodi:insensitive="true">
    <rect
       transform="translate(0,-69)"
       style="opacity:0.65;fill:#ff0101;fill-opacity:1;fill-rule:evenodd;stroke:none;stroke-width:0.2;stroke-linecap:round;stroke-linejoin:miter;stroke-miterlimit:4;stroke-dasharray:none;stroke-opacity:0.36153846;enable-background:new"
       id="rect9605"
       width="0.24999999"
       height="4.9999995"
       x="109.125"
       y="69" />
    <rect
       transform="translate(0,-69)"
       style="opacity:0.65;fill:#ff0101;fill-opacity:1;fill-rule:evenodd;stroke:none;stroke-width:0.2;stroke-linecap:round;stroke-linejoin:miter;stroke-miterlimit:4;stroke-dasharray:none;stroke-opacity:0.36153846;enable-background:new"
       id="rect9605-5"
       width="0.24999999"
       height="4.9999995"
       x="208.125"
       y="69" />
    <rect
       transform="translate(0,-69)"
       style="opacity:0.65;fill:#ff0101;fill-opacity:1;fill-rule:evenodd;stroke:none;stroke-width:0.2;stroke-linecap:round;stroke-linejoin:miter;stroke-miterlimit:4;stroke-dasharray:none;stroke-opacity:0.36153846;enable-background:new"
       id="rect9605-57"
       width="0.24999999"
       height="4.9999995"
       x="109.125"
       y="292" />
    <rect
       transform="translate(0,-69)"
       style="opacity:0.65;fill:#ff0101;fill-opacity:1;fill-rule:evenodd;stroke:none;stroke-width:0.2;stroke-linecap:round;stroke-linejoin:miter;stroke-miterlimit:4;stroke-dasharray:none;stroke-opacity:0.36153846;enable-background:new"
       id="rect9605-5-6"
       width="0.24999999"
       height="4.9999995"
       x="208.125"
       y="292" />
    <rect
       style="opacity:0.65;fill:#ff0101;fill-opacity:1;fill-rule:evenodd;stroke:none;stroke-width:0.2;stroke-linecap:round;stroke-linejoin:miter;stroke-miterlimit:4;stroke-dasharray:none;stroke-opacity:0.36153846;enable-background:new"
       id="rect9605-6"
       width="0.24999999"
       height="4.9999995"
       x="-79.125"
       y="4.8172534e-15"
       transform="rotate(-90,-34.5,-34.499999)" />
    <rect
       style="opacity:0.65;fill:#ff0101;fill-opacity:1;fill-rule:evenodd;stroke:none;stroke-width:0.2;stroke-linecap:round;stroke-linejoin:miter;stroke-miterlimit:4;stroke-dasharray:none;stroke-opacity:0.36153846;enable-background:new"
       id="rect9605-6-7"
       width="0.24999999"
       height="4.9999995"
       x="-287.125"
       y="1.7636845e-14"
       transform="rotate(-90,-34.5,-34.499999)" />
    <rect
       style="opacity:0.65;fill:#ff0101;fill-opacity:1;fill-rule:evenodd;stroke:none;stroke-width:0.2;stroke-linecap:round;stroke-linejoin:miter;stroke-miterlimit:4;stroke-dasharray:none;stroke-opacity:0.36153846;enable-background:new"
       id="rect9605-6-5"
       width="0.24999999"
       height="4.9999995"
       x="-79.124992"
       y="312"
       transform="rotate(-90,-34.5,-34.499999)" />
    <rect
       style="opacity:0.65;fill:#ff0101;fill-opacity:1;fill-rule:evenodd;stroke:none;stroke-width:0.2;stroke-linecap:round;stroke-linejoin:miter;stroke-miterlimit:4;stroke-dasharray:none;stroke-opacity:0.36153846;enable-background:new"
       id="rect9605-6-7-6"
       width="0.24999999"
       height="4.9999995"
       x="-287.125"
       y="312"
       transform="rotate(-90,-34.5,-34.499999)" />
    <rect
       transform="translate(0,-69)"
       style="opacity:0.65;fill:#ff0101;fill-opacity:1;fill-rule:evenodd;stroke:none;stroke-width:0.2;stroke-linecap:round;stroke-linejoin:miter;stroke-miterlimit:4;stroke-dasharray:none;stroke-opacity:0.36153846;enable-background:new"
       id="rect9605-9"
       width="0.24999999"
       height="4.9999995"
       x="9.875"
       y="69" />
    <rect
       transform="translate(0,-69)"
       style="opacity:0.65;fill:#ff0101;fill-opacity:1;fill-rule:evenodd;stroke:none;stroke-width:0.2;stroke-linecap:round;stroke-linejoin:miter;stroke-miterlimit:4;stroke-dasharray:none;stroke-opacity:0.36153846;enable-background:new"
       id="rect9605-8"
       width="0.24999999"
       height="4.9999995"
       x="306.875"
       y="69" />
    <rect
       transform="translate(0,-69)"
       style="opacity:0.65;fill:#ff0101;fill-opacity:1;fill-rule:evenodd;stroke:none;stroke-width:0.2;stroke-linecap:round;stroke-linejoin:miter;stroke-miterlimit:4;stroke-dasharray:none;stroke-opacity:0.36153846;enable-background:new"
       id="rect9605-9-7"
       width="0.24999999"
       height="4.9999995"
       x="9.875"
       y="292" />
    <rect
       transform="translate(0,-69)"
       style="opacity:0.65;fill:#ff0101;fill-opacity:1;fill-rule:evenodd;stroke:none;stroke-width:0.2;stroke-linecap:round;stroke-linejoin:miter;stroke-miterlimit:4;stroke-dasharray:none;stroke-opacity:0.36153846;enable-background:new"
       id="rect9605-8-2"
       width="0.24999999"
       height="4.9999995"
       x="306.875"
       y="292" />
  </g>
</svg>
