<?xml version="1.0" encoding="UTF-8" standalone="no"?>
<!-- Created with Inkscape (http://www.inkscape.org/) -->

<svg
   xmlns:dc="http://purl.org/dc/elements/1.1/"
   xmlns:cc="http://creativecommons.org/ns#"
   xmlns:rdf="http://www.w3.org/1999/02/22-rdf-syntax-ns#"
   xmlns:svg="http://www.w3.org/2000/svg"
   xmlns="http://www.w3.org/2000/svg"
   xmlns:xlink="http://www.w3.org/1999/xlink"
   xmlns:sodipodi="http://sodipodi.sourceforge.net/DTD/sodipodi-0.dtd"
   xmlns:inkscape="http://www.inkscape.org/namespaces/inkscape"
   width="317mm"
   height="230mm"
   viewBox="0 0 317 230"
   version="1.1"
   id="svg8"
   sodipodi:docname="invitation-front-prototype.svg"
   inkscape:version="0.92.1 r"
   inkscape:export-filename="/home/petervaro/documents/personal/local/tomi-wedding/invitation-front.png"
   inkscape:export-xdpi="149.94913"
   inkscape:export-ydpi="149.94913"
   style="enable-background:new">
  <defs
     id="defs2">
    <linearGradient
       inkscape:collect="always"
       id="linearGradient4602">
      <stop
         style="stop-color:#a9a0bb;stop-opacity:1"
         offset="0"
         id="stop4598" />
      <stop
         id="stop4606"
         offset="0.31322956"
         style="stop-color:#b99ac6;stop-opacity:1" />
      <stop
         style="stop-color:#b890b7;stop-opacity:1"
         offset="0.68774319"
         id="stop4608" />
      <stop
         style="stop-color:#95a0b6;stop-opacity:1"
         offset="1"
         id="stop4600" />
    </linearGradient>
    <linearGradient
       inkscape:collect="always"
       id="linearGradient5246">
      <stop
         style="stop-color:#ffff95;stop-opacity:0.9"
         offset="0"
         id="stop5242" />
      <stop
         style="stop-color:#ffe86a;stop-opacity:0.15"
         offset="1"
         id="stop5244" />
    </linearGradient>
    <linearGradient
       inkscape:collect="always"
       id="linearGradient8797">
      <stop
         style="stop-color:#b4cecb;stop-opacity:1"
         offset="0"
         id="stop8793" />
      <stop
         id="stop8801"
         offset="0.29235208"
         style="stop-color:#d1b0c1;stop-opacity:1" />
      <stop
         style="stop-color:#cdbfc5;stop-opacity:1"
         offset="0.41891104"
         id="stop8803" />
      <stop
         style="stop-color:#eaefed;stop-opacity:1"
         offset="1"
         id="stop8795" />
    </linearGradient>
    <linearGradient
       id="linearGradient7859">
      <stop
         id="stop7855"
         offset="0"
         style="stop-color:#014d67;stop-opacity:1" />
      <stop
         style="stop-color:#058c8c;stop-opacity:1"
         offset="0.25556999"
         id="stop7863" />
      <stop
         style="stop-color:#c0a3df;stop-opacity:1"
         offset="0.5003776"
         id="stop7861" />
      <stop
         id="stop7857"
         offset="1"
         style="stop-color:#a84e74;stop-opacity:1" />
    </linearGradient>
    <linearGradient
       id="linearGradient6957-3-6">
      <stop
         style="stop-color:#000000;stop-opacity:1;"
         offset="0"
         id="stop6953" />
      <stop
         style="stop-color:#000000;stop-opacity:0;"
         offset="1"
         id="stop6955" />
    </linearGradient>
    <linearGradient
       inkscape:collect="always"
       xlink:href="#linearGradient6957-3-6"
       id="linearGradient6959"
       x1="103.94345"
       y1="5.9583282"
       x2="103.94345"
       y2="292.84225"
       gradientUnits="userSpaceOnUse" />
    <linearGradient
       inkscape:collect="always"
       xlink:href="#linearGradient8797"
       id="linearGradient8799"
       x1="104.69941"
       y1="34.334835"
       x2="104.69941"
       y2="283.05951"
       gradientUnits="userSpaceOnUse"
       gradientTransform="matrix(1.4428571,0,0,0.72727271,6.9999997,74.000004)" />
    <linearGradient
       inkscape:collect="always"
       xlink:href="#linearGradient5246"
       id="linearGradient5248"
       x1="239.44791"
       y1="87.185432"
       x2="228.59999"
       y2="245.40623"
       gradientUnits="userSpaceOnUse"
       gradientTransform="matrix(1.3486892,0,0,1.0384615,-32.51063,-18.423086)" />
    <filter
       inkscape:collect="always"
       style="color-interpolation-filters:sRGB"
       id="filter8143">
      <feBlend
         inkscape:collect="always"
         mode="overlay"
         in2="BackgroundImage"
         id="feBlend8145" />
    </filter>
    <linearGradient
       inkscape:collect="always"
       xlink:href="#linearGradient4602"
       id="linearGradient4604"
       x1="411.05426"
       y1="170.24791"
       x2="411.05426"
       y2="75.320953"
       gradientUnits="userSpaceOnUse" />
    <linearGradient
       inkscape:collect="always"
       xlink:href="#linearGradient4602"
       id="linearGradient4610"
       gradientUnits="userSpaceOnUse"
       x1="250.20009"
       y1="384.53812"
       x2="250.20009"
       y2="29.95006" />
    <linearGradient
       inkscape:collect="always"
       xlink:href="#linearGradient4602"
       id="linearGradient4612"
       gradientUnits="userSpaceOnUse"
       x1="233.40646"
       y1="383.75626"
       x2="233.40646"
       y2="34.836159" />
  </defs>
  <sodipodi:namedview
     id="base"
     pagecolor="#ffffff"
     bordercolor="#666666"
     borderopacity="1.0"
     inkscape:pageopacity="1"
     inkscape:pageshadow="2"
     inkscape:zoom="1.1"
     inkscape:cx="508.48349"
     inkscape:cy="480.51777"
     inkscape:document-units="mm"
     inkscape:current-layer="layer1"
     showgrid="false"
     inkscape:showpageshadow="false"
     inkscape:snap-to-guides="false"
     inkscape:snap-grids="false"
     inkscape:object-nodes="false"
     inkscape:snap-others="false"
     inkscape:snap-nodes="false"
     inkscape:snap-global="false"
     inkscape:window-width="2560"
     inkscape:window-height="1437"
     inkscape:window-x="0"
     inkscape:window-y="0"
     inkscape:window-maximized="1"
     showborder="true"
     showguides="false"
     inkscape:guide-bbox="true">
    <sodipodi:guide
       position="99.000002,210"
       orientation="1,0"
       id="guide5250"
       inkscape:locked="false"
       inkscape:label=""
       inkscape:color="rgb(0,0,255)" />
    <sodipodi:guide
       position="198,210"
       orientation="1,0"
       id="guide5252"
       inkscape:locked="false"
       inkscape:label=""
       inkscape:color="rgb(0,0,255)" />
    <sodipodi:guide
       position="-5.0000001,174"
       orientation="0,1"
       id="guide5256"
       inkscape:locked="false"
       inkscape:label=""
       inkscape:color="rgb(0,0,255)" />
    <sodipodi:guide
       position="-5.0000001,34.000001"
       orientation="0,1"
       id="guide5258"
       inkscape:locked="false"
       inkscape:label=""
       inkscape:color="rgb(0,0,255)" />
    <sodipodi:guide
       position="-5.0000001,44.000001"
       orientation="0,1"
       id="guide6259"
       inkscape:locked="false"
       inkscape:label=""
       inkscape:color="rgb(0,0,255)" />
    <sodipodi:guide
       position="36.644793,163.71093"
       orientation="0,1"
       id="guide9656"
       inkscape:locked="false" />
    <sodipodi:guide
       position="34.46198,150.01875"
       orientation="0,1"
       id="guide9658"
       inkscape:locked="false" />
    <sodipodi:guide
       position="37.511278,155.00296"
       orientation="0,1"
       id="guide9660"
       inkscape:locked="false" />
    <sodipodi:guide
       position="34.588018,158.72135"
       orientation="0,1"
       id="guide9662"
       inkscape:locked="false" />
  </sodipodi:namedview>
  <metadata
     id="metadata5">
    <rdf:RDF>
      <cc:Work
         rdf:about="">
        <dc:format>image/svg+xml</dc:format>
        <dc:type
           rdf:resource="http://purl.org/dc/dcmitype/StillImage" />
        <dc:title></dc:title>
      </cc:Work>
    </rdf:RDF>
  </metadata>
  <g
     inkscape:groupmode="layer"
     id="layer12"
     inkscape:label="bg"
     transform="translate(0,-67)"
     style="display:inline"
     sodipodi:insensitive="true">
    <rect
       style="opacity:1;fill:url(#linearGradient8799);fill-opacity:1;fill-rule:evenodd;stroke:none;stroke-width:0.52916664;stroke-linecap:round;stroke-linejoin:miter;stroke-miterlimit:4;stroke-dasharray:none;stroke-opacity:1"
       id="rect8791"
       width="303"
       height="216"
       x="7"
       y="74" />
  </g>
  <g
     inkscape:groupmode="layer"
     id="layer13"
     inkscape:label="fg"
     style="display:inline;filter:url(#filter8143)"
     transform="translate(0,-67)"
     sodipodi:insensitive="true">
    <rect
       style="opacity:0.35;fill:url(#linearGradient5248);fill-opacity:1;fill-rule:evenodd;stroke:none;stroke-width:12.50000191;stroke-linecap:round;stroke-linejoin:miter;stroke-miterlimit:4;stroke-dasharray:none;stroke-opacity:0.36153846"
       id="rect5221"
       width="80.646004"
       height="216"
       x="207.99998"
       y="74" />
    <flowRoot
       xml:space="preserve"
       id="flowRoot9615"
       style="font-style:normal;font-weight:normal;font-size:40px;line-height:24px;font-family:sans-serif;letter-spacing:0px;word-spacing:0px;fill:#000000;fill-opacity:1;stroke:none;stroke-width:1px;stroke-linecap:butt;stroke-linejoin:miter;stroke-opacity:1"
       transform="matrix(0.26458333,0,0,0.26458333,0,89)"><flowRegion
         id="flowRegion9617"><rect
           id="rect9619"
           width="334.28571"
           height="427.14285"
           x="441.42856"
           y="246.14172" /></flowRegion><flowPara
         id="flowPara9621" /></flowRoot>    <flowRoot
       xml:space="preserve"
       id="flowRoot9830"
       style="font-style:normal;font-weight:normal;font-size:40px;line-height:24px;font-family:sans-serif;letter-spacing:0px;word-spacing:0px;fill:#000000;fill-opacity:1;stroke:none;stroke-width:1px;stroke-linecap:butt;stroke-linejoin:miter;stroke-opacity:1"><flowRegion
         id="flowRegion9832"><rect
           id="rect9834"
           width="50"
           height="517.85712"
           x="486.42856"
           y="146.856" /></flowRegion><flowPara
         id="flowPara9836" /></flowRoot>    <text
       xml:space="preserve"
       style="font-style:normal;font-weight:normal;font-size:10.58333302px;line-height:6.3499999px;font-family:sans-serif;letter-spacing:0px;word-spacing:0px;fill:#22295c;fill-opacity:1;stroke:none;stroke-width:0.26458332px;stroke-linecap:butt;stroke-linejoin:miter;stroke-opacity:1"
       x="48.188232"
       y="140.99695"
       id="text9646"><tspan
         sodipodi:role="line"
         id="tspan9644"
         x="48.188232"
         y="140.99695"
         style="font-style:normal;font-variant:normal;font-weight:300;font-stretch:normal;font-size:5.29166651px;font-family:Rubik;-inkscape-font-specification:'Rubik Light';fill:#22295c;fill-opacity:1;stroke-width:0.26458332px">MEGHÍVÓ</tspan></text>
    <g
       id="g8841"
       style="display:inline;opacity:0.65;fill:#22295c;fill-opacity:1;stroke-width:1.82608342;enable-background:new"
       transform="matrix(0.54762011,0,0,0.54762011,2.1321799,100.67884)">
      <path
         style="display:inline;fill:#22295c;fill-opacity:1;fill-rule:evenodd;stroke:none;stroke-width:1px;stroke-linecap:butt;stroke-linejoin:miter;stroke-opacity:1"
         d="m 113.75195,171 -6.27539,35.6875 h -3.88086 l -4.521481,-15.11914 -6.712891,22.54492 0.681641,1.8086 h 1.351562 v 45.90039 l 1.277344,7.90625 v 64.32421 H 83.972656 v 33.55079 H 114.5 c -0.19974,0.0409 -0.43532,0.0758 -0.61914,0.11914 -3.52043,0.83003 -4.02751,1.08816 -2.80469,1.43164 1.06296,0.2986 1.2335,0.51456 0.59571,0.75 -0.97728,0.36075 -17.328394,1.57691 -29.357427,2.18359 -8.032172,0.40511 -11.133243,1.29102 -4.519531,1.29102 2.704308,0 4.218939,0.28569 4.833984,0.91015 0.492595,0.50028 1.199075,0.91016 1.570313,0.91016 0.371285,0 0.528601,0.23903 0.349609,0.5332 -0.179008,0.29417 -2.096717,0.72937 -4.261719,0.96485 -6.994427,0.76071 -3.582,1.28455 9.441407,1.45117 l 6.419922,0.082 v 1.51562 c 0,0.8338 0.553134,2.07968 1.230468,2.76758 1.739495,1.76665 1.227371,2.53456 -2.443359,3.65821 -1.764564,0.54018 -3.303975,1.27163 -3.419922,1.625 -0.11668,0.35554 1.337613,0.95799 3.255859,1.3496 4.560779,0.93104 9.882776,2.45275 10.630856,3.03907 0.3284,0.25741 2.3439,0.92777 4.47852,1.48828 5.21152,1.36847 10.12234,2.8037 11.94141,3.49023 l 1.49414,0.5625 -1.49414,0.84375 -1.49219,0.8418 2.08984,0.082 c 1.14941,0.0451 2.76102,0.28164 3.58203,0.52539 1.44,0.42751 1.42033,0.45935 -0.5957,0.94336 -1.14939,0.27584 -4.02823,0.46934 -6.39648,0.42773 -2.36826,-0.0416 -4.44561,0.15369 -4.61719,0.43555 -0.37137,0.61027 2.52658,1.26758 5.59375,1.26758 1.20687,0 2.46376,0.27114 2.79101,0.60352 0.32728,0.33236 3.42231,0.6281 6.87891,0.65625 6.0916,0.0496 9.08096,0.66217 7.06641,1.44726 -0.48902,0.19058 -3.83852,0.56579 -7.44532,0.83399 -5.55352,0.41293 -6.33052,0.59153 -5.0664,1.16406 0.82104,0.37185 1.1566,0.69136 0.74609,0.71289 -1.37502,0.0708 -0.76321,1.25195 0.64844,1.25195 1.91198,0 2.37337,0.63695 1.13476,1.56641 -1.80725,1.35618 -0.0429,2.11691 6.31641,2.72461 3.31166,0.31644 6.63875,0.81396 7.39453,1.10547 1.27974,0.49357 1.23133,0.55543 -0.71484,0.88672 -2.12834,0.36226 -6.44497,0.9293 -7.38867,0.9707 -0.97694,0.043 0.90254,1.76947 2.20703,2.02734 0.71506,0.14132 -0.0941,0.29257 -1.79883,0.33789 -3.52488,0.0939 -5.07565,1.29688 -1.67188,1.29688 2.8168,0 11.85864,1.71204 14.94336,2.83008 1.3255,0.4804 2.66787,1.45956 2.98438,2.17578 0.32355,0.73213 1.49107,1.56276 2.66601,1.89843 1.89824,0.54234 1.95356,0.61688 0.59766,0.80274 -0.82099,0.11251 -2.56725,0.45488 -3.88086,0.76172 -1.3136,0.30688 -3.17315,0.72591 -4.13086,0.93164 l -1.74023,0.375 2.85156,1.39648 c 2.84191,1.39104 2.8469,1.39827 1.17578,1.82422 -1.30867,0.33358 -1.48689,0.54914 -0.8125,0.98242 0.47548,0.3055 1.5042,0.56032 2.28711,0.56446 2.20459,0.0144 6.04102,1.33778 6.04102,2.08398 0,0.36842 0.57999,0.9403 1.28906,1.26953 1.55859,0.72365 2.62412,3.24692 1.53515,3.63477 -0.40456,0.14407 -1.5235,0.55704 -2.48828,0.91601 l -1.7539,0.65235 1.7539,1.05859 c 0.96478,0.58189 2.92679,1.44066 4.36133,1.91016 1.43452,0.46952 3.22469,1.34662 3.97656,1.94726 0.75187,0.60064 1.79352,1.0918 2.31641,1.0918 0.52291,0 0.95117,0.27195 0.95117,0.60547 0,0.33354 -0.55232,0.60742 -1.22851,0.60742 -2.0182,0 -0.76896,1.02488 1.66211,1.36328 1.23951,0.17254 3.19436,0.73186 4.34375,1.24414 l 2.08984,0.93164 -2.64062,0.0488 c -1.46497,0.0274 -3.08801,0.46131 -3.64649,0.97461 -1.30561,1.20002 -7.24107,3.3143 -9.37109,3.33789 -2.97036,0.033 -0.14706,1.01207 3.94922,1.36914 2.09854,0.1829 3.97933,0.57282 4.17968,0.86524 0.60014,0.87641 4.89934,3.24043 5.36328,2.94921 0.23677,-0.1486 0.82192,-0.0193 1.29883,0.28711 0.71941,0.4621 0.68906,0.55813 -0.17773,0.56641 -2.10375,0.0187 -0.96658,1.03518 1.76367,1.57617 l 2.80664,0.55469 -2.06055,1.00976 c -1.134,0.55449 -3.21161,1.35012 -4.61718,1.76954 -1.40558,0.41941 -2.34601,0.97472 -2.08985,1.23437 0.25617,0.25965 2.36689,0.5889 4.69141,0.73047 4.62562,0.28169 6.95234,1.17477 6.45898,2.48047 -0.49175,1.30145 3.47758,3.98833 6.72266,4.55078 1.59165,0.27586 3.56571,0.79142 4.38672,1.14648 l 1.49219,0.64649 -1.64258,0.0391 c -1.4821,0.0347 -2.48477,1.25 -1.03125,1.25 0.33597,0 0.20053,0.63702 -0.30078,1.41406 -0.5013,0.77707 -0.73775,1.58904 -0.52539,1.80469 0.45379,0.46089 -0.4333,0.78842 -3.55469,1.31641 -3.15836,0.53422 -2.50147,1.68125 1.42969,2.49414 l 3.23632,0.66992 -5.07617,0.13477 c -7.27327,0.1947 -6.91273,0.11776 -5.59961,1.21289 0.63322,0.52809 1.0522,1.47253 0.92969,2.09961 -0.12258,0.62709 0.1392,1.37319 0.58203,1.6582 0.65407,0.42086 0.63778,0.52809 -0.0898,0.57031 -1.45326,0.0842 1.27046,1.08808 3.08398,1.13672 0.87575,0.0235 1.7027,0.3793 1.83789,0.79102 0.13513,0.41167 1.83649,1.02984 3.78125,1.37304 3.04326,0.53706 3.50738,0.79127 3.33008,1.82813 -0.11331,0.66263 -0.01,1.00985 0.22852,0.77148 0.23856,-0.23839 0.99489,-0.0334 1.68164,0.45508 0.68673,0.48852 1.74427,0.88867 2.34961,0.88867 0.60532,0 1.64222,0.29418 2.30468,0.6543 1.12969,0.61399 1.14262,0.72374 0.20899,1.77148 -1.06051,1.19015 -0.79647,1.50616 2.92383,3.48633 0.916,0.48755 0.35523,0.73957 -2.93946,1.32227 -3.95728,0.69986 -8.04492,2.08241 -8.04492,2.7207 0,0.17311 0.73948,0.72116 1.64258,1.21875 l 1.64258,0.9043 -1.52344,0.0254 c -1.53157,0.0244 -4.7456,1.2786 -4.72656,1.84375 0.0309,0.87088 4.95442,2.42578 7.68164,2.42578 1.98703,0 3.45896,0.33095 4.02734,0.9082 0.4926,0.50028 1.43101,0.91016 2.08594,0.91016 1.41812,0 3.5,1.04776 3.5,1.76172 0,0.27883 -1.33243,0.68685 -2.96094,0.90625 -1.6285,0.21939 -3.12117,0.66443 -3.31836,0.98828 -0.19707,0.32385 -0.0586,0.58789 0.3086,0.58789 0.3671,0 0.48347,0.30499 0.25781,0.67578 -0.51892,0.85274 0.78865,1.71193 2.72851,1.79492 1.27195,0.0545 1.18308,0.15853 -0.59765,0.69727 l -2.08985,0.63281 1.49219,0.68945 c 0.82099,0.3791 3.10575,1.63594 5.07617,2.79297 3.5695,2.09603 3.57579,2.10367 1.79102,2.46289 -0.98519,0.19828 -3.60556,0.23469 -5.82227,0.0801 -3.27463,-0.22866 -4.02929,-0.11532 -4.02929,0.60938 0,0.96799 2.88973,2.02429 7.09179,2.59179 1.43734,0.1941 3.12062,0.71409 3.74219,1.15625 0.9876,0.70254 0.49638,0.84446 -3.90039,1.12305 -6.12395,0.38804 -6.88952,0.75563 -5.09961,2.44922 0.98625,0.93316 2.44231,1.34824 5.67969,1.61719 4.47507,0.37174 5.93887,0.92772 4.21484,1.5996 -1.38577,0.54006 -1.23627,2.72451 0.21289,3.10938 0.65682,0.17448 1.19532,0.39941 1.19532,0.5 0,1.00128 -1.05048,2.30663 -2.44141,3.03711 -2.08306,1.094 -1.74495,2.47062 0.74219,3.02539 0.98125,0.21888 1.63487,0.54975 1.45312,0.73438 -0.18172,0.18457 0.19788,0.80025 0.84375,1.36914 1.13132,0.99647 1.00603,1.07207 -3.44336,2.04882 -13.96425,3.0655 -13.77722,2.96917 -9.9414,5.04297 2.33766,1.26385 3.93898,1.59421 9.01757,1.85742 6.47789,0.3358 6.88128,0.80399 2.10938,2.45118 -2.09664,0.72374 -4.07525,2.38092 -3.51758,2.94726 0.18662,0.18953 1.22658,0.54773 2.31055,0.79492 l 1.9707,0.44922 -1.64258,0.67774 c -1.45387,0.60039 -2.36052,1.50898 -1.19336,1.19531 0.24629,-0.0662 1.78736,0.096 3.42579,0.36133 l 2.98046,0.48242 -1.35546,1.11328 c -1.26556,1.04075 -1.28368,1.15539 -0.29102,1.74219 0.75557,0.44671 0.81645,0.63406 0.21289,0.64648 -1.47376,0.032 -3.0332,1.96107 -3.0332,3.75196 0,0.94885 0.26926,1.7246 0.59765,1.7246 0.3284,1e-5 0.59766,0.80804 0.59766,1.79688 0,1.20111 0.41327,2.02299 1.24414,2.47461 1.14384,0.62169 1.16648,0.76215 0.29492,1.74023 -0.5212,0.58491 -1.28227,1.09616 -1.6914,1.13672 -0.40916,0.0406 -2.80928,0.20667 -5.33399,0.36914 -4.44973,0.28637 -8.24805,1.5853 -8.24805,2.82032 0,0.33211 -0.67119,0.91306 -1.49218,1.29296 -0.82102,0.37995 -1.49219,0.88851 -1.49219,1.12891 0,0.83916 5.13189,1.696 12.6875,2.11914 9.20131,0.51531 10.11586,1.76687 2.1582,2.95313 -2.8881,0.43052 -5.649,2.50388 -4.03125,3.02734 3.47573,1.12468 4.27571,1.48769 3.36719,1.5293 -1.95857,0.0897 -1.05145,1.16221 1.79687,2.12304 1.56313,0.52729 3.15475,1.46606 3.53711,2.08789 0.61605,1.00182 0.42784,1.22011 -1.64843,1.91602 -2.2645,0.75904 -3.12827,1.76011 -1.59571,1.84766 0.41051,0.0235 0.2076,0.27287 -0.44921,0.55468 -1.05622,0.45322 -0.97028,0.5627 0.74609,0.94336 2.57292,0.57063 2.45696,1.26406 -0.29688,1.75977 -3.14619,0.56628 -4.33007,0.96016 -4.33007,1.44336 0,0.54382 2.60978,1.66445 5.9121,2.53906 1.44512,0.38276 3.00855,1.08329 3.47461,1.55664 0.7318,0.74321 0.618,0.94896 -0.83593,1.51172 -0.92599,0.35844 -3.02792,0.95132 -4.66992,1.31641 -3.7417,0.83193 -4.49715,1.46821 -2.63868,2.22265 1.28469,0.52162 1.16866,0.59085 -1.05664,0.625 -1.37631,0.0211 -2.65003,0.28043 -2.83008,0.57617 -0.62573,1.02827 1.52757,2.08035 6.9668,3.40625 3.00954,0.73365 5.56085,1.60662 5.66992,1.93946 0.11264,0.34318 -1.68424,0.77801 -4.15039,1.0039 -11.5117,1.05454 -14.80112,1.78241 -12.90625,2.85938 0.5482,0.31158 1.69157,0.62586 2.53906,0.69726 0.84753,0.0712 1.54102,0.33369 1.54102,0.58399 0,0.25023 0.47022,0.28131 1.04492,0.0684 0.96712,-0.35817 0.96253,-0.29382 -0.0449,0.87305 -1.05804,1.22526 -1.05261,1.27238 0.15039,1.66015 0.68079,0.21944 1.23633,0.63038 1.23633,0.91211 0,0.63305 2.79568,1.06554 10.15039,1.57031 5.74568,0.39435 7.86296,0.84956 4.13086,0.88867 -5.32781,0.0559 -17.79989,1.18088 -19.0957,1.72266 -0.79963,0.33431 -2.7311,0.77703 -4.29102,0.98438 -4.45165,0.59172 -3.31938,1.51562 1.85742,1.51562 6.93049,0 10.37218,0.57828 9.95899,1.67188 -0.18521,0.49015 0.22657,1.81554 0.91406,2.94531 1.30897,2.15098 1.22367,2.30603 -1.53516,2.80664 -0.65681,0.11918 1.63765,0.40065 5.09766,0.62695 3.45999,0.22633 7.13431,0.71091 8.16602,1.07617 1.85227,0.6558 1.86102,0.67786 0.7246,1.83204 -0.63301,0.64284 -1.15039,1.44185 -1.15039,1.77539 0,0.33354 -0.52078,0.60742 -1.1582,0.60742 -2.22489,0 -1.76202,1.03495 1.03125,2.30664 1.54803,0.70475 3.35102,1.39708 4.00781,1.53906 2.71081,0.58489 3.38426,0.23419 0.89258,-0.46484 -2.60881,-0.73191 -5.37109,-1.98207 -5.37109,-2.43164 0,-0.12135 1.13698,-0.82363 2.52539,-1.5586 1.38838,-0.73494 2.89067,-1.86826 3.33984,-2.51953 0.72065,-1.04505 1.49481,-1.17599 6.58203,-1.11328 3.17054,0.0395 6.57142,0.0462 7.55664,0.0137 l 1.79102,-0.0605 -1.49414,-0.86524 c -0.82107,-0.47664 -1.15661,-0.87832 -0.7461,-0.88867 1.58104,-0.0455 0.65556,-1.23438 -0.96093,-1.23438 -3.60804,0 -7.23612,-0.80754 -8.34571,-1.85742 -0.63605,-0.60176 -2.19419,-1.29303 -3.46289,-1.53515 l -2.30664,-0.43946 2.08985,-0.76758 c 2.662,-0.97683 7.5888,-1.08157 7.88867,-0.16796 0.16572,0.50495 1.50554,0.44449 4.97656,-0.22657 l 4.75,-0.91797 -3.88281,-0.11523 c -4.26469,-0.12572 -3.65164,-0.75907 1.47851,-1.52734 l 2.97266,-0.44336 -2.07617,-0.91602 c -1.87192,-0.82521 -1.95783,-0.96452 -0.88086,-1.41601 0.65681,-0.27536 2.40306,-0.52418 3.88086,-0.55274 3.67723,-0.0711 4.9564,-0.96308 2.14844,-1.49804 -2.47828,-0.4722 -2.68684,-1.05583 -0.82618,-2.31055 1.30088,-0.87722 1.28623,-0.89757 -0.9121,-1.31641 -1.229,-0.23415 -2.07746,-0.68528 -1.88477,-1.00195 0.19269,-0.31667 0.22033,-0.57617 0.0605,-0.57617 -0.73294,0 -9.78253,-1.27483 -11.00977,-1.55078 -0.99836,-0.22451 -1.28351,-0.60804 -1.03711,-1.39649 0.29148,-0.93265 -0.3431,-1.2375 -4.44531,-2.13281 -2.63131,-0.57425 -4.7832,-1.27049 -4.7832,-1.54883 0,-0.27836 -0.53852,-0.64974 -1.19532,-0.82422 -2.00159,-0.53159 -1.34263,-1.36773 1.64258,-2.08594 5.66011,-1.36178 8.87148,-2.07057 12.0918,-2.67187 3.18747,-0.5952 7.12786,-1.55815 8.95508,-2.1875 0.4926,-0.16968 -1.25367,-0.84762 -3.88086,-1.50586 -5.01231,-1.25582 -6.98173,-2.27716 -4.44727,-2.30469 1.23711,-0.0134 1.09394,-0.19146 -0.92578,-1.16211 l -2.38867,-1.14843 2.48828,-0.0488 c 3.1556,-0.0622 4.38431,-0.54146 4,-1.5586 -0.19476,-0.51545 0.3527,-0.94803 1.53125,-1.21093 1.00836,-0.22492 1.83203,-0.77721 1.83203,-1.22852 0,-0.45131 0.5385,-0.99345 1.19531,-1.20508 1.75767,-0.56657 1.46469,-1.17421 -1.00195,-2.08008 l -2.19336,-0.80468 2.89063,-1.11524 c 2.9441,-1.135 4.74255,-2.36914 3.45312,-2.36914 -2.19234,0 -10.10651,-1.39314 -10.58203,-1.86328 -0.31197,-0.30847 -1.05146,-0.56055 -1.64258,-0.56055 -1.74138,0 -1.23185,-1.5201 0.86524,-2.58007 1.88129,-0.95093 1.89332,-0.98187 0.41211,-1.01954 -0.84032,-0.0213 -2.04548,-0.42551 -2.67969,-0.89648 -1.11824,-0.83042 -1.10789,-0.87484 0.33398,-1.46875 0.81774,-0.33683 3.56816,-0.94484 6.11328,-1.35156 3.86587,-0.6178 4.62696,-0.926 4.62696,-1.875 0,-0.6308 0.86375,-1.67061 1.9414,-2.33789 1.06743,-0.66091 1.60158,-1.20191 1.1875,-1.20313 -0.41407,-10e-4 -1.89109,-0.53824 -3.2832,-1.19336 -1.39213,-0.65507 -3.87557,-1.48324 -5.51758,-1.83984 -5.43956,-1.18129 -6.98778,-1.85025 -6.28125,-2.71484 0.50022,-0.61215 0.0544,-0.87303 -2.04883,-1.19336 -4.86491,-0.74091 -4.20866,-1.89068 1.60938,-2.82227 2.05499,-0.32903 4.04667,-1.01395 4.42773,-1.52344 0.40615,-0.54304 2.50721,-1.2035 5.07617,-1.5957 4.18708,-0.63924 4.29171,-0.69457 2.33204,-1.21875 -1.38083,-0.36933 -1.80136,-0.7053 -1.28516,-1.0293 0.50346,-0.31603 0.036,-0.62048 -1.36133,-0.88672 -3.08866,-0.58847 -3.20986,-1.48476 -0.26562,-1.96289 l 2.55664,-0.41601 -1.86133,-0.65625 c -1.02411,-0.36169 -2.5663,-1.20057 -3.42578,-1.86328 -1.38485,-1.06791 -1.44344,-1.25274 -0.51758,-1.625 0.57456,-0.23103 2.99411,-0.43951 5.375,-0.46289 2.38091,-0.0235 4.32812,-0.28312 4.32812,-0.57618 0,-0.57143 -2.2823,-1.61235 -4.88281,-2.22851 -1.77273,-0.42002 -2.64262,-1.81873 -1.42578,-2.29297 0.42989,-0.16753 2.02513,-0.4951 3.54492,-0.72656 1.51978,-0.23144 2.76367,-0.63928 2.76367,-0.90821 0,-0.26892 -1.91716,-0.93349 -4.25976,-1.47461 -5.83892,-1.34875 -8.49,-2.53355 -8.08203,-3.61328 0.18046,-0.47771 -0.0655,-1.19973 -0.54688,-1.60547 -1.38772,-1.16963 0.56125,-2.85927 3.85156,-3.33984 1.52207,-0.22231 3.84265,-0.88184 5.15626,-1.46484 1.3136,-0.58303 2.79062,-1.19513 3.2832,-1.36133 0.4926,-0.16612 -0.38333,-0.50683 -1.94727,-0.75586 -1.56394,-0.24903 -2.99027,-0.69326 -3.16992,-0.98828 -0.17953,-0.29504 -1.10044,-0.53711 -2.04687,-0.53711 -2.10289,0 -2.85079,-0.94819 -1.11133,-1.41016 0.85863,-0.22802 1.1488,-0.64723 0.90039,-1.30469 -0.23136,-0.61229 0.0139,-1.09259 0.66797,-1.30273 3.32229,-1.06784 5.68095,-2.58481 6.69531,-4.30859 0.90351,-1.53534 1.68647,-2.04748 3.61914,-2.36133 1.35651,-0.2203 2.60618,-0.76957 2.77734,-1.22266 0.17119,-0.45309 0.81974,-0.82422 1.44141,-0.82422 0.62165,0 1.13086,-0.23351 1.13086,-0.51953 0,-0.28602 -1.61084,-0.69134 -3.58008,-0.90039 -3.86183,-0.40995 -10.53901,-2.98397 -10.3125,-3.97461 0.0763,-0.33389 -0.8013,-1.61738 -1.94922,-2.85351 -1.14792,-1.23612 -2.01599,-2.28618 -1.92969,-2.33399 0.0864,-0.048 0.9104,-0.41783 1.83204,-0.82031 0.92159,-0.40248 1.52947,-0.97401 1.34961,-1.26953 -0.48341,-0.79439 3.0111,-1.30264 9.14257,-1.33203 5.59277,-0.0269 7.53241,-0.73101 4.10938,-1.49024 -1.07018,-0.23738 -2.56577,-0.92309 -3.32227,-1.52539 l -1.375,-1.0957 1.37305,-0.74609 1.375,-0.74805 -1.76562,-0.59766 c -0.97069,-0.32861 -2.42456,-1.21967 -3.23243,-1.98047 -0.80788,-0.76077 -2.16393,-1.54728 -3.01172,-1.74804 -2.73723,-0.64816 -7.81054,-2.87206 -7.81054,-3.42383 0,-0.2948 0.6554,-0.53516 1.45703,-0.53516 0.80161,0 1.62529,-0.2739 1.82812,-0.60742 0.20296,-0.3335 -0.0347,-0.60547 -0.52734,-0.60547 -1.59741,0 -1.67704,-1.19923 -0.11914,-1.80078 0.83396,-0.32201 4.81404,-0.98094 8.84375,-1.46484 9.61844,-1.15496 15.6147,-1.81026 15.98437,-1.7461 2.20795,0.38413 5.3425,0.28594 5.29883,-0.16601 -0.0309,-0.32063 -1.22267,-0.92934 -2.64843,-1.35156 -3.2932,-0.97525 -3.62899,-1.56926 -1.74024,-3.07813 1.47215,-1.17607 1.48265,-1.22518 0.29688,-1.60742 -1.62612,-0.52419 -1.04615,-1.32826 1.33789,-1.85352 1.06353,-0.23431 2.06829,-0.60242 2.23242,-0.81836 0.16421,-0.21595 1.01506,-0.85459 1.89062,-1.41992 1.96073,-1.26602 1.86234,-2.26422 -0.42187,-4.30273 -1.4629,-1.30556 -1.57568,-1.58122 -0.6582,-1.59571 0.73672,-0.0127 0.99204,-0.32528 0.76367,-0.92968 -0.20725,-0.54853 -0.002,-0.90821 0.51562,-0.90821 0.48575,0 0.72067,-0.36428 0.54102,-0.83984 -0.22649,-0.59942 0.56001,-1.05479 2.74804,-1.58789 l 3.06641,-0.74805 -1.76953,-1.0918 c -0.97303,-0.60097 -1.93104,-1.35847 -2.12891,-1.68359 -0.61339,-1.00799 1.38941,-4.99016 2.78516,-5.53711 1.18106,-0.46279 1.21303,-0.56488 0.28125,-0.94726 -0.57471,-0.23587 -1.04492,-0.79826 -1.04492,-1.25 0,-0.82968 2.48575,-1.68253 6.86523,-2.35352 1.31363,-0.20122 3.46374,-0.56993 4.77735,-0.81836 l 2.38867,-0.45117 -1.79102,-0.70117 c -0.98518,-0.38584 -3.13535,-0.88318 -4.77734,-1.10547 -3.08866,-0.41821 -7.70997,-2.25513 -8.35938,-3.32227 -0.58027,-0.95353 2.33955,-1.79175 7.34961,-2.10937 3.40807,-0.21608 4.78264,-0.55889 5.33789,-1.33008 0.95956,-1.33275 0.22543,-1.83918 -3.43359,-2.37891 -3.58147,-0.52828 -5.14383,-1.41677 -2.53711,-1.4414 1.06731,-0.0101 1.94141,-0.28953 1.94141,-0.62305 0,-0.33352 0.47021,-0.61305 1.04492,-0.61719 0.5747,-0.005 1.40837,-0.24282 1.85351,-0.52929 0.673,-0.43308 0.65392,-0.76293 -0.11132,-1.96094 -0.78028,-1.22156 -0.79634,-1.61099 -0.11133,-2.55078 0.61829,-0.84835 2.04158,-1.22101 6.06836,-1.59375 2.89365,-0.2677 5.55706,-0.37317 5.91797,-0.23242 1.02609,0.39989 3.96163,-0.93295 3.54882,-1.61133 -0.20333,-0.33414 0.25148,-0.63903 1.00977,-0.67774 0.92681,-0.0473 1.05302,-0.15803 0.38477,-0.33789 -1.35118,-0.3634 -1.88033,-1.98218 -0.78711,-2.4082 1.15524,-0.45036 1.14798,-2.03516 -0.01,-2.03516 -0.49262,0 -0.89648,-0.24144 -0.89648,-0.53711 0,-0.29568 1.54528,-0.80886 3.43359,-1.14062 2.72662,-0.47902 3.15678,-0.69463 2.08984,-1.04883 -0.7389,-0.24531 -1.34375,-0.64572 -1.34375,-0.88867 0,-0.77916 2.02152,-2.29774 4.47852,-3.36524 1.31358,-0.57073 2.05121,-1.16825 1.63867,-1.32617 -1.02999,-0.39451 -0.31815,-1.39648 0.99219,-1.39648 0.58716,0 1.68606,-0.54581 2.44336,-1.21289 0.7573,-0.66704 1.62418,-1.21289 1.92578,-1.21289 0.3016,0 0.9205,-0.37632 1.375,-0.83789 0.70373,-0.71469 0.54201,-0.89954 -1.08789,-1.24219 -1.82624,-0.38394 -1.85986,-0.4427 -0.75391,-1.2832 1.04781,-0.79638 0.72644,-0.88086 -3.35156,-0.88086 -5.55097,0 -10.52055,-0.90952 -11.90039,-2.17774 -0.81225,-0.74664 -1.74855,-0.86341 -4.30469,-0.53906 -3.44615,0.43727 -6.03591,-0.02 -5.46094,-0.96484 0.18833,-0.30953 1.87327,-0.58209 3.74219,-0.60547 4.76315,-0.0597 6.5622,-0.84027 3.19727,-1.38672 -3.47078,-0.56366 -2.66165,-1.39762 1.83984,-1.89649 2.05308,-0.22752 4.77945,-0.95433 6.05859,-1.61328 2.14801,-1.10657 3.11101,-1.16735 12.59375,-0.80664 5.64695,0.2148 10.64644,0.40938 11.10938,0.4336 2.80128,0.14742 5.34273,-0.22448 5.03125,-0.73633 -0.19737,-0.32433 -1.42284,-0.91309 -2.72266,-1.3086 -1.29982,-0.3955 -2.36328,-0.79817 -2.36328,-0.89648 0,-1.34496 1.70122,-3.28608 3.16797,-3.61328 1.47765,-0.32961 1.63199,-0.50371 0.83789,-0.95508 -0.61157,-0.34757 -3.23498,-0.20965 -7.07226,0.37305 -3.35488,0.50946 -6.79146,0.90406 -7.63672,0.87695 -3.47734,-0.11193 2.71138,-1.90744 8.31445,-2.41211 3.76394,-0.33898 6.87863,-1.02243 9.25586,-2.03125 1.9704,-0.83614 3.19298,-1.53043 2.7168,-1.54492 -1.40815,-0.0417 0.0259,-1.04093 2.875,-2.00195 l 2.60742,-0.87891 -2.48633,-0.4043 c -2.95481,-0.47987 -2.69123,-1.43827 0.53906,-1.96289 2.88065,-0.46782 3.53397,-2.14978 1.47461,-3.79492 -1.50961,-1.20602 -1.35133,-1.89844 0.4336,-1.89844 0.67597,0 1.09375,-0.43955 1.09375,-1.14844 0,-0.63135 0.42033,-1.31157 0.93359,-1.51171 3.21676,-1.25365 9.53416,-2.19349 14.77734,-2.19532 5.92676,-0.004 6.03822,-0.0286 4.29297,-0.97461 -1.42005,-0.76969 -3.03006,-0.91025 -7.76367,-0.68359 -6.04937,0.28966 -8.79615,-0.0252 -8.64258,-0.99023 0.0465,-0.29211 -0.6436,-1.01671 -1.5332,-1.60938 l -1.61719,-1.07812 3.50781,-0.74805 c 1.92981,-0.41169 4.79487,-0.82341 6.36719,-0.91406 1.57235,-0.0906 3.18591,-0.42279 3.58399,-0.73828 1.05405,-0.83542 4.57061,-1.96094 6.12304,-1.96094 0.73687,0 1.49463,-0.40988 1.6836,-0.91016 0.18903,-0.5003 0.9053,-0.91015 1.59179,-0.91015 0.68643,0 1.08174,-0.27195 0.87891,-0.60547 -0.20296,-0.33352 -0.086,-0.60743 0.26172,-0.60743 1.24441,0 0.60466,-1.08776 -0.85938,-1.46093 -0.82102,-0.2093 -1.49218,-0.68677 -1.49218,-1.06055 0,-0.22359 -0.1793,-0.55189 -0.4375,-0.875 v -1.41406 c 0.51713,-0.0468 1.22687,-0.0804 2.22851,-0.10742 l 3.88086,-0.10352 -2.98633,-0.43164 c -0.62425,-0.09 -1.88819,-0.24607 -3.12304,-0.39844 v -31.04895 h -11.699 v -64.32421 l 1.27734,-7.90625 v -45.90039 h 1.35156 l 0.68164,-1.8086 -6.71289,-22.54492 -4.52148,15.11914 h -3.88086 L 337.01172,171 l -6.24219,35.6875 h -3.88086 l -4.51953,-15.11914 -6.71484,22.54492 0.68359,1.8086 h 1.35156 v 16.29492 h -38.5332 v -1.66602 h -8.88086 v 1.66602 h -37.9668 v -4.65821 h -13.85351 v 4.65821 h -37.9668 v -1.66602 h -8.88086 v 1.66602 h -38.5332 v -16.29492 h 1.35156 l 0.6836,-1.8086 -6.71485,-22.54492 -4.51953,15.11914 h -3.88086 z m 19.32227,76.00586 h 184.61523 v 14.81641 l 1.27539,7.90625 v 64.32421 h -11.51367 l -73.58594,-35.3125 -3.3457,7.03711 c 0,0 43.22957,18.43804 76.74609,54.5625 v 5.32227 c -0.45161,0.004 -0.73953,0.0335 -0.80078,0.0957 -0.18629,0.18922 -0.0452,0.34375 0.31446,0.34375 0.12964,0 0.3035,0.0604 0.48632,0.14258 v 1.35938 h 2.08399 c 0.60848,0.29203 1.34815,0.57698 2.06641,0.76953 l 2.37304,0.63672 -2.98633,0.0703 c -4.08867,0.0986 -5.18029,0.88549 -2.5957,1.86914 1.99594,0.75962 1.99699,0.75935 0.50586,1.23047 -0.82101,0.25938 -2.75244,0.49988 -4.29297,0.5332 -3.02288,0.0652 -4.37789,1.0406 -2.15039,1.54883 0.75235,0.17166 3.57622,0.41283 6.27539,0.53516 2.69916,0.12225 5.2918,0.54502 5.75977,0.93945 0.46797,0.39445 2.288,0.89037 4.04687,1.10351 2.82222,0.34184 3.00311,0.44178 1.52539,0.84571 -1.76448,0.48239 -4.49031,0.71584 -6.98437,0.59765 -1.09668,-0.052 -1.27428,-0.21156 -0.66797,-0.60156 1.311,-0.84332 -1.34377,-1.44153 -4.21289,-0.94922 -1.7199,0.29511 -2.19615,0.57557 -1.61524,0.94922 0.45353,0.29173 0.55497,0.55326 0.22657,0.58203 -1.20815,0.10504 1.8466,1.09553 3.50586,1.13672 1.43346,0.0356 1.59638,0.1884 0.99218,0.92773 -0.59561,0.72889 -0.45106,0.95475 0.82227,1.2793 1.46973,0.37467 1.79653,0.88067 1.60156,2.48828 -0.0474,0.39081 0.38754,0.8028 0.9668,0.91602 0.63924,0.12501 0.11718,0.48756 -1.32813,0.92187 -9.02893,2.71342 -11.4037,3.49901 -11.90429,3.9336 -0.32843,0.28506 -0.14042,0.49219 0.44726,0.49219 0.5583,-1e-5 1.01563,0.40792 1.01563,0.9082 0,0.58957 0.63001,0.93727 1.79101,0.98633 0.9852,0.0418 2.06029,0.14315 2.38868,0.22656 0.32838,0.0836 1.01008,0.18691 1.51562,0.22851 0.75862,0.0625 0.7857,0.22958 0.15039,0.95704 -0.61366,0.70259 -2.16367,0.83287 -7.63672,0.64453 -6.56937,-0.22627 -10.97169,-0.65619 -20.95312,-2.05078 -4.33595,-0.60584 -8.00586,-0.24244 -8.00586,0.79492 0,1.05954 16.52691,4.49234 24.98828,5.18945 3.23503,0.26652 6.19094,0.80647 6.56836,1.20117 0.52801,0.55227 -1.74158,0.61795 -9.84766,0.28516 -12.20388,-0.501 -16.88487,-0.0927 -18.30664,1.59375 -0.53931,0.63969 -1.28364,1.16211 -1.65234,1.16211 -0.7786,0 -2.9664,2.30282 -2.57031,2.70508 0.14684,0.14914 0.9293,0.53919 1.73828,0.86718 1.35229,0.5482 1.284,0.59958 -0.84961,0.63477 -1.27635,0.0211 -4.63621,-0.27309 -7.46485,-0.6543 -5.42035,-0.73045 -15.59179,-0.24228 -15.59179,0.74805 0,0.30357 0.41966,0.55078 0.93164,0.55078 0.51197,0 0.76338,0.2739 0.56054,0.60742 -0.20296,0.33354 -1.49479,0.6111 -2.87109,0.61524 -1.37632,0.005 -2.90584,0.27434 -3.39844,0.59765 -0.61517,0.40373 0.88136,0.60308 4.77735,0.63868 6.09885,0.0558 8.60327,0.57972 7.14648,1.49414 -1.54057,0.96698 -5.1757,1.51937 -19.68555,2.99218 l -3.2832,0.33399 2.79297,-1.0625 c 1.5367,-0.58413 2.96837,-1.24213 3.18164,-1.46289 0.63541,-0.65791 -7.33105,-1.39505 -13.73828,-1.27149 -18.78686,0.36241 -24.87885,0.29784 -25.43555,-0.26758 -1.00383,-1.02084 4.87282,-1.39258 16.32422,-1.03711 5.82538,0.1809 10.91878,0.12116 11.32031,-0.13085 0.87017,-0.54621 -6.98394,-2.20069 -10.86523,-2.28907 -1.4778,-0.0336 -4.43374,0.14161 -6.56836,0.38868 -2.58488,0.29932 -3.58285,0.25139 -2.98633,-0.14258 0.68432,-0.45185 0.45053,-0.59329 -0.99414,-0.60157 -1.03994,-0.005 -1.98046,0.22562 -2.08984,0.51172 -0.25168,0.65775 -10.64844,1.33284 -10.64844,0.69141 0,-0.26093 0.44858,-0.64993 0.99609,-0.86328 1.87672,-0.73141 -0.0638,-1.48622 -4.87695,-1.89649 -2.62721,-0.2239 -5.54773,-0.7799 -6.48828,-1.23632 -0.94055,-0.45638 -4.70231,-1.1167 -8.35938,-1.4668 -7.50187,-0.71812 -15.13222,-2.15362 -18.07031,-3.40039 -1.08543,-0.46058 -3.35997,-0.83789 -5.05273,-0.83789 -2.66847,0 -2.97866,-0.12128 -2.33399,-0.91016 0.62821,-0.76876 0.45435,-0.96904 -1.12109,-1.28906 -1.02554,-0.20832 -1.86328,-0.57117 -1.86328,-0.80664 0,-0.43063 1.91663,-1.51821 3.58203,-2.03321 0.79611,-0.24617 0.79611,-0.3111 0,-0.58398 -5.48406,-1.87962 -6.62075,-2.4599 -6.32813,-3.23437 0.25095,-0.66414 -0.47368,-0.85052 -3.39453,-0.86915 -8.27655,-0.0557 -14.81423,-1.44235 -13.89844,-2.94726 0.16562,-0.27215 1.90144,-0.64394 3.85938,-0.82422 2.4672,-0.22722 3.97307,-0.71863 4.90625,-1.60156 0.74053,-0.70069 1.55634,-1.27344 1.8125,-1.27344 0.25619,0 0.32029,-0.38533 0.14258,-0.85547 -0.1942,-0.51396 0.17208,-1.01412 0.91601,-1.2539 1.94076,-0.62561 1.46129,-1.3769 -1.30078,-2.04102 -1.39569,-0.33559 -3.53858,-0.98854 -4.76172,-1.45117 l -2.22461,-0.8418 3.01368,-1.29297 c 2.7099,-1.1628 2.99315,-1.46387 2.82031,-2.99414 -0.14723,-1.30365 -0.53981,-1.73756 -1.6836,-1.86133 -1.9143,-0.20707 -4.6162,-1.05926 -5.58398,-1.67382 h 15.31641 v -7.26368 c 33.51652,-36.12446 76.74609,-54.5625 76.74609,-54.5625 l -3.3457,-7.03711 -73.58594,35.3125 h -11.51367 v -64.32421 l 1.27539,-7.90625 z m 240.64844,113.30859 c -0.2818,-0.0427 -0.37765,0.0801 -0.22071,0.33789 0.20064,0.32971 0.61673,0.59766 0.92578,0.59766 0.85887,0 0.67116,-0.43283 -0.36328,-0.83594 -0.13285,-0.0518 -0.24786,-0.0854 -0.34179,-0.0996 z m 0.39257,4.64453 c -0.30442,0 -0.26839,0.17891 0.27735,0.53711 0.49258,0.3233 1.30035,0.57332 1.79297,0.55469 0.59056,-0.022 0.48856,-0.21105 -0.29883,-0.55469 -0.82078,-0.3582 -1.46706,-0.53711 -1.77149,-0.53711 z m -51.41406,2.64454 h 28.90235 c 0.29927,0.27487 0.82448,0.51516 1.5957,0.6621 1.14186,0.21754 1.94669,0.60911 1.78711,0.8711 -0.42252,0.69434 1.25281,1.21094 3.93164,1.21094 1.35746,0 2.33984,0.29098 2.33984,0.69336 0,0.49154 -1.2086,0.57983 -4.14453,0.30273 -2.54974,-0.24067 -4.28627,-0.15881 -4.51367,0.21484 -0.44611,0.73313 -7.87526,0.7349 -9.55469,0.002 -1.13931,-0.49716 -1.1315,-0.52389 0.15039,-0.56446 0.7389,-0.0234 1.34375,-0.26986 1.34375,-0.54882 0,-0.79299 -11.71175,-2.52917 -17.04687,-2.52735 -1.99608,8.3e-4 -3.86157,-0.13059 -4.79102,-0.3164 z m -237.898436,0.36914 c -9.540356,-0.0407 -13.436961,0.67296 -6.566406,1.20312 6.929433,0.5346 12.01364,0.59026 14.601563,0.15625 4.227092,-0.70893 0.601675,-1.32274 -8.035157,-1.35937 z m 257.048826,5.45117 c 1.80788,0.024 2.09926,0.14928 1.19532,0.51562 -2.05118,0.83136 -6.53205,1.28079 -7.36133,0.73828 -0.93526,-0.61183 2.4633,-1.30295 6.16601,-1.2539 z m -248.744138,3.05664 c 1.298675,3.3e-4 2.574005,0.0298 3.511719,0.0898 1.875446,0.1199 0.184958,0.218 -3.75586,0.2168 -3.940797,-0.001 -5.473598,-0.0999 -3.408203,-0.21875 1.032686,-0.0595 2.353669,-0.0882 3.652344,-0.0879 z m 236.589848,0.01 c 0.19659,-0.001 0.3976,0.0119 0.59179,0.043 1.19518,0.19096 1.11122,0.27748 -0.54687,0.55664 -1.18655,0.1998 -1.74337,0.10986 -1.41211,-0.22656 0.22563,-0.22926 0.7774,-0.36937 1.36719,-0.37305 z m -64.57227,18.1836 c -0.48701,0 -0.9743,0.0351 -1.34375,0.10742 -0.7389,0.14463 -0.13405,0.26367 1.34375,0.26367 1.47778,0 2.08267,-0.11899 1.34375,-0.26367 -0.36945,-0.0723 -0.85674,-0.10742 -1.34375,-0.10742 z m -35.37695,4.79101 c -2.62966,0.007 -3.46709,0.18149 -2.83594,0.59571 0.66433,0.43607 0.27733,0.60212 -1.49414,0.64062 -3.44818,0.075 -0.92841,1.06845 2.98633,1.17774 l 2.98632,0.082 -2.45312,0.77929 c -3.60359,1.14546 -4.28732,1.6758 -2.88281,2.23438 1.95597,0.77791 5.05652,0.59158 7.17969,-0.43164 2.27769,-1.09771 2.17187,-2.0317 -0.23829,-2.10352 -0.88369,-0.0263 -1.24061,-0.19626 -0.79297,-0.37695 0.68718,-0.27753 0.68718,-0.4094 0,-0.85156 -0.63696,-0.40987 -0.5873,-0.52493 0.23047,-0.53321 0.57471,-0.005 1.04493,-0.28364 1.04493,-0.61718 0,-0.34058 -1.63457,-0.60399 -3.73047,-0.59571 z m 13.58593,0.20118 c -1.0972,-0.0542 -1.03413,0.0554 -0.002,0.36132 1.72565,0.51125 1.7036,0.52781 -0.60547,0.47461 -1.3183,-0.0304 -2.93189,0.28463 -3.58398,0.69922 -0.96817,0.61561 0.26107,0.69995 6.69922,0.45899 4.33657,-0.16235 8.36759,-0.58137 8.95703,-0.92969 0.82601,-0.48815 0.18256,-0.63969 -2.8086,-0.65625 -2.13461,-0.0131 -5.35983,-0.14804 -7.16601,-0.30078 -0.63078,-0.0533 -1.1245,-0.0893 -1.49024,-0.10742 z m 21.85743,10.26367 c 0.40832,-0.0368 1.10219,0.0194 2.10937,0.16797 1.59497,0.23528 3.01142,0.52836 3.14844,0.65234 0.13683,0.12408 -0.9888,0.22656 -2.50195,0.22656 -1.51315,0 -2.92979,-0.29501 -3.14844,-0.65429 -0.13807,-0.22689 -0.0158,-0.35578 0.39258,-0.39258 z m -76.65039,6.5039 c 8.50656,0 13.29296,0.65933 13.29296,1.83008 0,0.64512 -6.21682,3.02149 -7.90429,3.02149 -1.18721,0 -1.52078,0.24005 -1.26758,0.91015 0.19464,0.51514 0.0127,0.91016 -0.41797,0.91016 -0.41836,0 -0.64707,0.11245 -0.50976,0.25195 0.13722,0.13936 5.94399,0.0348 12.90429,-0.23242 13.30771,-0.51081 18.28247,-0.29176 17.92774,0.78906 -0.30099,0.91698 3.42037,2.7816 7.6289,3.82227 2.49535,0.61682 4.75956,0.75221 7.46289,0.44531 4.05362,-0.46019 3.93463,-0.61048 -1.36718,-1.72852 -1.94792,-0.4108 -1.60216,-1.52929 0.47265,-1.52929 0.78222,0 1.57136,-0.24489 1.75391,-0.54492 0.18257,-0.29999 1.69372,-0.87787 3.35742,-1.28321 2.15556,-0.52517 2.93319,-0.97758 2.70703,-1.57617 -0.39859,-1.05487 0.27746,-1.04751 7.4082,0.082 3.11981,0.49417 6.61231,1.04567 7.76172,1.22656 6.78738,1.06832 6.35702,0.91421 5.1211,1.83204 -0.62291,0.46258 -1.17971,1.65987 -1.23828,2.66015 -0.0932,1.59075 0.16147,1.90616 2.03515,2.50781 1.17825,0.37833 2.41183,1.01758 2.74024,1.42188 0.32842,0.4043 1.13422,1.03972 1.79101,1.41211 1.05092,0.59627 0.94265,0.6694 -0.89648,0.60937 -4.35224,-0.14235 -17.91211,0.95172 -17.91211,1.44532 0,0.28366 0.33558,0.51711 0.74609,0.52539 0.41049,0.006 1.33815,0.64565 2.06055,1.41992 l 1.3125,1.40625 -2.17188,1.05273 c -1.6892,0.81809 -1.98252,1.17617 -1.31445,1.60547 0.47263,0.30372 1.3979,0.55997 2.05469,0.57032 0.92565,0.0144 1.00627,0.13871 0.35937,0.55468 -0.63367,0.40747 -0.28256,0.82505 1.45899,1.73242 2.14523,1.11775 2.20564,1.22259 0.95117,1.62696 -1.03471,0.33354 -1.18878,0.61722 -0.67969,1.24023 0.74538,0.91214 0.19767,1.15983 -4.0332,1.82813 -4.33614,0.68492 -2.25279,1.66844 2.76367,1.30468 4.56929,-0.3313 4.70223,-0.2001 0.50586,0.4961 -1.41291,0.23438 -2.10567,0.62077 -1.85352,1.03515 0.28385,0.46636 -1.01035,0.56863 -4.38867,0.34375 -2.63518,-0.17543 -5.04509,-0.14717 -5.35547,0.0645 -0.6228,0.42467 -1.57818,2.43906 -1.64648,3.4707 -0.024,0.36268 -0.54063,1.16203 -1.14649,1.77734 -1.18021,1.19861 -1.13235,1.27838 1.8125,3.08399 0.91318,0.55989 0.96504,0.82584 0.31836,1.61719 -0.65325,0.79941 -0.58372,1.00821 0.45118,1.34179 0.67407,0.21728 1.22656,0.6499 1.22656,0.96094 0,0.31104 0.58306,1.15786 1.29687,1.88281 1.06619,1.08294 1.10665,1.24293 0.22266,0.89844 -0.93285,-0.36355 -1.02666,-0.17356 -0.71094,1.42969 0.30283,1.53767 0.139,1.93596 -0.96875,2.35742 -0.73279,0.27875 -3.07826,0.67984 -5.21289,0.89063 -3.02717,0.29897 -4.14474,0.17515 -5.07617,-0.5586 -0.93054,-0.7331 -2.57769,-0.91508 -7.46289,-0.82422 -3.59714,0.0669 -6.98677,-0.17734 -7.95117,-0.57422 -0.92447,-0.38046 -2.99056,-0.6914 -4.5918,-0.6914 -1.60123,0 -3.08084,-0.27821 -3.28711,-0.61719 -0.20626,-0.33882 -0.66972,-0.43005 -1.03125,-0.20313 -0.4061,0.25487 -0.52913,0.0701 -0.32031,-0.48242 0.26702,-0.70667 -0.80036,-1.11397 -5.08985,-1.9375 -2.98596,-0.5733 -5.57845,-1.19274 -5.75976,-1.37695 -0.18129,-0.18412 0.15551,-0.69474 0.74805,-1.13477 0.97365,-0.72306 0.78693,-0.89802 -1.94141,-1.81836 -3.42878,-1.15663 -3.83823,-1.99726 -1.22852,-2.52734 1.74208,-0.35384 2.5415,-1.96165 1.04493,-2.10156 -0.41049,-0.0384 0.32899,-0.27855 1.64257,-0.53516 1.31361,-0.25636 3.46374,-0.37422 4.77735,-0.25976 1.31361,0.1146 2.06967,0.0666 1.67969,-0.10742 -0.48113,-0.2147 -0.31229,-0.71956 0.52734,-1.57227 1.12336,-1.14089 1.14565,-1.30819 0.24805,-1.81836 -1.34059,-0.76194 -0.65115,-1.68813 1.3125,-1.76367 1.49018,-0.0574 1.45382,-0.10967 -0.48438,-0.7207 -1.14939,-0.36236 -2.2245,-0.83856 -2.38867,-1.0586 -0.16422,-0.22007 -3.21989,-0.57624 -6.79102,-0.79297 -9.15134,-0.55533 -14.21016,-1.57668 -14.56054,-2.9375 -0.15364,-0.59673 -0.54337,-0.91809 -0.86719,-0.71484 -0.32389,0.20327 -0.26618,-0.24442 0.12891,-0.99414 0.56283,-1.06816 0.55856,-1.46257 -0.0176,-1.82422 -0.40428,-0.25383 -0.54988,-0.76395 -0.32422,-1.13477 0.22564,-0.37083 0.10934,-0.67578 -0.25781,-0.67578 -0.3671,0 -0.50173,-0.27193 -0.29883,-0.60547 0.20296,-0.33352 0.91924,-0.60547 1.5918,-0.60547 0.84984,0 1.11324,-0.27786 0.86132,-0.91015 -0.19933,-0.50028 -0.50784,-1.27346 -0.68554,-1.7168 -0.32004,-0.79791 1.57825,-1.57583 6.1875,-2.53515 2.23382,-0.46495 2.07337,-0.90335 -0.6836,-1.87696 l -1.89648,-0.66992 2.6875,-0.45898 c 5.82299,-0.99607 4.93083,-2.61837 -1.49414,-2.71875 -5.025,-0.0785 -8.35864,-1.69833 -8.87305,-4.31055 -0.30485,-1.54798 -0.11652,-2.29407 0.8418,-3.33008 l 1.23437,-1.33594 -1.55078,-0.39453 c -3.69533,-0.94196 -0.28983,-1.57422 8.49024,-1.57422 z m 140.17382,4.85157 c -0.53126,0 -0.79853,0.27388 -0.5957,0.60742 0.20294,0.33354 0.47028,0.60547 0.5957,0.60547 0.12543,0 0.39482,-0.27193 0.59766,-0.60547 0.20294,-0.33354 -0.0663,-0.60742 -0.59766,-0.60742 z m -120.98242,11.59961 c -0.32467,-0.004 -0.67045,0.0325 -0.96094,0.10937 -0.58094,0.15382 -0.25083,0.28836 0.73438,0.30078 0.9852,0.0124 1.46088,-0.11309 1.05664,-0.2793 -0.20212,-0.083 -0.50541,-0.12674 -0.83008,-0.13085 z m -7.20703,126.09765 c -1.70547,0.0282 -2.20385,0.1916 -1.47656,0.48242 v -0.002 c 1.65309,0.66108 3.31555,0.6818 3.70312,0.0449 0.19564,-0.32153 -0.76993,-0.5494 -2.22656,-0.52539 z m 1.30859,26.63867 c -0.69548,0 -1.09938,0.27389 -0.89648,0.60743 0.20296,0.33351 0.60685,0.60546 0.89648,0.60546 0.28964,0 0.69164,-0.27195 0.89454,-0.60546 0.20297,-0.33354 -0.19896,-0.60743 -0.89454,-0.60743 z m 30.60743,22.32422 c 1.08222,0.007 2.411,0.0597 3.72461,0.1543 2.62723,0.18897 4.50811,0.41686 4.17968,0.50586 -1.24838,0.33813 -3.12032,0.35389 -7.16406,0.0606 -2.2988,-0.16678 -3.64316,-0.44081 -2.98633,-0.60743 0.3284,-0.0834 1.16387,-0.12057 2.2461,-0.11328 z m -22.24805,43.24805 c 0.27056,0 0.54084,0.0409 0.74609,0.125 0.41051,0.16823 0.0749,0.30664 -0.74609,0.30664 -0.82105,0 -1.15658,-0.13858 -0.74609,-0.30664 0.20525,-0.0841 0.47553,-0.125 0.74609,-0.125 z m 18.4668,17.6582 c -1.33933,0.0818 -4.51761,0.66601 -5.63086,1.11914 -1.15602,0.47064 -1.1503,0.49862 0.15039,0.89063 0.748,0.22543 1.34375,0.88835 1.34375,1.49609 0,0.60037 0.33558,1.20733 0.74609,1.34766 0.58878,0.20122 0.58008,0.45881 -0.0391,1.2207 -0.66393,0.81703 -0.6072,1.06311 0.36914,1.59375 0.63483,0.3436 1.28094,0.49889 1.43555,0.3418 0.15465,-0.15705 0.71619,0.2002 1.24609,0.79492 0.91464,1.02659 0.79056,1.07577 -2.41992,0.95117 -2.20337,-0.0855 -3.07819,0.0585 -2.51172,0.41406 0.73136,0.45909 0.67978,0.68997 -0.32227,1.45899 -0.91677,0.70359 -0.98418,0.93267 -0.29492,0.99414 0.4926,0.0438 0.22333,0.29937 -0.59765,0.56641 -1.23059,0.40024 -1.28331,0.49426 -0.29883,0.5371 1.97139,0.0861 3.88086,-0.62886 3.88086,-1.45312 0,-1.03506 1.37207,-1.50977 4.36132,-1.50977 2.43903,0 2.45416,-0.0132 1.10547,-0.97265 -0.75193,-0.53489 -1.23269,-1.32859 -1.06836,-1.76367 0.17895,-0.47366 -0.29314,-0.94249 -1.17773,-1.16797 -0.81258,-0.20712 -1.3275,-0.62312 -1.14453,-0.92383 0.18298,-0.30069 0.0397,-0.72959 -0.31641,-0.95313 -0.35614,-0.22355 -0.51608,-0.75267 -0.35547,-1.17773 0.1606,-0.42504 -0.42561,-1.12277 -1.30273,-1.54883 l -1.59375,-0.77344 2.35351,-0.52929 c 1.29413,-0.29049 2.49269,-0.66969 2.66407,-0.84375 0.10632,-0.10799 -0.13559,-0.13664 -0.58203,-0.10938 z m -10.14258,13.91016 c -1.94522,0.0209 -4.74219,1.1337 -4.74219,2.0332 0,0.46269 -0.60485,1.17137 -1.34375,1.57422 l -1.34375,0.73242 1.79102,0.77735 c 0.98521,0.42765 3.67385,0.74523 5.97265,0.70507 l 4.17969,-0.0742 -4.58008,-0.35352 c -2.51902,-0.19489 -4.76161,-0.54008 -4.98242,-0.76563 -0.22079,-0.22558 0.39713,-0.82924 1.37305,-1.34179 0.97591,-0.51253 1.93322,-1.35067 2.12695,-1.86328 0.19371,-0.51264 1.09832,-0.9703 2.01172,-1.01563 1.42365,-0.0708 1.46912,-0.11923 0.30859,-0.3457 -0.2325,-0.0454 -0.49359,-0.0655 -0.77148,-0.0625 z m 13.3418,4.79297 c -0.74443,-0.003 -1.75485,0.0276 -3.01563,0.0957 -2.71335,0.14652 -5.10736,0.44581 -5.32227,0.66406 -0.21488,0.21822 0.12253,0.40188 0.75196,0.41016 1.02645,0.0121 0.99777,0.12954 -0.28711,1.13281 -0.96657,0.75473 -1.18155,1.20257 -0.66016,1.37891 0.425,0.14387 -0.34808,0.60248 -1.71875,1.01953 -1.37065,0.41709 -2.33548,1.01869 -2.14258,1.33594 0.19309,0.31725 0.0508,0.57617 -0.3164,0.57617 -0.36705,0 -0.49971,0.2739 -0.29688,0.60742 0.20296,0.33354 0.87365,0.60547 1.49219,0.60547 0.7841,0 1.05879,-0.34952 0.90625,-1.1543 -0.2308,-1.21715 1.03945,-1.83651 3.87109,-1.88867 1.35258,-0.025 1.39523,-0.10158 0.46875,-0.81641 -0.92536,-0.714 -0.82189,-0.88461 1.08594,-1.80859 1.15939,-0.5615 3.09748,-1.17994 4.30664,-1.37305 2.95305,-0.47157 3.11022,-0.77699 0.87696,-0.78515 z m -8.85352,8.88281 c -0.0775,0.005 -0.14644,0.0178 -0.20313,0.0391 -0.49781,0.18638 -0.0234,0.60285 1.19532,1.05078 2.98163,1.09583 3.43372,1.01867 1.41992,-0.24023 -0.86207,-0.53891 -1.86952,-0.88504 -2.41211,-0.84961 z"
         transform="matrix(0.48315124,0,0,0.48315124,-3.8935384,-61.500371)"
         id="path6406-5-2-2"
         inkscape:connector-curvature="0" />
    </g>
  </g>
  <g
     inkscape:groupmode="layer"
     id="layer2"
     inkscape:label="tx"
     sodipodi:insensitive="true">
    <g
       transform="matrix(1.3055304,0,0,1.3023969,-293.0562,-45.221205)"
       style="display:inline;fill:url(#linearGradient4604);fill-opacity:1;stroke-width:0.76689315;enable-background:new"
       id="g7884">
      <text
         transform="matrix(0.26458333,0,0,0.26458333,338.57005,67.720678)"
         id="text9676-2-3-0-2-2"
         y="63.522415"
         x="160.86951"
         style="font-style:normal;font-weight:normal;font-size:40px;line-height:24px;font-family:sans-serif;letter-spacing:0px;word-spacing:0px;display:inline;opacity:1;fill:url(#linearGradient4610);fill-opacity:1;stroke:none;stroke-width:0.76689309px;stroke-linecap:butt;stroke-linejoin:miter;stroke-opacity:1;enable-background:new"
         xml:space="preserve"><tspan
   style="font-style:normal;font-variant:normal;font-weight:normal;font-stretch:normal;font-size:40px;line-height:100%;font-family:Rubik;-inkscape-font-specification:Rubik;font-variant-ligatures:normal;font-variant-caps:normal;font-variant-numeric:normal;font-feature-settings:normal;text-align:end;writing-mode:lr-tb;text-anchor:end;fill:url(#linearGradient4610);fill-opacity:1;stroke-width:0.76689309px"
   y="63.522415"
   x="160.86951"
   id="tspan9674-3-6-8-3-2"
   sodipodi:role="line">KEDVES</tspan><tspan style="font-style:normal;font-variant:normal;font-weight:normal;font-stretch:normal;font-size:40px;line-height:100%;font-family:Rubik;-inkscape-font-specification:Rubik;font-variant-ligatures:normal;font-variant-caps:normal;font-variant-numeric:normal;font-feature-settings:normal;text-align:end;writing-mode:lr-tb;text-anchor:end;fill:url(#linearGradient4610);fill-opacity:1;stroke-width:0.76689309px" y="103.52242" x="160.86951" sodipodi:role="line" id="tspan8361">ADRI,</tspan><tspan style="font-style:normal;font-variant:normal;font-weight:normal;font-stretch:normal;font-size:40px;line-height:100%;font-family:Rubik;-inkscape-font-specification:Rubik;font-variant-ligatures:normal;font-variant-caps:normal;font-variant-numeric:normal;font-feature-settings:normal;text-align:end;writing-mode:lr-tb;text-anchor:end;fill:url(#linearGradient4610);fill-opacity:1;stroke-width:0.76689309px" y="143.52242" x="160.86951" sodipodi:role="line" id="tspan8387">LACKÓ,</tspan><tspan style="font-style:normal;font-variant:normal;font-weight:normal;font-stretch:normal;font-size:40px;line-height:100%;font-family:Rubik;-inkscape-font-specification:Rubik;font-variant-ligatures:normal;font-variant-caps:normal;font-variant-numeric:normal;font-feature-settings:normal;text-align:end;writing-mode:lr-tb;text-anchor:end;fill:url(#linearGradient4610);fill-opacity:1;stroke-width:0.76689309px" y="183.52242" x="160.86951" sodipodi:role="line" id="tspan8389">BALÁZS,</tspan><tspan style="font-style:normal;font-variant:normal;font-weight:normal;font-stretch:normal;font-size:40px;line-height:100%;font-family:Rubik;-inkscape-font-specification:Rubik;font-variant-ligatures:normal;font-variant-caps:normal;font-variant-numeric:normal;font-feature-settings:normal;text-align:end;writing-mode:lr-tb;text-anchor:end;fill:url(#linearGradient4610);fill-opacity:1;stroke-width:0.76689309px" y="223.52242" x="160.86951" sodipodi:role="line" id="tspan8391">ZSOMBOR!</tspan></text>
      <text
         transform="matrix(0.26458333,0,0,0.26458333,338.57005,67.720678)"
         id="text9676-6-7-4-0-7-3"
         y="342.28732"
         x="160.88889"
         style="font-style:normal;font-weight:normal;font-size:40px;line-height:24px;font-family:sans-serif;letter-spacing:0px;word-spacing:0px;display:inline;opacity:1;fill:url(#linearGradient4612);fill-opacity:1;stroke:none;stroke-width:0.76689309px;stroke-linecap:butt;stroke-linejoin:miter;stroke-opacity:1;enable-background:new"
         xml:space="preserve"><tspan
           id="tspan9680-7-0-5-2-5-4"
           style="font-style:normal;font-variant:normal;font-weight:normal;font-stretch:normal;font-size:40px;line-height:100%;font-family:Rubik;-inkscape-font-specification:Rubik;font-variant-ligatures:normal;font-variant-caps:normal;font-variant-numeric:normal;font-feature-settings:normal;text-align:end;writing-mode:lr-tb;text-anchor:end;fill:url(#linearGradient4612);fill-opacity:1;stroke-width:0.76689309px"
           y="342.28732"
           x="160.88889"
           sodipodi:role="line">DALMI</tspan><tspan
           id="tspan4636-9-8-7-0-2"
           style="font-style:normal;font-variant:normal;font-weight:normal;font-stretch:normal;font-size:40px;line-height:100%;font-family:Rubik;-inkscape-font-specification:Rubik;font-variant-ligatures:normal;font-variant-caps:normal;font-variant-numeric:normal;font-feature-settings:normal;text-align:end;writing-mode:lr-tb;text-anchor:end;fill:url(#linearGradient4612);fill-opacity:1;stroke-width:0.76689309px"
           y="382.28732"
           x="160.88889"
           sodipodi:role="line">&amp;TOMI</tspan></text>
      <text
         id="text4855-7-6-4-2"
         y="79.587044"
         x="386.58752"
         style="font-style:normal;font-weight:normal;font-size:9.30489445px;line-height:60.00000238%;font-family:sans-serif;letter-spacing:0px;word-spacing:0px;display:inline;opacity:1;fill:url(#linearGradient4604);fill-opacity:1;stroke:none;stroke-width:0.20290713px;stroke-linecap:butt;stroke-linejoin:miter;stroke-opacity:1;enable-background:new"
         xml:space="preserve"><tspan
           id="tspan4883-3-8-7-7"
           style="font-style:normal;font-variant:normal;font-weight:normal;font-stretch:normal;font-size:4.03212118px;line-height:60.00000238%;font-family:'EB Garamond SC';-inkscape-font-specification:'EB Garamond SC, Normal';font-variant-ligatures:normal;font-variant-caps:normal;font-variant-numeric:normal;font-feature-settings:normal;text-align:start;writing-mode:lr-tb;text-anchor:start;fill:url(#linearGradient4604);fill-opacity:1;stroke-width:0.20290713px"
           y="79.587044"
           x="386.58752"
           sodipodi:role="line">A legnagyobb örömmel</tspan><tspan
           style="font-style:normal;font-variant:normal;font-weight:normal;font-stretch:normal;font-size:4.03212118px;line-height:60.00000238%;font-family:'EB Garamond SC';-inkscape-font-specification:'EB Garamond SC, Normal';font-variant-ligatures:normal;font-variant-caps:normal;font-variant-numeric:normal;font-feature-settings:normal;text-align:start;writing-mode:lr-tb;text-anchor:start;fill:url(#linearGradient4604);fill-opacity:1;stroke-width:0.20290713px"
           y="85.169983"
           x="386.58752"
           sodipodi:role="line"
           id="tspan8214">értesítünk titeket, hogy</tspan><tspan
           style="font-style:normal;font-variant:normal;font-weight:normal;font-stretch:normal;font-size:4.03212118px;line-height:60.00000238%;font-family:'EB Garamond SC';-inkscape-font-specification:'EB Garamond SC, Normal';font-variant-ligatures:normal;font-variant-caps:normal;font-variant-numeric:normal;font-feature-settings:normal;text-align:start;writing-mode:lr-tb;text-anchor:start;fill:url(#linearGradient4604);fill-opacity:1;stroke-width:0.20290713px"
           y="90.752914"
           x="386.58752"
           sodipodi:role="line"
           id="tspan8216">1359 közösen eltöltött</tspan><tspan
           style="font-style:normal;font-variant:normal;font-weight:normal;font-stretch:normal;font-size:4.03212118px;line-height:60.00000238%;font-family:'EB Garamond SC';-inkscape-font-specification:'EB Garamond SC, Normal';font-variant-ligatures:normal;font-variant-caps:normal;font-variant-numeric:normal;font-feature-settings:normal;text-align:start;writing-mode:lr-tb;text-anchor:start;fill:url(#linearGradient4604);fill-opacity:1;stroke-width:0.20290713px"
           y="96.335854"
           x="386.58752"
           sodipodi:role="line"
           id="tspan8218">gyönyörű nap után,</tspan><tspan
           style="font-style:normal;font-variant:normal;font-weight:normal;font-stretch:normal;font-size:4.03212118px;line-height:60.00000238%;font-family:'EB Garamond SC';-inkscape-font-specification:'EB Garamond SC, Normal';font-variant-ligatures:normal;font-variant-caps:normal;font-variant-numeric:normal;font-feature-settings:normal;text-align:start;writing-mode:lr-tb;text-anchor:start;fill:url(#linearGradient4604);fill-opacity:1;stroke-width:0.20290713px"
           y="101.91879"
           x="386.58752"
           sodipodi:role="line"
           id="tspan8220">összekötjük életünket</tspan><tspan
           style="font-style:normal;font-variant:normal;font-weight:normal;font-stretch:normal;font-size:4.03212118px;line-height:60.00000238%;font-family:'EB Garamond SC';-inkscape-font-specification:'EB Garamond SC, Normal';font-variant-ligatures:normal;font-variant-caps:normal;font-variant-numeric:normal;font-feature-settings:normal;text-align:start;writing-mode:lr-tb;text-anchor:start;fill:url(#linearGradient4604);fill-opacity:1;stroke-width:0.20290713px"
           y="107.50173"
           x="386.58752"
           sodipodi:role="line"
           id="tspan8222">július 27-én Bournemouthban. </tspan><tspan
           style="font-style:normal;font-variant:normal;font-weight:normal;font-stretch:normal;font-size:4.03212118px;line-height:60.00000238%;font-family:'EB Garamond SC';-inkscape-font-specification:'EB Garamond SC, Normal';font-variant-ligatures:normal;font-variant-caps:normal;font-variant-numeric:normal;font-feature-settings:normal;text-align:start;writing-mode:lr-tb;text-anchor:start;fill:url(#linearGradient4604);fill-opacity:1;stroke-width:0.20290713px"
           y="113.08466"
           x="386.58752"
           sodipodi:role="line"
           id="tspan8224" /><tspan
           style="font-style:normal;font-variant:normal;font-weight:normal;font-stretch:normal;font-size:4.03212118px;line-height:60.00000238%;font-family:'EB Garamond SC';-inkscape-font-specification:'EB Garamond SC, Normal';font-variant-ligatures:normal;font-variant-caps:normal;font-variant-numeric:normal;font-feature-settings:normal;text-align:start;writing-mode:lr-tb;text-anchor:start;fill:url(#linearGradient4604);fill-opacity:1;stroke-width:0.20290713px"
           y="118.6676"
           x="386.58752"
           sodipodi:role="line"
           id="tspan8226">Szeretnénk ha velünk</tspan><tspan
           style="font-style:normal;font-variant:normal;font-weight:normal;font-stretch:normal;font-size:4.03212118px;line-height:60.00000238%;font-family:'EB Garamond SC';-inkscape-font-specification:'EB Garamond SC, Normal';font-variant-ligatures:normal;font-variant-caps:normal;font-variant-numeric:normal;font-feature-settings:normal;text-align:start;writing-mode:lr-tb;text-anchor:start;fill:url(#linearGradient4604);fill-opacity:1;stroke-width:0.20290713px"
           y="124.25054"
           x="386.58752"
           sodipodi:role="line"
           id="tspan8228">ünnepelnétek és együtt</tspan><tspan
           style="font-style:normal;font-variant:normal;font-weight:normal;font-stretch:normal;font-size:4.03212118px;line-height:60.00000238%;font-family:'EB Garamond SC';-inkscape-font-specification:'EB Garamond SC, Normal';font-variant-ligatures:normal;font-variant-caps:normal;font-variant-numeric:normal;font-feature-settings:normal;text-align:start;writing-mode:lr-tb;text-anchor:start;fill:url(#linearGradient4604);fill-opacity:1;stroke-width:0.20290713px"
           y="129.83348"
           x="386.58752"
           sodipodi:role="line"
           id="tspan8230">koccinthatnánk Budapesten. </tspan><tspan
           style="font-style:normal;font-variant:normal;font-weight:normal;font-stretch:normal;font-size:4.03212118px;line-height:60.00000238%;font-family:'EB Garamond SC';-inkscape-font-specification:'EB Garamond SC, Normal';font-variant-ligatures:normal;font-variant-caps:normal;font-variant-numeric:normal;font-feature-settings:normal;text-align:start;writing-mode:lr-tb;text-anchor:start;fill:url(#linearGradient4604);fill-opacity:1;stroke-width:0.20290713px"
           y="135.41641"
           x="386.58752"
           sodipodi:role="line"
           id="tspan8232">Szeretettel várunk</tspan><tspan
           style="font-style:normal;font-variant:normal;font-weight:normal;font-stretch:normal;font-size:4.03212118px;line-height:60.00000238%;font-family:'EB Garamond SC';-inkscape-font-specification:'EB Garamond SC, Normal';font-variant-ligatures:normal;font-variant-caps:normal;font-variant-numeric:normal;font-feature-settings:normal;text-align:start;writing-mode:lr-tb;text-anchor:start;fill:url(#linearGradient4604);fill-opacity:1;stroke-width:0.20290713px"
           y="140.99934"
           x="386.58752"
           sodipodi:role="line"
           id="tspan8234">2017. augusztus 20-án 14 órától</tspan><tspan
           style="font-style:normal;font-variant:normal;font-weight:normal;font-stretch:normal;font-size:4.03212118px;line-height:60.00000238%;font-family:'EB Garamond SC';-inkscape-font-specification:'EB Garamond SC, Normal';font-variant-ligatures:normal;font-variant-caps:normal;font-variant-numeric:normal;font-feature-settings:normal;text-align:start;writing-mode:lr-tb;text-anchor:start;fill:url(#linearGradient4604);fill-opacity:1;stroke-width:0.20290713px"
           y="146.58229"
           x="386.58752"
           sodipodi:role="line"
           id="tspan8236">a III. Kerületi Rámhegy utca 7</tspan><tspan
           style="font-style:normal;font-variant:normal;font-weight:normal;font-stretch:normal;font-size:4.03212118px;line-height:60.00000238%;font-family:'EB Garamond SC';-inkscape-font-specification:'EB Garamond SC, Normal';font-variant-ligatures:normal;font-variant-caps:normal;font-variant-numeric:normal;font-feature-settings:normal;text-align:start;writing-mode:lr-tb;text-anchor:start;fill:url(#linearGradient4604);fill-opacity:1;stroke-width:0.20290713px"
           y="152.16522"
           x="386.58752"
           sodipodi:role="line"
           id="tspan8238">kertjében tartandó bulira! </tspan><tspan
           style="font-style:normal;font-variant:normal;font-weight:normal;font-stretch:normal;font-size:4.03212118px;line-height:60.00000238%;font-family:'EB Garamond SC';-inkscape-font-specification:'EB Garamond SC, Normal';font-variant-ligatures:normal;font-variant-caps:normal;font-variant-numeric:normal;font-feature-settings:normal;text-align:start;writing-mode:lr-tb;text-anchor:start;fill:url(#linearGradient4604);fill-opacity:1;stroke-width:0.20290713px"
           y="157.74815"
           x="386.58752"
           sodipodi:role="line"
           id="tspan8210" /><tspan
           style="font-style:normal;font-variant:normal;font-weight:normal;font-stretch:normal;font-size:4.03212118px;line-height:60.00000238%;font-family:'EB Garamond SC';-inkscape-font-specification:'EB Garamond SC, Normal';font-variant-ligatures:normal;font-variant-caps:normal;font-variant-numeric:normal;font-feature-settings:normal;text-align:start;writing-mode:lr-tb;text-anchor:start;fill:url(#linearGradient4604);fill-opacity:1;stroke-width:0.20290713px"
           y="163.3311"
           x="386.58752"
           sodipodi:role="line"
           id="tspan8267">Várjuk a visszajelzésed: </tspan><tspan
           style="font-style:normal;font-variant:normal;font-weight:normal;font-stretch:normal;font-size:4.03212118px;line-height:60.00000238%;font-family:'EB Garamond SC';-inkscape-font-specification:'EB Garamond SC, Normal';font-variant-ligatures:normal;font-variant-caps:normal;font-variant-numeric:normal;font-feature-settings:normal;text-align:start;writing-mode:lr-tb;text-anchor:start;fill:url(#linearGradient4604);fill-opacity:1;stroke-width:0.20290713px"
           y="168.91403"
           x="386.58752"
           sodipodi:role="line"
           id="tspan8271">dalmi.tomi.eskuvo@gmail.com!</tspan></text>
    </g>
  </g>
  <g
     inkscape:groupmode="layer"
     id="layer1"
     inkscape:label="mk"
     transform="translate(0,2)"
     sodipodi:insensitive="true">
    <rect
       style="opacity:1;fill:#ff0101;fill-opacity:1;fill-rule:evenodd;stroke:none;stroke-width:12.50000095;stroke-linecap:round;stroke-linejoin:miter;stroke-miterlimit:4;stroke-dasharray:none;stroke-opacity:0.36153846"
       id="rect5912"
       width="0.25"
       height="5"
       x="9.875"
       y="223" />
    <rect
       style="opacity:1;fill:#ff0101;fill-opacity:1;fill-rule:evenodd;stroke:none;stroke-width:12.50000095;stroke-linecap:round;stroke-linejoin:miter;stroke-miterlimit:4;stroke-dasharray:none;stroke-opacity:0.36153846;enable-background:new"
       id="rect5912-7"
       width="0.25"
       height="5"
       x="108.875"
       y="223" />
    <rect
       style="opacity:1;fill:#ff0101;fill-opacity:1;fill-rule:evenodd;stroke:none;stroke-width:12.50000095;stroke-linecap:round;stroke-linejoin:miter;stroke-miterlimit:4;stroke-dasharray:none;stroke-opacity:0.36153846;enable-background:new"
       id="rect5912-4"
       width="0.25"
       height="5"
       x="207.875"
       y="223" />
    <rect
       style="opacity:1;fill:#ff0101;fill-opacity:1;fill-rule:evenodd;stroke:none;stroke-width:12.50000095;stroke-linecap:round;stroke-linejoin:miter;stroke-miterlimit:4;stroke-dasharray:none;stroke-opacity:0.36153846;enable-background:new"
       id="rect5912-2"
       width="0.25"
       height="5"
       x="306.875"
       y="223" />
    <rect
       style="opacity:1;fill:#ff0101;fill-opacity:1;fill-rule:evenodd;stroke:none;stroke-width:12.50000095;stroke-linecap:round;stroke-linejoin:miter;stroke-miterlimit:4;stroke-dasharray:none;stroke-opacity:0.36153846;enable-background:new"
       id="rect5912-5"
       width="0.25"
       height="5"
       x="9.875"
       y="-2" />
    <rect
       style="opacity:1;fill:#ff0101;fill-opacity:1;fill-rule:evenodd;stroke:none;stroke-width:12.50000095;stroke-linecap:round;stroke-linejoin:miter;stroke-miterlimit:4;stroke-dasharray:none;stroke-opacity:0.36153846;enable-background:new"
       id="rect5912-7-2"
       width="0.25"
       height="5"
       x="108.875"
       y="-2" />
    <rect
       style="opacity:1;fill:#ff0101;fill-opacity:1;fill-rule:evenodd;stroke:none;stroke-width:12.50000095;stroke-linecap:round;stroke-linejoin:miter;stroke-miterlimit:4;stroke-dasharray:none;stroke-opacity:0.36153846;enable-background:new"
       id="rect5912-4-4"
       width="0.25"
       height="5"
       x="207.875"
       y="-2" />
    <rect
       style="opacity:1;fill:#ff0101;fill-opacity:1;fill-rule:evenodd;stroke:none;stroke-width:12.50000095;stroke-linecap:round;stroke-linejoin:miter;stroke-miterlimit:4;stroke-dasharray:none;stroke-opacity:0.36153846;enable-background:new"
       id="rect5912-2-4"
       width="0.25"
       height="5"
       x="306.875"
       y="-2" />
    <rect
       style="opacity:1;fill:#ff0101;fill-opacity:1;fill-rule:evenodd;stroke:none;stroke-width:12.50000095;stroke-linecap:round;stroke-linejoin:miter;stroke-miterlimit:4;stroke-dasharray:none;stroke-opacity:0.36153846;enable-background:new"
       id="rect5912-2-4-3"
       width="0.25"
       height="5"
       x="7.875"
       y="-317"
       transform="rotate(90)" />
    <rect
       style="opacity:1;fill:#ff0101;fill-opacity:1;fill-rule:evenodd;stroke:none;stroke-width:12.50000095;stroke-linecap:round;stroke-linejoin:miter;stroke-miterlimit:4;stroke-dasharray:none;stroke-opacity:0.36153846;enable-background:new"
       id="rect5912-2-4-3-8"
       width="0.25"
       height="5"
       x="217.875"
       y="-317"
       transform="rotate(90)" />
    <rect
       style="opacity:1;fill:#ff0101;fill-opacity:1;fill-rule:evenodd;stroke:none;stroke-width:12.50000095;stroke-linecap:round;stroke-linejoin:miter;stroke-miterlimit:4;stroke-dasharray:none;stroke-opacity:0.36153846;enable-background:new"
       id="rect5912-2-4-3-6"
       width="0.25"
       height="5"
       x="7.875"
       y="-5"
       transform="rotate(90)" />
    <rect
       style="opacity:1;fill:#ff0101;fill-opacity:1;fill-rule:evenodd;stroke:none;stroke-width:12.50000095;stroke-linecap:round;stroke-linejoin:miter;stroke-miterlimit:4;stroke-dasharray:none;stroke-opacity:0.36153846;enable-background:new"
       id="rect5912-2-4-3-8-0"
       width="0.25"
       height="5"
       x="217.875"
       y="-5"
       transform="rotate(90)" />
  </g>
</svg>
