<?xml version="1.0" encoding="UTF-8" standalone="no"?>
<!-- Created with Inkscape (http://www.inkscape.org/) -->

<svg
   xmlns:dc="http://purl.org/dc/elements/1.1/"
   xmlns:cc="http://creativecommons.org/ns#"
   xmlns:rdf="http://www.w3.org/1999/02/22-rdf-syntax-ns#"
   xmlns:svg="http://www.w3.org/2000/svg"
   xmlns="http://www.w3.org/2000/svg"
   xmlns:xlink="http://www.w3.org/1999/xlink"
   xmlns:sodipodi="http://sodipodi.sourceforge.net/DTD/sodipodi-0.dtd"
   xmlns:inkscape="http://www.inkscape.org/namespaces/inkscape"
   width="317mm"
   height="230mm"
   viewBox="0 0 317 230"
   version="1.1"
   id="svg8"
   sodipodi:docname="invitation-front-adri-lacko-balazs-zsombor.svg"
   inkscape:version="0.92.1 r"
   inkscape:export-filename="/home/petervaro/documents/personal/local/tomi-wedding/invitation-front.png"
   inkscape:export-xdpi="149.94913"
   inkscape:export-ydpi="149.94913"
   style="enable-background:new">
  <defs
     id="defs2">
    <linearGradient
       inkscape:collect="always"
       id="linearGradient4602">
      <stop
         style="stop-color:#a9a0bb;stop-opacity:1"
         offset="0"
         id="stop4598" />
      <stop
         id="stop4606"
         offset="0.31322956"
         style="stop-color:#b99ac6;stop-opacity:1" />
      <stop
         style="stop-color:#b890b7;stop-opacity:1"
         offset="0.68774319"
         id="stop4608" />
      <stop
         style="stop-color:#95a0b6;stop-opacity:1"
         offset="1"
         id="stop4600" />
    </linearGradient>
    <linearGradient
       inkscape:collect="always"
       id="linearGradient5246">
      <stop
         style="stop-color:#ffff95;stop-opacity:0.9"
         offset="0"
         id="stop5242" />
      <stop
         style="stop-color:#ffe86a;stop-opacity:0.15"
         offset="1"
         id="stop5244" />
    </linearGradient>
    <linearGradient
       inkscape:collect="always"
       id="linearGradient8797">
      <stop
         style="stop-color:#b4cecb;stop-opacity:1"
         offset="0"
         id="stop8793" />
      <stop
         id="stop8801"
         offset="0.29235208"
         style="stop-color:#d1b0c1;stop-opacity:1" />
      <stop
         style="stop-color:#cdbfc5;stop-opacity:1"
         offset="0.41891104"
         id="stop8803" />
      <stop
         style="stop-color:#eaefed;stop-opacity:1"
         offset="1"
         id="stop8795" />
    </linearGradient>
    <linearGradient
       id="linearGradient7859">
      <stop
         id="stop7855"
         offset="0"
         style="stop-color:#014d67;stop-opacity:1" />
      <stop
         style="stop-color:#058c8c;stop-opacity:1"
         offset="0.25556999"
         id="stop7863" />
      <stop
         style="stop-color:#c0a3df;stop-opacity:1"
         offset="0.5003776"
         id="stop7861" />
      <stop
         id="stop7857"
         offset="1"
         style="stop-color:#a84e74;stop-opacity:1" />
    </linearGradient>
    <linearGradient
       id="linearGradient6957-3-6">
      <stop
         style="stop-color:#000000;stop-opacity:1;"
         offset="0"
         id="stop6953" />
      <stop
         style="stop-color:#000000;stop-opacity:0;"
         offset="1"
         id="stop6955" />
    </linearGradient>
    <linearGradient
       inkscape:collect="always"
       xlink:href="#linearGradient6957-3-6"
       id="linearGradient6959"
       x1="103.94345"
       y1="5.9583282"
       x2="103.94345"
       y2="292.84225"
       gradientUnits="userSpaceOnUse" />
    <linearGradient
       inkscape:collect="always"
       xlink:href="#linearGradient8797"
       id="linearGradient8799"
       x1="104.69941"
       y1="34.334835"
       x2="104.69941"
       y2="283.05951"
       gradientUnits="userSpaceOnUse"
       gradientTransform="matrix(1.4333333,0,0,0.72053877,7.9999999,75.000005)" />
    <linearGradient
       inkscape:collect="always"
       xlink:href="#linearGradient5246"
       id="linearGradient5248"
       x1="239.44791"
       y1="87.185432"
       x2="228.59999"
       y2="245.40623"
       gradientUnits="userSpaceOnUse"
       gradientTransform="matrix(1.3486894,0,0,1.0288462,-32.510664,-16.567324)" />
    <filter
       inkscape:collect="always"
       style="color-interpolation-filters:sRGB"
       id="filter8143">
      <feBlend
         inkscape:collect="always"
         mode="overlay"
         in2="BackgroundImage"
         id="feBlend8145" />
    </filter>
    <linearGradient
       inkscape:collect="always"
       xlink:href="#linearGradient4602"
       id="linearGradient4604"
       x1="411.05426"
       y1="170.24791"
       x2="411.05426"
       y2="75.320953"
       gradientUnits="userSpaceOnUse" />
    <linearGradient
       inkscape:collect="always"
       xlink:href="#linearGradient4602"
       id="linearGradient4610"
       gradientUnits="userSpaceOnUse"
       x1="250.20009"
       y1="384.53812"
       x2="250.20009"
       y2="29.95006" />
    <linearGradient
       inkscape:collect="always"
       xlink:href="#linearGradient4602"
       id="linearGradient4612"
       gradientUnits="userSpaceOnUse"
       x1="233.40646"
       y1="383.75626"
       x2="233.40646"
       y2="34.836159" />
  </defs>
  <sodipodi:namedview
     id="base"
     pagecolor="#ffffff"
     bordercolor="#666666"
     borderopacity="1.0"
     inkscape:pageopacity="1"
     inkscape:pageshadow="2"
     inkscape:zoom="1.1"
     inkscape:cx="574.32473"
     inkscape:cy="422.65877"
     inkscape:document-units="mm"
     inkscape:current-layer="layer2"
     showgrid="false"
     inkscape:showpageshadow="false"
     inkscape:snap-to-guides="false"
     inkscape:snap-grids="false"
     inkscape:object-nodes="false"
     inkscape:snap-others="false"
     inkscape:snap-nodes="false"
     inkscape:snap-global="false"
     inkscape:window-width="2560"
     inkscape:window-height="1437"
     inkscape:window-x="0"
     inkscape:window-y="0"
     inkscape:window-maximized="1"
     showborder="true"
     showguides="false"
     inkscape:guide-bbox="true">
    <sodipodi:guide
       position="99.000002,210"
       orientation="1,0"
       id="guide5250"
       inkscape:locked="false"
       inkscape:label=""
       inkscape:color="rgb(0,0,255)" />
    <sodipodi:guide
       position="198,210"
       orientation="1,0"
       id="guide5252"
       inkscape:locked="false"
       inkscape:label=""
       inkscape:color="rgb(0,0,255)" />
    <sodipodi:guide
       position="-5.0000001,174"
       orientation="0,1"
       id="guide5256"
       inkscape:locked="false"
       inkscape:label=""
       inkscape:color="rgb(0,0,255)" />
    <sodipodi:guide
       position="-5.0000001,34.000001"
       orientation="0,1"
       id="guide5258"
       inkscape:locked="false"
       inkscape:label=""
       inkscape:color="rgb(0,0,255)" />
    <sodipodi:guide
       position="-5.0000001,44.000001"
       orientation="0,1"
       id="guide6259"
       inkscape:locked="false"
       inkscape:label=""
       inkscape:color="rgb(0,0,255)" />
    <sodipodi:guide
       position="36.644793,163.71093"
       orientation="0,1"
       id="guide9656"
       inkscape:locked="false" />
    <sodipodi:guide
       position="34.46198,150.01875"
       orientation="0,1"
       id="guide9658"
       inkscape:locked="false" />
    <sodipodi:guide
       position="37.511278,155.00296"
       orientation="0,1"
       id="guide9660"
       inkscape:locked="false" />
    <sodipodi:guide
       position="34.588018,158.72135"
       orientation="0,1"
       id="guide9662"
       inkscape:locked="false" />
  </sodipodi:namedview>
  <metadata
     id="metadata5">
    <rdf:RDF>
      <cc:Work
         rdf:about="">
        <dc:format>image/svg+xml</dc:format>
        <dc:type
           rdf:resource="http://purl.org/dc/dcmitype/StillImage" />
        <dc:title></dc:title>
      </cc:Work>
    </rdf:RDF>
  </metadata>
  <g
     inkscape:groupmode="layer"
     id="layer12"
     inkscape:label="bg"
     transform="translate(0,-67)"
     style="display:inline"
     sodipodi:insensitive="true">
    <rect
       style="opacity:1;fill:url(#linearGradient8799);fill-opacity:1;fill-rule:evenodd;stroke:none;stroke-width:0.52916664;stroke-linecap:round;stroke-linejoin:miter;stroke-miterlimit:4;stroke-dasharray:none;stroke-opacity:1"
       id="rect8791"
       width="301"
       height="214.00002"
       x="8"
       y="75" />
  </g>
  <g
     inkscape:groupmode="layer"
     id="layer13"
     inkscape:label="fg"
     style="display:inline;filter:url(#filter8143)"
     transform="translate(0,-67)"
     sodipodi:insensitive="true">
    <rect
       style="opacity:0.35;fill:url(#linearGradient5248);fill-opacity:1;fill-rule:evenodd;stroke:none;stroke-width:12.50000191;stroke-linecap:round;stroke-linejoin:miter;stroke-miterlimit:4;stroke-dasharray:none;stroke-opacity:0.36153846"
       id="rect5221"
       width="80.646011"
       height="214.00002"
       x="207.99998"
       y="75" />
    <flowRoot
       xml:space="preserve"
       id="flowRoot9615"
       style="font-style:normal;font-weight:normal;font-size:40px;line-height:24px;font-family:sans-serif;letter-spacing:0px;word-spacing:0px;fill:#000000;fill-opacity:1;stroke:none;stroke-width:1px;stroke-linecap:butt;stroke-linejoin:miter;stroke-opacity:1"
       transform="matrix(0.26458333,0,0,0.26458333,0,89)"><flowRegion
         id="flowRegion9617"><rect
           id="rect9619"
           width="334.28571"
           height="427.14285"
           x="441.42856"
           y="246.14172" /></flowRegion><flowPara
         id="flowPara9621" /></flowRoot>    <flowRoot
       xml:space="preserve"
       id="flowRoot9830"
       style="font-style:normal;font-weight:normal;font-size:40px;line-height:24px;font-family:sans-serif;letter-spacing:0px;word-spacing:0px;fill:#000000;fill-opacity:1;stroke:none;stroke-width:1px;stroke-linecap:butt;stroke-linejoin:miter;stroke-opacity:1"><flowRegion
         id="flowRegion9832"><rect
           id="rect9834"
           width="50"
           height="517.85712"
           x="486.42856"
           y="146.856" /></flowRegion><flowPara
         id="flowPara9836" /></flowRoot>    <text
       xml:space="preserve"
       style="font-style:normal;font-weight:normal;font-size:10.58333302px;line-height:6.3499999px;font-family:sans-serif;letter-spacing:0px;word-spacing:0px;fill:#22295c;fill-opacity:1;stroke:none;stroke-width:0.26458332px;stroke-linecap:butt;stroke-linejoin:miter;stroke-opacity:1"
       x="48.188232"
       y="140.99695"
       id="text9646"><tspan
         sodipodi:role="line"
         id="tspan9644"
         x="48.188232"
         y="140.99695"
         style="font-style:normal;font-variant:normal;font-weight:300;font-stretch:normal;font-size:5.29166651px;font-family:Rubik;-inkscape-font-specification:'Rubik Light';fill:#22295c;fill-opacity:1;stroke-width:0.26458332px">MEGHÍVÓ</tspan></text>
    <g
       id="g8841"
       style="display:inline;opacity:0.65;fill:#22295c;fill-opacity:1;stroke-width:1.82608342;enable-background:new"
       transform="matrix(0.54762011,0,0,0.54762011,2.1321799,100.67884)">
      <path
         sodipodi:nodetypes="ccccccccccccccccccccccccccccccccccccccccccccccccccccccccccccccccccccc"
         inkscape:connector-curvature="0"
         id="path6406-5-2-2"
         d="m 51.06571,21.118677 -3.031803,17.242576 h -1.875354 l -2.184146,-7.304918 -3.243624,10.892702 0.329851,0.87398 h 0.652938 v 22.176274 l 0.616766,3.820157 v 31.078257 h -5.652296 v 16.210075 h 28.75945 v -3.50951 C 81.63104,95.14469 102.51781,86.236495 102.51781,86.236495 L 100.90116,82.835973 65.347671,99.897705 H 59.785186 V 68.819448 l 0.616377,-3.820157 v -7.158784 h 89.196877 v 7.158784 l 0.61637,3.820157 v 31.078257 h -5.56248 l -35.55349,-17.061732 -1.61664,3.400522 c 0,0 20.88676,8.908195 37.08031,26.361775 v 3.50951 h 28.75945 V 99.897705 h -5.6523 V 68.819448 l 0.61677,-3.820157 V 42.823017 h 0.65295 l 0.32984,-0.87398 -3.24363,-10.892702 -2.18413,7.304918 h -1.87537 l -3.0318,-17.242576 -3.01592,17.242576 h -1.87535 l -2.18375,-7.304918 -3.24361,10.892702 0.32984,0.87398 h 0.65294 v 7.872282 h -18.61726 v -0.804917 h -4.2904 v 0.804917 h -18.34423 v -2.250252 h -6.6931 v 2.250252 H 83.30921 v -0.804917 h -4.290391 v 0.804917 H 60.401563 v -7.872282 h 0.652938 l 0.329844,-0.87398 -3.243624,-10.892702 -2.183744,7.304918 h -1.875354 z"
         style="display:inline;fill:#22295c;fill-opacity:1;fill-rule:evenodd;stroke:none;stroke-width:0.48315123px;stroke-linecap:butt;stroke-linejoin:miter;stroke-opacity:1" />
      <path
         inkscape:connector-curvature="0"
         id="path8784"
         d="m 104.33093,275.51064 c -0.58885,-0.21642 -0.81749,-0.41756 -0.57697,-0.50761 0.21911,-0.082 0.78783,0.0943 1.26384,0.39187 0.97297,0.60824 0.75371,0.64519 -0.68687,0.11574 z m -2.48648,-1.32955 c -0.098,-0.16114 -0.0331,-0.29298 0.14424,-0.29298 0.1774,0 0.24622,-0.12542 0.15293,-0.2787 -0.0932,-0.15328 0.37225,-0.44355 1.03448,-0.64507 0.66224,-0.2015 1.03607,-0.42325 0.83073,-0.49276 -0.25191,-0.0852 -0.14819,-0.30222 0.31881,-0.66687 0.62079,-0.48473 0.63515,-0.54113 0.13922,-0.54697 -0.30411,-0.004 -0.46798,-0.0928 -0.36416,-0.19823 0.10383,-0.10545 1.26138,-0.24965 2.57234,-0.32044 2.43659,-0.13161 2.93523,0.0292 1.03287,0.33299 -0.58421,0.0933 -1.52051,0.3916 -2.08067,0.66289 -0.92177,0.44642 -0.97156,0.52944 -0.52447,0.87441 0.44763,0.34537 0.42629,0.3824 -0.22721,0.39447 -1.36811,0.0252 -1.98131,0.32455 -1.8698,0.91262 0.0737,0.38883 -0.0588,0.55763 -0.43764,0.55763 -0.29885,0 -0.62361,-0.13184 -0.72167,-0.29299 z m -2.884866,-3.33198 -0.865462,-0.37566 0.649094,-0.35389 c 0.357002,-0.19464 0.649093,-0.53678 0.649093,-0.76033 0,-0.49668 1.764821,-1.12768 2.663491,-0.95232 0.56071,0.10942 0.53955,0.13334 -0.14829,0.16754 -0.44131,0.0219 -0.87895,0.24254 -0.97254,0.49022 -0.0936,0.24767 -0.55594,0.65292 -1.027454,0.90055 -0.471517,0.24764 -0.770019,0.53941 -0.663342,0.6484 0.106686,0.10897 1.189756,0.27518 2.406826,0.36934 l 2.21285,0.17122 -2.0194,0.0353 c -1.11067,0.0194 -2.408861,-0.13374 -2.884866,-0.34036 z m 4.471536,-2.82074 c 0.39666,-0.12902 0.52649,-0.25191 0.28849,-0.27309 -0.33302,-0.0297 -0.30011,-0.14032 0.14283,-0.48026 0.48414,-0.37155 0.50883,-0.48361 0.15547,-0.70542 -0.27369,-0.17178 0.14939,-0.24158 1.21395,-0.20027 1.55115,0.0602 1.61043,0.037 1.16852,-0.459 -0.25602,-0.28734 -0.52665,-0.46033 -0.60137,-0.38445 -0.0747,0.0759 -0.38681,8.8e-4 -0.69353,-0.16513 -0.47172,-0.25638 -0.49922,-0.37505 -0.17844,-0.7698 0.29914,-0.36811 0.30307,-0.49273 0.0186,-0.58995 -0.19834,-0.0678 -0.36061,-0.36059 -0.36061,-0.65066 0,-0.29363 -0.2877,-0.61409 -0.6491,-0.72301 -0.62843,-0.1894 -0.63073,-0.20309 -0.0722,-0.43048 0.71716,-0.29191 3.20663,-0.69683 3.00116,-0.48813 -0.0828,0.0841 -0.66211,0.26772 -1.28737,0.40807 l -1.13682,0.2552 0.77051,0.37427 c 0.42378,0.20585 0.70702,0.54229 0.62943,0.74765 -0.0776,0.20537 -2.9e-4,0.46175 0.17178,0.56976 0.17207,0.108 0.24052,0.31524 0.15211,0.46052 -0.0884,0.14529 0.16046,0.34603 0.55306,0.4461 0.42739,0.10894 0.65585,0.33532 0.56939,0.56417 -0.0794,0.21021 0.15283,0.59366 0.51613,0.85209 0.65162,0.46354 0.64442,0.46988 -0.534,0.46988 -1.44426,0 -2.10719,0.22955 -2.10719,0.72964 0,0.39824 -0.92267,0.7437 -1.87515,0.70208 -0.47565,-0.0207 -0.45032,-0.0664 0.14424,-0.25978 z m 0.72121,-6.63816 c -0.31733,-0.0686 -1.18891,-0.4031 -1.93684,-0.7436 -1.34957,-0.61442 -1.57322,-1.11485 -0.49826,-1.11485 0.30797,0 0.55994,-0.13183 0.55994,-0.29298 0,-0.16115 0.25022,-0.54712 0.55606,-0.85771 0.54906,-0.55764 0.54467,-0.56874 -0.35026,-0.88559 -0.49847,-0.17648 -2.27406,-0.41034 -3.945757,-0.51969 -1.671707,-0.10934 -2.779828,-0.24593 -2.462487,-0.30351 1.332931,-0.24187 1.373758,-0.31652 0.741326,-1.35577 -0.332162,-0.54585 -0.530724,-1.18621 -0.441241,-1.42303 0.199635,-0.52837 -1.463415,-0.80742 -4.81189,-0.80742 -2.501178,0 -3.048134,-0.44633 -0.897314,-0.73222 0.753675,-0.10018 1.686407,-0.31431 2.072746,-0.47583 0.626074,-0.26176 6.652158,-0.80552 9.226297,-0.83252 1.80317,-0.0189 0.78067,-0.23904 -1.995362,-0.42957 -3.553435,-0.24388 -4.904266,-0.45286 -4.904266,-0.75872 0,-0.13612 -0.269113,-0.33424 -0.598035,-0.44026 -0.581231,-0.18735 -0.583265,-0.2099 -0.07207,-0.80189 0.486749,-0.56377 0.488323,-0.5952 0.02106,-0.42215 -0.277668,0.10289 -0.504851,0.088 -0.504851,-0.0329 0,-0.12093 -0.335025,-0.24804 -0.744506,-0.28246 -0.40947,-0.0345 -0.9612,-0.18575 -1.226061,-0.33629 -0.915508,-0.52034 0.673493,-0.87253 6.235388,-1.38203 1.191521,-0.10914 2.059643,-0.31905 2.005223,-0.48486 -0.0527,-0.16081 -1.285649,-0.58239 -2.73971,-0.93685 -2.627972,-0.64061 -3.668219,-1.14937 -3.365894,-1.64618 0.08699,-0.14289 0.702166,-0.26815 1.367134,-0.27836 1.075155,-0.0165 1.131744,-0.0499 0.511046,-0.30192 -0.897926,-0.36451 -0.532839,-0.67204 1.274964,-1.07399 0.793335,-0.17639 1.808477,-0.4624 2.255871,-0.63558 0.702469,-0.2719 0.757589,-0.37157 0.404023,-0.73065 -0.225179,-0.2287 -0.980683,-0.56711 -1.678894,-0.75204 -1.595524,-0.42257 -2.856155,-0.96406 -2.856155,-1.22681 0,-0.23346 0.571437,-0.42407 2.091523,-0.69767 1.330519,-0.2395 1.387353,-0.57448 0.144242,-0.85018 -0.829266,-0.18392 -0.870921,-0.23655 -0.36061,-0.45552 0.31734,-0.13616 0.414704,-0.25683 0.216368,-0.26816 -0.740458,-0.0423 -0.322645,-0.52549 0.77145,-0.89222 1.003152,-0.33623 1.09382,-0.44164 0.796178,-0.92567 -0.184742,-0.30044 -0.95381,-0.75468 -1.709038,-1.00944 -1.376171,-0.46423 -1.814581,-0.98186 -0.868294,-1.02522 0.438951,-0.0201 0.05336,-0.19527 -1.625944,-0.73866 -0.781621,-0.25291 0.552272,-1.25463 1.94766,-1.46264 3.84475,-0.57314 3.4027,-1.17795 -1.042926,-1.42692 -3.650503,-0.20444 -6.130337,-0.61874 -6.130337,-1.02418 0,-0.11615 0.324547,-0.36135 0.72122,-0.54492 0.396663,-0.18355 0.72121,-0.46501 0.72121,-0.62547 0,-0.5967 1.834716,-1.224 3.984607,-1.36236 1.219816,-0.0785 2.379578,-0.15879 2.57726,-0.17838 0.197672,-0.0196 0.565447,-0.26688 0.817265,-0.54948 0.421093,-0.47256 0.409604,-0.54007 -0.143046,-0.84044 -0.401436,-0.2182 -0.600898,-0.61495 -0.600898,-1.19527 0,-0.47776 -0.129818,-0.86865 -0.288483,-0.86865 -0.158665,0 -0.288484,-0.3751 -0.288484,-0.83354 0,-0.86527 0.753092,-1.79678 1.465142,-1.81225 0.291612,-0.006 0.261795,-0.0965 -0.103261,-0.31233 -0.479604,-0.28351 -0.470343,-0.33875 0.141113,-0.84159 l 0.654389,-0.53817 -1.439301,-0.2331 c -0.791609,-0.1282 -1.536666,-0.20693 -1.655659,-0.17495 -0.563915,0.15155 -0.125475,-0.28687 0.576967,-0.57695 l 0.793336,-0.3276 -0.952215,-0.21716 c -0.523722,-0.11943 -1.025998,-0.29208 -1.116165,-0.38365 -0.269441,-0.27363 0.686179,-1.0747 1.699173,-1.42438 2.30555,-0.79584 2.111222,-1.02172 -1.018576,-1.18396 -2.453727,-0.12717 -3.227856,-0.28657 -4.3573,-0.8972 -1.85328,-1.00196 -1.943693,-0.95609 4.803151,-2.43719 2.149727,-0.47192 2.210639,-0.50814 1.664041,-0.98959 -0.312056,-0.27486 -0.49554,-0.5727 -0.407743,-0.66188 0.08781,-0.0892 -0.228267,-0.24863 -0.70236,-0.35438 -1.201662,-0.26804 -1.364682,-0.9332 -0.358249,-1.46177 0.672032,-0.35293 1.178978,-0.9841 1.178978,-1.46787 0,-0.0486 -0.259637,-0.1573 -0.576977,-0.2416 -0.700163,-0.18595 -0.772483,-1.24114 -0.102945,-1.50207 0.832966,-0.32462 0.125821,-0.59289 -2.036315,-0.7725 -1.564142,-0.12994 -2.268025,-0.33027 -2.744531,-0.78113 -0.864798,-0.81826 -0.494692,-0.996 2.464102,-1.18348 2.124306,-0.1346 2.362079,-0.20302 1.884918,-0.54245 -0.300311,-0.21363 -1.114213,-0.46515 -1.808662,-0.55893 -2.030232,-0.27419 -3.426284,-0.78431 -3.426284,-1.252 0,-0.35014 0.365138,-0.40545 1.947281,-0.29497 1.071004,0.0747 2.336737,0.0576 2.812732,-0.0382 0.862314,-0.17356 0.859155,-0.1779 -0.865451,-1.1906 -0.952011,-0.55902 -2.05547,-1.16626 -2.452133,-1.34942 l -0.72122,-0.33302 1.009704,-0.30549 c 0.860361,-0.26029 0.903027,-0.31005 0.288483,-0.33638 -0.93725,-0.0401 -1.568833,-0.45615 -1.318119,-0.86815 0.109027,-0.17915 0.05306,-0.32574 -0.124309,-0.32574 -0.177393,0 -0.244632,-0.12802 -0.149415,-0.28449 0.09527,-0.15647 0.816887,-0.37123 1.603701,-0.47723 0.786814,-0.106 1.430572,-0.30294 1.430572,-0.43766 0,-0.34495 -1.006177,-0.85153 -1.691344,-0.85153 -0.31643,0 -0.77006,-0.19777 -1.008058,-0.43948 -0.274613,-0.2789 -0.985457,-0.43947 -1.945492,-0.43947 -1.317661,0 -3.696594,-0.75118 -3.711508,-1.17195 -0.0092,-0.27305 1.543616,-0.87889 2.283594,-0.89069 l 0.735816,-0.0117 -0.793336,-0.43711 c -0.436333,-0.24041 -0.793335,-0.50555 -0.793335,-0.58919 0,-0.30839 1.974359,-0.97603 3.886323,-1.31417 1.591834,-0.28153 1.863421,-0.40373 1.420851,-0.63929 -1.797468,-0.95672 -1.925355,-1.10915 -1.412969,-1.68417 0.451084,-0.50622 0.444818,-0.55938 -0.100993,-0.85603 -0.32007,-0.17399 -0.821221,-0.31632 -1.113682,-0.31632 -0.29247,0 -0.80322,-0.19311 -1.135014,-0.42914 -0.331805,-0.23603 -0.697576,-0.33491 -0.812839,-0.21973 -0.115252,0.11517 -0.164767,-0.0525 -0.110019,-0.37265 0.08566,-0.50096 -0.138467,-0.62405 -1.608822,-0.88353 -0.939612,-0.16582 -1.761793,-0.46425 -1.827082,-0.66315 -0.06532,-0.19892 -0.464883,-0.37093 -0.888,-0.38226 -0.876205,-0.0235 -2.192649,-0.50858 -1.490504,-0.54928 0.351553,-0.0204 0.359762,-0.0721 0.04375,-0.27544 -0.213956,-0.1377 -0.340544,-0.49825 -0.281319,-0.80123 0.05919,-0.30297 -0.142627,-0.75961 -0.448569,-1.01476 -0.634436,-0.52911 -0.808547,-0.49142 2.705545,-0.58549 l 2.452132,-0.0656 -1.563221,-0.32323 c -1.899341,-0.39275 -2.217029,-0.94652 -0.691065,-1.20463 1.508105,-0.2551 1.936845,-0.41404 1.717594,-0.63672 -0.102598,-0.10419 0.01165,-0.49661 0.253851,-0.87205 0.24221,-0.37543 0.307579,-0.68262 0.145254,-0.68262 -0.702268,0 -0.217881,-0.58778 0.498198,-0.60454 l 0.793336,-0.0186 -0.72121,-0.31188 c -0.396673,-0.17155 -1.350401,-0.42094 -2.119409,-0.55422 -1.567862,-0.27175 -3.485439,-1.56988 -3.24785,-2.19868 0.238365,-0.63085 -0.885629,-1.06262 -3.120506,-1.19872 -1.123095,-0.0684 -2.143245,-0.22699 -2.267013,-0.35244 -0.123767,-0.12545 0.330598,-0.39389 1.009704,-0.59653 0.679106,-0.20264 1.683003,-0.58761 2.230899,-0.85551 l 0.99618,-0.48708 -1.356789,-0.26884 c -1.319123,-0.26138 -1.868358,-0.75207 -0.851928,-0.76109 0.418793,-0.004 0.433441,-0.0504 0.08586,-0.27366 -0.230423,-0.14805 -0.512549,-0.21042 -0.626943,-0.13862 -0.224157,0.1407 -2.301881,-1.00194 -2.591837,-1.42538 -0.0968,-0.14128 -1.005492,-0.3292 -2.019406,-0.41757 -1.979123,-0.17252 -3.343538,-0.64528 -1.908408,-0.66124 1.029125,-0.0114 3.897568,-1.03313 4.528375,-1.61292 0.269828,-0.248 1.053903,-0.45755 1.761701,-0.4708 l 1.275475,-0.0239 -1.009704,-0.45004 c -0.555328,-0.24751 -1.499683,-0.51824 -2.098556,-0.6016 -1.174573,-0.1635 -1.778425,-0.65848 -0.803332,-0.65848 0.326704,0 0.594007,-0.13183 0.594007,-0.29298 0,-0.16114 -0.206708,-0.29298 -0.459353,-0.29298 -0.252636,0 -0.756568,-0.23745 -1.119835,-0.52765 -0.363268,-0.2902 -1.227575,-0.71324 -1.920664,-0.94009 -0.693099,-0.22684 -1.641563,-0.64247 -2.107694,-0.92361 l -0.847532,-0.51117 0.847532,-0.31536 c 0.466131,-0.17344 1.007455,-0.37231 1.202919,-0.44192 0.526133,-0.18739 0.01083,-1.40705 -0.742205,-1.75668 -0.342589,-0.15907 -0.622896,-0.43485 -0.622896,-0.61285 0,-0.36053 -1.853177,-0.99989 -2.918325,-1.00684 -0.378263,-0.002 -0.875704,-0.12526 -1.105432,-0.27286 -0.325835,-0.20934 -0.239449,-0.3138 0.392839,-0.47497 0.807402,-0.2058 0.805214,-0.20919 -0.567859,-0.88127 l -1.378379,-0.67469 0.841298,-0.18084 c 0.462716,-0.0994 1.360572,-0.30212 1.995242,-0.45039 0.63467,-0.14825 1.478492,-0.31402 1.875155,-0.36838 0.655104,-0.0898 0.628649,-0.12528 -0.288484,-0.38731 -0.567676,-0.16218 -1.131417,-0.5639 -1.287741,-0.91763 -0.15292,-0.34604 -0.802014,-0.81907 -1.442429,-1.05118 -1.49039,-0.54018 -5.858372,-1.36767 -7.219312,-1.36767 -1.644538,0 -0.895975,-0.5805 0.807073,-0.62588 0.823644,-0.0219 1.214869,-0.0958 0.869388,-0.16408 -0.630265,-0.12459 -1.537984,-0.95827 -1.065976,-0.97902 0.45595,-0.02 2.540972,-0.29411 3.56928,-0.46914 0.940296,-0.16006 0.964063,-0.18948 0.345757,-0.42795 -0.365159,-0.14084 -1.973051,-0.38117 -3.573082,-0.53406 -3.072483,-0.29361 -3.924911,-0.66137 -3.051732,-1.31661 0.598434,-0.44907 0.37533,-0.75702 -0.548448,-0.75702 -0.682039,0 -0.976871,-0.57033 -0.312527,-0.60454 0.198337,-0.0104 0.03608,-0.16556 -0.360609,-0.34522 -0.610762,-0.27662 -0.235994,-0.36272 2.447196,-0.56223 1.742627,-0.12958 3.361723,-0.31094 3.597993,-0.40302 0.973334,-0.37932 -0.471416,-0.67514 -3.414581,-0.69913 -1.670062,-0.0136 -3.16585,-0.15615 -3.323973,-0.31673 -0.158113,-0.16059 -0.764571,-0.29198 -1.347672,-0.29198 -1.481907,0 -2.882609,-0.31709 -2.703184,-0.61194 0.0829,-0.13618 1.086859,-0.23116 2.231083,-0.21106 1.144225,0.0201 2.534778,-0.0726 3.090106,-0.20587 0.974049,-0.23385 0.98423,-0.24997 0.288494,-0.45652 -0.396673,-0.11777 -1.175586,-0.23193 -1.730924,-0.25371 l -1.009693,-0.0395 0.721209,-0.40702 0.721221,-0.40702 -0.721221,-0.27221 c -0.878882,-0.3317 -3.251765,-1.02528 -5.769717,-1.68646 -1.031343,-0.27081 -2.004984,-0.59413 -2.163649,-0.7185 -0.361438,-0.28328 -2.933188,-1.01836 -5.136734,-1.46819 -0.926803,-0.18921 -1.629398,-0.48058 -1.573024,-0.65236 0.05602,-0.17073 0.799428,-0.52394 1.651979,-0.78493 1.773518,-0.54289 2.021687,-0.9143 1.181248,-1.76786 -0.327255,-0.33236 -0.594999,-0.93389 -0.594999,-1.33674 v -0.73248 l -3.101226,-0.0397 c -6.292275,-0.0805 -7.941709,-0.33407 -4.562343,-0.70161 1.046023,-0.11377 1.972632,-0.32314 2.05912,-0.46527 0.08648,-0.14213 0.01053,-0.25842 -0.168857,-0.25842 -0.179364,0 -0.520848,-0.19777 -0.758846,-0.43948 -0.29716,-0.30171 -1.028775,-0.43939 -2.335365,-0.43939 -3.195423,0 -1.696589,-0.42806 2.184165,-0.62379 5.811842,-0.29312 13.711813,-0.88075 14.183985,-1.05505 0.308151,-0.11375 0.225088,-0.21806 -0.288483,-0.36233 -0.590809,-0.16595 -0.345769,-0.2911 1.355133,-0.69213 2.156156,-0.50837 6.722475,-0.67374 6.722475,-0.24347 0,0.26997 1.743445,0.87088 2.884869,0.99435 0.552619,0.0598 0.742911,0.27017 0.814045,0.90003 0.08351,0.73935 -0.05366,0.88488 -1.362954,1.44669 l -1.455779,0.62463 1.07446,0.40642 c 0.590961,0.22352 1.626199,0.53906 2.300531,0.7012 1.334495,0.32087 1.56591,0.68428 0.62823,0.98654 -0.359433,0.11585 -0.535609,0.35739 -0.441782,0.60571 0.08586,0.22715 0.05478,0.41302 -0.069,0.41302 -0.123766,0 -0.517781,0.27698 -0.875571,0.61552 -0.450869,0.42659 -1.178447,0.66413 -2.370479,0.77391 -0.94598,0.0871 -1.785417,0.26596 -1.865434,0.39745 -0.442467,0.7271 2.717055,1.39697 6.715881,1.42389 1.411211,0.009 1.761099,0.0991 1.639856,0.41998 -0.14138,0.37419 0.407467,0.65477 3.057099,1.56291 0.384642,0.13184 0.384642,0.16317 0,0.28211 -0.804641,0.24882 -1.730924,0.77475 -1.730924,0.98281 0,0.11377 0.405403,0.28919 0.900891,0.38984 0.761178,0.15462 0.845171,0.25117 0.541651,0.6226 -0.311473,0.38115 -0.161497,0.43961 1.127777,0.43961 0.817859,0 1.916104,0.18208 2.440531,0.40461 1.419543,0.60238 5.106926,1.29637 8.731466,1.64333 1.766915,0.16915 3.584377,0.48794 4.038804,0.70844 0.454427,0.22052 1.86479,0.48945 3.134132,0.59763 2.325492,0.19822 3.262866,0.56265 2.356127,0.91603 -0.264533,0.10308 -0.480972,0.2906 -0.480972,0.41667 0,0.30991 5.023064,-0.0158 5.144664,-0.33359 0.05285,-0.13823 0.507255,-0.2493 1.009704,-0.24683 0.697996,0.004 0.81144,0.072 0.480811,0.29031 -0.288209,0.19035 0.193541,0.21332 1.442428,0.0687 1.031344,-0.11937 2.459349,-0.20378 3.173349,-0.18753 1.87525,0.0427 5.67083,0.84234 5.25041,1.10624 -0.194,0.12176 -2.65552,0.1499 -5.47006,0.0625 -5.532757,-0.17175 -8.371607,0.008 -7.886606,0.50122 0.26897,0.27318 3.212401,0.30407 12.289296,0.12897 3.09566,-0.0597 6.94448,0.29658 6.63748,0.61445 -0.10304,0.10666 -0.7948,0.42486 -1.53726,0.70708 l -1.3499,0.51313 1.58668,-0.16104 c 7.01045,-0.71159 8.76711,-0.9786 9.51144,-1.4458 0.70385,-0.4418 -0.50656,-0.69479 -3.45323,-0.72175 -1.88235,-0.0172 -2.60511,-0.11404 -2.30789,-0.3091 0.238,-0.15621 0.9768,-0.28604 1.64177,-0.2885 0.66496,-0.002 1.28927,-0.13633 1.38733,-0.29748 0.098,-0.16114 -0.0241,-0.29298 -0.27146,-0.29298 -0.24736,0 -0.44975,-0.12001 -0.44975,-0.26668 0,-0.47848 4.91447,-0.71409 7.53332,-0.36117 1.36666,0.18418 2.9894,0.3265 3.60607,0.31629 1.03086,-0.017 1.06397,-0.0418 0.41061,-0.30666 -0.39086,-0.15847 -0.7687,-0.34707 -0.83965,-0.41913 -0.19137,-0.19435 0.86623,-1.30655 1.24241,-1.30655 0.17814,0 0.53711,-0.25288 0.79768,-0.56195 0.68693,-0.8148 2.94896,-1.0116 8.84528,-0.76954 3.91646,0.16079 5.01283,0.12903 4.75772,-0.1378 -0.18235,-0.1907 -1.61035,-0.45209 -3.17336,-0.58086 -4.08812,-0.33681 -12.07337,-1.99464 -12.07337,-2.50656 0,-0.5012 1.77283,-0.67764 3.86775,-0.38493 4.82254,0.6738 6.94982,0.88214 10.12382,0.99146 2.64431,0.091 3.39308,0.0278 3.68957,-0.31166 0.30695,-0.35147 0.29433,-0.43235 -0.0722,-0.46256 -0.24425,-0.0201 -0.57392,-0.0695 -0.73258,-0.10987 -0.15866,-0.0403 -0.67795,-0.0897 -1.15395,-0.10988 -0.56094,-0.0237 -0.86546,-0.19125 -0.86546,-0.4761 0,-0.24171 -0.22069,-0.43947 -0.49043,-0.43947 -0.28394,0 -0.37504,-0.10019 -0.21636,-0.23792 0.24186,-0.20997 1.3895,-0.58907 5.75184,-1.90006 0.6983,-0.20984 0.95049,-0.38486 0.64164,-0.44526 -0.27987,-0.0547 -0.49012,-0.254 -0.46722,-0.44282 0.0942,-0.77672 -0.0633,-1.02155 -0.7734,-1.20257 -0.61521,-0.15681 -0.68517,-0.26557 -0.3974,-0.61773 0.29192,-0.35721 0.21319,-0.43079 -0.47939,-0.448 -0.80167,-0.0199 -2.27784,-0.49852 -1.69412,-0.54927 0.15867,-0.0139 0.10921,-0.1404 -0.10991,-0.28135 -0.28067,-0.18053 -0.0498,-0.31607 0.78117,-0.45865 1.38622,-0.23786 2.66876,0.051 2.03535,0.45845 -0.29294,0.18843 -0.20737,0.26553 0.32249,0.29065 1.20501,0.0571 2.52151,-0.0554 3.37402,-0.28847 0.71396,-0.19516 0.62749,-0.24313 -0.73607,-0.40829 -0.8498,-0.10298 -1.73008,-0.34307 -1.95618,-0.53365 -0.2261,-0.19057 -1.4781,-0.39483 -2.7822,-0.4539 -1.30411,-0.0591 -2.6685,-0.17526 -3.032,-0.2582 -1.07622,-0.24555 -0.42198,-0.71727 1.03853,-0.74878 0.74431,-0.0161 1.67783,-0.13175 2.0745,-0.25707 0.72044,-0.22762 0.72018,-0.22827 -0.24416,-0.59528 -1.24875,-0.47525 -0.72158,-0.85454 1.25387,-0.90217 l 1.44242,-0.0348 -1.14634,-0.3073 c -0.63049,-0.16902 -1.32131,-0.48501 -1.53516,-0.70219 -0.21384,-0.21718 -0.53099,-0.39488 -0.70478,-0.39488 -0.17376,0 -0.2423,-0.0748 -0.15229,-0.16622 0.23441,-0.23806 7.23442,0.49969 7.56295,0.79709 0.15074,0.13645 1.31911,0.24767 2.59638,0.24714 2.57767,-8.8e-4 8.23629,0.83769 8.23629,1.22082 0,0.13478 -0.2921,0.25433 -0.6491,0.26565 -0.61935,0.0196 -0.62266,0.0322 -0.0722,0.2724 0.81142,0.35412 4.40049,0.3538 4.61603,-4.1e-4 0.10987,-0.18053 0.94877,-0.2207 2.18068,-0.10442 1.4185,0.13388 2.00212,0.0914 2.00212,-0.14609 0,-0.19441 -0.47449,-0.33505 -1.13035,-0.33505 -1.29428,0 -2.10376,-0.24909 -1.89962,-0.58456 0.0771,-0.12658 -0.31133,-0.31616 -0.86302,-0.42126 -1.07816,-0.20543 -1.23079,-0.77847 -0.29006,-1.08913 0.31734,-0.1048 1.4857,-0.225 2.59638,-0.26711 l 2.0194,-0.0767 -2.16365,-0.20732 c -1.19,-0.11402 -3.46183,-0.22692 -5.0485,-0.25088 -2.5796,-0.0389 -8.50335,-1.10021 -9.00929,-1.61403 -0.0861,-0.0874 1.58127,-0.14271 3.70519,-0.12292 2.8302,0.0264 4.38435,-0.1006 5.81852,-0.47538 1.65159,-0.43157 2.1806,-0.45682 3.39119,-0.16188 0.82928,0.20204 2.31602,0.28198 3.52439,0.18951 1.33755,-0.10236 1.77844,-0.0728 1.22457,0.0822 -0.47599,0.13321 -1.55506,0.2578 -2.39791,0.27687 -0.84286,0.0191 -2.19452,0.25459 -3.00369,0.52339 -1.87439,0.62263 -1.46943,0.79765 2.97926,1.2876 1.80829,0.19915 3.9369,0.45569 4.73023,0.57008 l 1.44243,0.20797 -1.87515,0.0506 c -1.62581,0.0438 -1.80803,0.10236 -1.37031,0.43978 0.27766,0.21407 0.50485,0.53697 0.50485,0.71757 0,0.18059 0.32454,0.41107 0.72122,0.51219 0.70735,0.1803 1.01693,0.70629 0.41569,0.70629 -0.16802,0 -0.22527,0.13184 -0.12721,0.29298 0.098,0.16114 -0.0931,0.29298 -0.42475,0.29298 -0.33168,0 -0.67778,0.19777 -0.76911,0.43949 -0.0913,0.24171 -0.45734,0.43948 -0.81336,0.43948 -0.75006,0 -2.44898,0.54451 -2.95825,0.94814 -0.19233,0.15243 -0.97124,0.31298 -1.73092,0.35677 -0.75967,0.0438 -2.14408,0.24236 -3.07647,0.44127 l -1.69524,0.36164 0.78148,0.52064 c 0.42981,0.28635 0.7631,0.63612 0.74065,0.77725 -0.0742,0.46624 1.25349,0.61831 4.17625,0.47836 2.28705,-0.10951 3.06421,-0.0409 3.75031,0.33098 0.84322,0.45706 0.78991,0.46917 -2.07361,0.47093 -2.53325,8.8e-4 -5.58562,0.45503 -7.1398,1.06073 -0.24798,0.0967 -0.45087,0.42529 -0.45087,0.73033 0,0.3425 -0.20229,0.55464 -0.52889,0.55464 -0.86239,0 -0.93885,0.33491 -0.20948,0.9176 0.99498,0.79485 0.67924,1.60713 -0.71255,1.83316 -1.56072,0.25347 -1.6878,0.71692 -0.26018,0.94877 l 1.20091,0.19503 -1.25946,0.42482 c -1.37654,0.46432 -2.06962,0.94662 -1.38927,0.96676 0.23007,0.007 -0.36061,0.34293 -1.31261,0.74691 -1.14856,0.48741 -2.65298,0.81759 -4.47153,0.98137 -2.70713,0.24383 -5.69758,1.11122 -4.0175,1.1653 0.40839,0.0131 2.06873,-0.17749 3.68964,-0.42364 1.85399,-0.28153 3.12134,-0.34851 3.41682,-0.18058 0.38367,0.21808 0.30961,0.30268 -0.40432,0.46193 -0.70866,0.15809 -1.5307,1.09521 -1.5307,1.74503 0,0.0475 0.51382,0.24268 1.14183,0.43377 0.62801,0.19109 1.21986,0.47564 1.31522,0.63234 0.15049,0.2473 -1.07756,0.42705 -2.431,0.35582 -0.22367,-0.0117 -2.63894,-0.10631 -5.36727,-0.21009 -4.5816,-0.17428 -5.04645,-0.14447 -6.08426,0.39017 -0.61802,0.31837 -1.93527,0.66881 -2.92722,0.77874 -2.1749,0.24103 -2.56593,0.64415 -0.88902,0.91648 1.62577,0.26402 0.75575,0.64122 -1.54557,0.67008 -0.90297,0.0113 -1.71623,0.14294 -1.80722,0.29249 -0.2778,0.4565 0.97298,0.67761 2.63799,0.46634 1.235,-0.15671 1.68794,-0.1 2.08038,0.26074 0.66667,0.61274 3.06684,1.05193 5.7488,1.05193 1.97029,0 2.12567,0.0408 1.61942,0.42557 -0.53434,0.40609 -0.51764,0.43449 0.36471,0.61999 0.78749,0.16555 0.86547,0.25457 0.52546,0.59987 -0.21959,0.22301 -0.51848,0.40547 -0.6642,0.40547 -0.14572,0 -0.56431,0.26369 -0.9302,0.58597 -0.36589,0.3223 -0.89737,0.58599 -1.18106,0.58599 -0.63309,0 -0.97717,0.48412 -0.47953,0.67473 0.19932,0.0763 -0.15688,0.36442 -0.79154,0.64017 -1.1871,0.51576 -2.16365,1.24975 -2.16365,1.6262 0,0.11738 0.2921,0.31037 0.6491,0.42889 0.51549,0.17113 0.30766,0.27546 -1.00971,0.5069 -0.91234,0.16029 -1.65879,0.4083 -1.65879,0.55116 0,0.14285 0.19472,0.25972 0.43273,0.25972 0.55937,0 0.56316,0.76544 0.005,0.98303 -0.52819,0.20583 -0.27252,0.98813 0.3803,1.16371 0.32287,0.0869 0.26196,0.14033 -0.18583,0.16317 -0.36637,0.0187 -0.58574,0.16608 -0.4875,0.32752 0.19945,0.32776 -1.21931,0.97198 -1.71507,0.77877 -0.17437,-0.068 -1.46094,-0.0176 -2.85901,0.11174 -1.94554,0.18009 -2.63356,0.36095 -2.93229,0.77083 -0.33096,0.45406 -0.32269,0.64138 0.0543,1.23158 0.36973,0.57882 0.37876,0.73849 0.0536,0.94773 -0.21507,0.13841 -0.61821,0.25367 -0.89588,0.25614 -0.27767,0.002 -0.50485,0.13633 -0.50485,0.29747 0,0.16114 -0.42191,0.29699 -0.93758,0.30189 -1.25944,0.0119 -0.50433,0.44041 1.22606,0.69565 1.76786,0.26077 2.12173,0.50626 1.65812,1.15018 -0.26827,0.3726 -0.93196,0.53793 -2.57857,0.64233 -2.42062,0.15346 -3.83131,0.55829 -3.55095,1.01899 0.31376,0.51559 2.54639,1.40275 4.03868,1.60481 0.79333,0.1074 1.83188,0.34782 2.30787,0.53424 l 0.86547,0.33894 -1.15395,0.21824 c -0.63467,0.12003 -1.67321,0.29781 -2.30789,0.39503 -2.11595,0.32419 -3.31758,0.73592 -3.31758,1.13678 0,0.21826 0.22718,0.49006 0.50485,0.60402 0.45019,0.18475 0.43556,0.23433 -0.13507,0.45793 -0.67436,0.26426 -1.64245,2.1883 -1.34609,2.67531 0.0956,0.15708 0.55846,0.52317 1.02858,0.81353 l 0.85479,0.52794 -1.48138,0.36092 c -1.05715,0.25757 -1.43748,0.47715 -1.32805,0.76676 0.0868,0.22977 -0.0266,0.40583 -0.26129,0.40583 -0.25003,0 -0.3487,0.17446 -0.24857,0.43948 0.11034,0.29202 -0.0137,0.44259 -0.36965,0.44874 -0.44328,0.007 -0.38833,0.14081 0.31847,0.77159 1.10362,0.98491 1.15078,1.46667 0.20345,2.07835 -0.42303,0.27314 -0.83407,0.58198 -0.91341,0.68632 -0.0793,0.10433 -0.56466,0.28232 -1.07851,0.39553 -1.15185,0.25378 -1.43214,0.64188 -0.64648,0.89514 0.57291,0.18468 0.56847,0.20881 -0.1428,0.77703 -0.91255,0.72901 -0.75037,1.01585 0.84074,1.48704 0.68886,0.204 1.26467,0.49763 1.27961,0.65254 0.0211,0.21836 -1.49366,0.26599 -2.56043,0.0804 -0.17861,-0.031 -3.07582,0.28532 -7.72298,0.84334 -1.94696,0.2338 -3.8696,0.55237 -4.27253,0.70795 -0.7527,0.29064 -0.71449,0.86996 0.0573,0.86996 0.238,0 0.3525,0.13185 0.25444,0.29298 -0.098,0.16114 -0.49518,0.29299 -0.88248,0.29299 -0.38731,0 -0.70419,0.11653 -0.70419,0.25896 0,0.26659 2.45133,1.34118 3.77383,1.65434 0.40961,0.097 1.0641,0.4771 1.45443,0.84467 0.39032,0.36758 1.09339,0.79822 1.56238,0.95699 l 0.8527,0.28867 -0.6638,0.3608 -0.66379,0.36079 0.66456,0.52906 c 0.3655,0.291 1.0876,0.62291 1.60466,0.7376 1.65384,0.36682 0.717,0.70627 -1.98515,0.71927 -2.96243,0.0142 -4.65095,0.26058 -4.41739,0.64439 0.0869,0.14278 -0.20634,0.41871 -0.65161,0.61317 -0.44529,0.19446 -0.84374,0.37252 -0.88548,0.39571 -0.0417,0.0231 0.3779,0.5308 0.93252,1.12803 0.55462,0.59724 0.97822,1.21787 0.94133,1.37919 -0.10944,0.47863 3.11661,1.72155 4.98246,1.91962 0.95144,0.101 1.72989,0.29668 1.72989,0.43487 0,0.13819 -0.24575,0.25124 -0.5461,0.25124 -0.30036,0 -0.61379,0.17912 -0.6965,0.39803 -0.0827,0.21891 -0.68661,0.4851 -1.34201,0.59154 -0.93377,0.15164 -1.31216,0.39836 -1.74869,1.14016 -0.49009,0.83285 -1.62941,1.56626 -3.23458,2.08219 -0.31602,0.10153 -0.43492,0.33292 -0.32314,0.62875 0.12002,0.31765 -0.0195,0.52021 -0.43435,0.63038 -0.84042,0.2232 -0.47975,0.68168 0.53626,0.68168 0.45727,0 0.90238,0.11663 0.98912,0.25918 0.0868,0.14254 0.77596,0.35763 1.53158,0.47795 0.75562,0.12032 1.17913,0.28444 0.94113,0.3647 -0.23799,0.0803 -0.952,0.37641 -1.58667,0.6581 -0.63467,0.28168 -1.75564,0.60003 -2.49103,0.70744 -1.58972,0.23219 -2.53116,1.04874 -1.86068,1.61385 0.23256,0.19603 0.35149,0.54526 0.2643,0.77607 -0.19711,0.52167 1.08362,1.09435 3.9047,1.746 1.13183,0.26144 2.05787,0.58166 2.05787,0.71159 0,0.12993 -0.60079,0.32774 -1.33507,0.43956 -0.73429,0.11183 -1.50501,0.26956 -1.71271,0.3505 -0.58792,0.22913 -0.16786,0.90485 0.68864,1.10778 1.25644,0.2977 2.35914,0.80127 2.35914,1.07736 0,0.14159 -0.94119,0.2667 -2.09153,0.27803 -1.15033,0.0113 -2.31865,0.11191 -2.59625,0.22353 -0.44733,0.17986 -0.41886,0.26917 0.25023,0.78513 0.41526,0.32019 1.15982,0.72515 1.65462,0.8999 l 0.89962,0.31774 -1.23557,0.20066 c -1.42251,0.23101 -1.36385,0.66417 0.12844,0.94849 0.67514,0.12863 0.90093,0.2757 0.65768,0.42839 -0.2494,0.15654 -0.0466,0.31913 0.62055,0.49757 0.94682,0.25326 0.8966,0.27948 -1.12639,0.58833 -1.2412,0.18949 -2.2559,0.50846 -2.45213,0.77083 -0.18411,0.24616 -1.14709,0.57765 -2.13996,0.73662 -2.81099,0.4501 -3.12769,1.00582 -0.7772,1.36379 1.01617,0.15477 1.2315,0.28002 0.98982,0.57578 -0.34136,0.41773 0.40689,0.74118 3.03502,1.31192 0.79334,0.17229 1.99274,0.57223 2.66535,0.88873 0.6726,0.31652 1.38661,0.57598 1.58667,0.57658 0.20006,5.9e-4 -0.0581,0.26235 -0.57383,0.58167 -0.52067,0.3224 -0.93758,0.82463 -0.93758,1.1294 0,0.45851 -0.36795,0.60763 -2.23575,0.90612 -1.22968,0.19651 -2.55902,0.49044 -2.95411,0.65318 -0.69664,0.28695 -0.70151,0.30839 -0.16123,0.70961 0.30642,0.22755 0.8893,0.42215 1.2953,0.43246 0.71565,0.0182 0.70958,0.0332 -0.19937,0.49264 -1.01321,0.51213 -1.25966,1.24654 -0.41831,1.24654 0.2856,0 0.64261,0.12193 0.79334,0.27097 0.22975,0.22715 4.05342,0.90098 5.11265,0.90098 0.62299,0 -0.24551,0.59574 -1.66796,1.14412 l -1.39702,0.53858 1.06047,0.38945 c 1.19176,0.43767 1.33273,0.73047 0.48351,1.00421 -0.31734,0.10225 -0.57697,0.36439 -0.57697,0.58244 0,0.21805 -0.39862,0.48537 -0.88581,0.59404 -0.56942,0.12702 -0.83353,0.33597 -0.73943,0.58501 0.18568,0.49143 -0.40767,0.72254 -1.9323,0.75261 l -1.20248,0.0237 1.15395,0.55458 c 0.97583,0.46897 1.04486,0.55575 0.44715,0.56225 -1.22453,0.0133 -0.27248,0.50642 2.14922,1.11317 1.26933,0.31803 2.11315,0.6453 1.87515,0.72728 -0.88282,0.30407 -2.78725,0.76911 -4.32728,1.05668 -1.5559,0.29052 -3.10715,0.63344 -5.84184,1.29139 -1.44231,0.347 -1.76041,0.75119 -0.79334,1.00803 0.31733,0.0843 0.57697,0.26326 0.57697,0.39775 0,0.13448 1.04017,0.47152 2.31149,0.74897 1.98199,0.43257 2.28808,0.57938 2.14725,1.02999 -0.11905,0.38094 0.0189,0.56671 0.50126,0.67518 0.59294,0.13333 4.96503,0.74884 5.31915,0.74884 0.0772,0 0.0642,0.12518 -0.0289,0.27818 -0.0931,0.153 0.31655,0.37075 0.91034,0.48388 1.06213,0.20236 1.06926,0.21268 0.44074,0.63651 -0.89898,0.60622 -0.79803,0.88845 0.39935,1.11659 1.35667,0.25847 0.73844,0.68947 -1.03822,0.7238 -0.714,0.0138 -1.55783,0.13393 -1.87517,0.26697 -0.52034,0.21814 -0.47854,0.28528 0.42588,0.68398 l 1.00284,0.44209 -1.43557,0.21498 c -2.47864,0.37119 -2.77485,0.67715 -0.71436,0.73789 l 1.87516,0.0552 -2.29449,0.44361 c -1.67703,0.32422 -2.32398,0.35377 -2.40405,0.1098 -0.14488,-0.44141 -2.52565,-0.39066 -3.8118,0.0813 l -1.0097,0.37047 1.1145,0.21271 c 0.61297,0.11698 1.36591,0.45061 1.67322,0.74135 0.5361,0.50725 2.28874,0.89728 4.03197,0.89728 0.78101,0 1.22847,0.57437 0.46459,0.59636 -0.19834,0.005 -0.0361,0.19881 0.3606,0.4291 l 0.72121,0.41872 -0.86545,0.0286 c -0.47601,0.0157 -2.11881,0.0131 -3.65066,-0.006 -2.4579,-0.0303 -2.83158,0.0328 -3.17976,0.53772 -0.21702,0.31466 -0.94341,0.86264 -1.61421,1.21773 -0.67081,0.3551 -1.21966,0.69361 -1.21966,0.75224 0,0.21721 1.33429,0.82147 2.59474,1.17509 1.20386,0.33774 0.87864,0.50719 -0.43109,0.2246 z m -6.130323,-8.2052 c -0.198337,-0.0813 -0.522884,-0.0813 -0.721221,0 -0.198325,0.0812 -0.03608,0.14778 0.360611,0.14778 0.396672,0 0.558946,-0.0665 0.36061,-0.14778 z m 14.207933,-20.63733 c 0.15868,-0.043 -0.75005,-0.15285 -2.0194,-0.24415 -1.26934,-0.0914 -2.56752,-0.10007 -2.88485,-0.0195 -0.31735,0.0805 0.33175,0.21241 1.44242,0.29299 1.95374,0.14173 2.85867,0.13407 3.46183,-0.0293 z m 2.08616,-66.80104 c 0.53521,-0.20363 0.61405,-0.39553 0.46774,-1.13846 -0.15254,-0.77461 -0.10676,-0.86658 0.34395,-0.69093 0.4271,0.16644 0.40798,0.089 -0.10715,-0.43422 -0.34488,-0.35026 -0.62705,-0.7598 -0.62705,-0.91008 0,-0.15028 -0.26648,-0.35914 -0.59216,-0.46412 -0.50001,-0.16117 -0.53398,-0.26207 -0.21836,-0.64831 0.31244,-0.38234 0.28715,-0.51056 -0.15405,-0.78107 -1.42281,-0.87238 -1.44531,-0.91068 -0.87509,-1.48979 0.29272,-0.29729 0.54173,-0.6839 0.55334,-0.85913 0.033,-0.49844 0.49475,-1.47129 0.79566,-1.67647 0.14996,-0.10225 1.31436,-0.11656 2.58755,-0.0318 1.63224,0.10865 2.25752,0.0598 2.12038,-0.16552 -0.12183,-0.20021 0.21269,-0.38719 0.89534,-0.50043 2.02748,-0.33637 1.96308,-0.39937 -0.24458,-0.2393 -2.42371,0.17575 -3.43032,-0.29948 -1.33531,-0.6304 2.04415,-0.32289 2.30864,-0.44282 1.94851,-0.88352 -0.24597,-0.30101 -0.17073,-0.43795 0.32919,-0.5991 0.6061,-0.19537 0.57632,-0.24627 -0.46015,-0.78631 -0.84143,-0.4384 -1.01115,-0.63984 -0.70499,-0.83671 0.31255,-0.20098 0.27348,-0.26131 -0.17375,-0.26827 -0.31733,-0.005 -0.76381,-0.12904 -0.99216,-0.27578 -0.32278,-0.20742 -0.18154,-0.37996 0.6346,-0.77522 l 1.04979,-0.50842 -0.6346,-0.68016 c -0.34903,-0.37409 -0.79688,-0.68244 -0.99521,-0.68522 -0.19834,-0.004 -0.36061,-0.11719 -0.36061,-0.25424 0,-0.23848 6.55179,-0.76728 8.65458,-0.6985 0.88858,0.029 0.94048,-0.006 0.43273,-0.29409 -0.31733,-0.17992 -0.70678,-0.48696 -0.86546,-0.6823 -0.15867,-0.19534 -0.75425,-0.50473 -1.32352,-0.68752 -0.90527,-0.29069 -1.02858,-0.44252 -0.98356,-1.21109 0.0283,-0.48329 0.29771,-1.06157 0.59867,-1.28507 0.59714,-0.44345 0.8047,-0.36919 -2.47463,-0.88535 -0.55534,-0.0874 -2.24298,-0.3543 -3.75032,-0.59306 -3.44523,-0.54574 -3.77145,-0.54936 -3.57887,-0.0397 0.10927,0.28921 -0.26666,0.50816 -1.30812,0.7619 -0.80382,0.19584 -1.53365,0.47468 -1.62186,0.61962 -0.0882,0.14496 -0.46961,0.26355 -0.84754,0.26355 -1.00245,0 -1.1693,0.54011 -0.22816,0.73859 2.56158,0.54018 2.6194,0.61331 0.66089,0.83565 -1.30612,0.14828 -2.40044,0.0829 -3.60607,-0.21512 -2.03336,-0.5028 -3.83184,-1.40377 -3.68642,-1.84681 0.17139,-0.5222 -2.23208,-0.62796 -8.661718,-0.38116 -3.362877,0.12909 -6.168557,0.17963 -6.234857,0.1123 -0.06634,-0.0674 0.04477,-0.12241 0.246901,-0.12241 0.208089,0 0.295425,-0.19059 0.201383,-0.43948 -0.122336,-0.32376 0.03905,-0.43948 0.612653,-0.43948 0.815303,0 3.81896,-1.1483 3.81896,-1.45999 0,-0.56565 -2.312317,-0.8839 -6.422275,-0.8839 -4.242099,0 -5.887751,0.30485 -4.102345,0.75996 l 0.749933,0.19115 -0.596778,0.64514 c -0.463012,0.50055 -0.554223,0.86119 -0.406935,1.6091 0.248536,1.2621 1.859628,2.04466 4.287464,2.08256 3.104231,0.0485 3.534606,0.83236 0.721219,1.31361 l -1.298187,0.22205 0.916868,0.3238 c 1.332032,0.4704 1.409095,0.6823 0.329821,0.90694 -2.226964,0.4635 -3.1442,0.83927 -2.989572,1.22478 0.08586,0.2142 0.235003,0.58723 0.331313,0.82894 0.121713,0.30549 -0.0051,0.43949 -0.415705,0.43949 -0.324946,0 -0.671041,0.13184 -0.7691,0.29298 -0.09803,0.16115 -0.03312,0.29299 0.144241,0.29299 0.177393,0 0.233327,0.14658 0.12431,0.32575 -0.109027,0.17916 -0.03833,0.42607 0.156999,0.54871 0.278364,0.17473 0.280133,0.36547 0.0082,0.88155 -0.190884,0.36223 -0.219046,0.57825 -0.06256,0.48004 0.156456,-0.0982 0.345204,0.0573 0.419436,0.34561 0.169286,0.65748 2.613313,1.15035 7.034796,1.41866 1.725394,0.10471 3.201995,0.27736 3.281338,0.38369 0.07932,0.10631 0.598607,0.33654 1.153935,0.51161 0.936443,0.29522 0.953381,0.32049 0.233398,0.34822 -0.94874,0.0365 -1.281005,0.48324 -0.633301,0.85137 0.433676,0.24649 0.422606,0.32744 -0.120149,0.87866 -0.405668,0.41199 -0.487709,0.65629 -0.255252,0.76002 0.188421,0.0841 -0.176697,0.10757 -0.811368,0.0522 -0.63467,-0.0553 -1.67322,8.7e-4 -2.30789,0.12473 -0.634661,0.12398 -0.991662,0.24057 -0.793336,0.2591 0.72307,0.0676 0.336834,0.84424 -0.504852,1.0152 -1.260887,0.25611 -1.063533,0.6625 0.593088,1.22133 1.318201,0.44466 1.408461,0.5292 0.938038,0.87855 -0.286287,0.2126 -0.448847,0.45933 -0.361255,0.54829 0.0876,0.089 1.339617,0.38835 2.782292,0.66534 2.072469,0.39789 2.58877,0.5943 2.459759,0.93573 -0.100891,0.26695 -0.04191,0.35593 0.1543,0.23279 0.174673,-0.10964 0.399126,-0.0653 0.49878,0.0984 0.09966,0.16378 0.814189,0.29777 1.587827,0.29777 0.773643,0 1.772083,0.1504 2.218743,0.33422 0.46595,0.19175 2.10327,0.3102 3.84123,0.27788 2.36029,-0.0439 3.15648,0.044 3.60607,0.3982 0.45002,0.35451 0.98954,0.41379 2.45212,0.26934 1.03135,-0.10184 2.16483,-0.29541 2.51888,-0.43009 z M 96.008088,147.70083 c 0.280695,-0.0743 0.670152,-0.0693 0.865462,0.0109 0.195311,0.0803 -0.03434,0.14104 -0.510341,0.13507 -0.476005,-0.006 -0.635805,-0.0716 -0.355121,-0.14592 z m 30.766352,-10.7464 c -0.0662,-0.0599 -0.7507,-0.20197 -1.52131,-0.31565 -0.97324,-0.14356 -1.34246,-0.11027 -1.20904,0.10897 0.10564,0.17359 0.79023,0.31563 1.52131,0.31563 0.73108,0 1.27515,-0.049 1.20904,-0.10895 z m 28.91151,-16.53189 c -0.3753,-0.06 -0.8013,0.0117 -0.94665,0.15939 -0.16005,0.16254 0.10908,0.20554 0.68236,0.10901 0.80111,-0.13488 0.84174,-0.17614 0.26429,-0.2684 z m -112.897729,0.0175 c -0.906115,-0.058 -2.46394,-0.0584 -3.461827,-8.8e-4 -0.997898,0.0574 -0.256519,0.10479 1.647482,0.10538 1.904011,5.8e-4 2.720469,-0.0464 1.814345,-0.10433 z M 161.84955,119.1692 c 0.43674,-0.177 0.29651,-0.23755 -0.57697,-0.24917 -1.78897,-0.0237 -3.4311,0.31003 -2.97923,0.60564 0.40067,0.26211 2.56517,0.0452 3.5562,-0.35647 z M 93.189867,221.73653 c -0.09803,-0.16115 0.0967,-0.29299 0.432725,-0.29299 0.336068,0 0.530795,0.13184 0.432726,0.29299 -0.09803,0.16114 -0.292787,0.29298 -0.432726,0.29298 -0.139938,0 -0.334667,-0.13184 -0.432725,-0.29298 z m -0.91233,-12.93124 c -0.35139,-0.14051 -0.11101,-0.21892 0.712991,-0.23257 0.703771,-0.0116 1.170659,0.0984 1.076136,0.25375 -0.187255,0.30771 -0.990434,0.2982 -1.789127,-0.0212 z M 154.6374,142.33716 c -0.098,-0.16115 0.0318,-0.29298 0.28848,-0.29298 0.25673,0 0.38654,0.13183 0.28849,0.29298 -0.098,0.16115 -0.22789,0.29299 -0.28849,0.29299 -0.0606,0 -0.19043,-0.13184 -0.28848,-0.29299 z m -49.31197,-8.17367 c -0.67859,-0.26988 -0.34838,-0.52575 1.3927,-1.07918 l 1.18453,-0.37651 -1.44244,-0.0401 c -1.89141,-0.0528 -3.10841,-0.53267 -1.44242,-0.56888 0.85589,-0.0186 1.04217,-0.0984 0.7212,-0.30909 -0.30494,-0.20013 0.0998,-0.28534 1.37032,-0.2885 1.01264,-0.004 1.80303,0.12395 1.80303,0.2885 0,0.16115 -0.22717,0.295 -0.50484,0.29747 -0.39511,0.004 -0.41936,0.0595 -0.11161,0.25753 0.33201,0.21363 0.33201,0.27777 0,0.41186 -0.21628,0.0873 -0.0439,0.16923 0.38306,0.18195 1.16447,0.0347 1.2156,0.48608 0.11513,1.01644 -1.02581,0.49437 -2.52363,0.58444 -3.46866,0.20859 z m 6.32343,-1.82306 c 0.31506,-0.20031 1.09396,-0.35221 1.7309,-0.33753 1.11563,0.0257 1.12636,0.0172 0.29261,-0.22981 -0.66493,-0.19706 -0.49782,-0.22544 0.72122,-0.12251 0.87266,0.0738 2.43049,0.13912 3.46183,0.14544 1.44518,0.008 1.75643,0.0816 1.35734,0.31745 -0.28479,0.16829 -2.23206,0.37015 -4.32728,0.44859 -3.1106,0.11642 -3.70439,0.0758 -3.23662,-0.22163 z m 11.90415,-3.10145 c 0.357,-0.0699 0.94119,-0.0699 1.29819,0 0.35701,0.0699 0.0649,0.12698 -0.64909,0.12698 -0.714,0 -1.0061,-0.0571 -0.6491,-0.12698 z M 33.905971,116.86776 c -3.319517,-0.25615 -1.436093,-0.60148 3.173342,-0.58184 4.172896,0.0177 5.924406,0.31397 3.882081,0.65649 -1.250358,0.20969 -3.707459,0.18369 -7.055423,-0.0746 z m 143.089099,-1.77837 c -0.52735,-0.34613 -0.0719,-0.34613 0.72122,0 0.38043,0.16603 0.42957,0.25727 0.14424,0.26789 -0.23801,0.009 -0.62747,-0.11169 -0.86546,-0.26789 z M 40.396908,113.62446 c -0.406813,-0.17754 -0.06655,-0.25181 1.153945,-0.25181 0.952001,0 1.990551,0.1133 2.307892,0.25181 0.406812,0.17752 0.06654,0.25179 -1.153946,0.25179 -0.952011,0 -1.990561,-0.1133 -2.307891,-0.25179 z m 136.167472,-0.87561 c -0.1011,-0.16608 0.0147,-0.21519 0.27146,-0.11514 0.49979,0.19476 0.59122,0.40477 0.17626,0.40477 -0.14932,0 -0.35078,-0.13033 -0.44772,-0.28963 z m -4.23918,-1.08245 c 0.20824,-0.0846 0.45706,-0.0742 0.55292,0.0231 0.0959,0.0974 -0.0745,0.16661 -0.37863,0.15388 -0.33607,-0.014 -0.40442,-0.0834 -0.17429,-0.17701 z"
         style="fill:#22295c;fill-opacity:1;stroke-width:1.82608342" />
    </g>
  </g>
  <g
     inkscape:groupmode="layer"
     id="layer2"
     inkscape:label="tx">
    <g
       transform="matrix(1.3055304,0,0,1.3023969,-293.0562,-45.221205)"
       style="enable-background:new;display:inline;stroke-width:0.76689315;fill-opacity:1;fill:url(#linearGradient4604)"
       id="g7884">
      <text
         transform="matrix(0.26458333,0,0,0.26458333,338.57005,67.720678)"
         id="text9676-2-3-0-2-2"
         y="63.522415"
         x="160.86951"
         style="font-style:normal;font-weight:normal;font-size:40px;line-height:24px;font-family:sans-serif;letter-spacing:0px;word-spacing:0px;display:inline;opacity:1;fill:url(#linearGradient4610);fill-opacity:1;stroke:none;stroke-width:0.76689309px;stroke-linecap:butt;stroke-linejoin:miter;stroke-opacity:1;enable-background:new"
         xml:space="preserve"><tspan
           style="font-style:normal;font-variant:normal;font-weight:normal;font-stretch:normal;font-size:40px;line-height:100%;font-family:Rubik;-inkscape-font-specification:Rubik;font-variant-ligatures:normal;font-variant-caps:normal;font-variant-numeric:normal;font-feature-settings:normal;text-align:end;writing-mode:lr-tb;text-anchor:end;fill:url(#linearGradient4610);fill-opacity:1;stroke-width:0.76689309px"
           y="63.522415"
           x="160.86951"
           id="tspan9674-3-6-8-3-2"
           sodipodi:role="line">KEDVES</tspan><tspan style="font-style:normal;font-variant:normal;font-weight:normal;font-stretch:normal;font-size:40px;line-height:100%;font-family:Rubik;-inkscape-font-specification:Rubik;font-variant-ligatures:normal;font-variant-caps:normal;font-variant-numeric:normal;font-feature-settings:normal;text-align:end;writing-mode:lr-tb;text-anchor:end;fill:url(#linearGradient4610);fill-opacity:1;stroke-width:0.76689309px" y="103.52242" x="160.86951" sodipodi:role="line" id="tspan8361">IBI!</tspan></text>
      <text
         transform="matrix(0.26458333,0,0,0.26458333,338.57005,67.720678)"
         id="text9676-6-7-4-0-7-3"
         y="342.28732"
         x="160.88889"
         style="font-style:normal;font-weight:normal;font-size:40px;line-height:24px;font-family:sans-serif;letter-spacing:0px;word-spacing:0px;display:inline;opacity:1;fill:url(#linearGradient4612);fill-opacity:1;stroke:none;stroke-width:0.76689309px;stroke-linecap:butt;stroke-linejoin:miter;stroke-opacity:1;enable-background:new"
         xml:space="preserve"><tspan
           id="tspan9680-7-0-5-2-5-4"
           style="font-style:normal;font-variant:normal;font-weight:normal;font-stretch:normal;font-size:40px;line-height:100%;font-family:Rubik;-inkscape-font-specification:Rubik;font-variant-ligatures:normal;font-variant-caps:normal;font-variant-numeric:normal;font-feature-settings:normal;text-align:end;writing-mode:lr-tb;text-anchor:end;fill:url(#linearGradient4612);fill-opacity:1;stroke-width:0.76689309px"
           y="342.28732"
           x="160.88889"
           sodipodi:role="line">DALMI</tspan><tspan
           id="tspan4636-9-8-7-0-2"
           style="font-style:normal;font-variant:normal;font-weight:normal;font-stretch:normal;font-size:40px;line-height:100%;font-family:Rubik;-inkscape-font-specification:Rubik;font-variant-ligatures:normal;font-variant-caps:normal;font-variant-numeric:normal;font-feature-settings:normal;text-align:end;writing-mode:lr-tb;text-anchor:end;fill:url(#linearGradient4612);fill-opacity:1;stroke-width:0.76689309px"
           y="382.28732"
           x="160.88889"
           sodipodi:role="line">&amp;TOMI</tspan></text>
      <text
         id="text4855-7-6-4-2"
         y="79.587044"
         x="386.58752"
         style="font-style:normal;font-weight:normal;font-size:9.30489445px;line-height:60.00000238%;font-family:sans-serif;letter-spacing:0px;word-spacing:0px;display:inline;opacity:1;fill:url(#linearGradient4604);fill-opacity:1;stroke:none;stroke-width:0.20290713px;stroke-linecap:butt;stroke-linejoin:miter;stroke-opacity:1;enable-background:new"
         xml:space="preserve"><tspan
           id="tspan4883-3-8-7-7"
           style="font-style:normal;font-variant:normal;font-weight:normal;font-stretch:normal;font-size:4.03212118px;line-height:60.00000238%;font-family:'EB Garamond SC';-inkscape-font-specification:'EB Garamond SC, Normal';font-variant-ligatures:normal;font-variant-caps:normal;font-variant-numeric:normal;font-feature-settings:normal;text-align:start;writing-mode:lr-tb;text-anchor:start;fill:url(#linearGradient4604);fill-opacity:1;stroke-width:0.20290713px"
           y="79.587044"
           x="386.58752"
           sodipodi:role="line">A legnagyobb örömmel</tspan><tspan
           style="font-style:normal;font-variant:normal;font-weight:normal;font-stretch:normal;font-size:4.03212118px;line-height:60.00000238%;font-family:'EB Garamond SC';-inkscape-font-specification:'EB Garamond SC, Normal';font-variant-ligatures:normal;font-variant-caps:normal;font-variant-numeric:normal;font-feature-settings:normal;text-align:start;writing-mode:lr-tb;text-anchor:start;fill:url(#linearGradient4604);fill-opacity:1;stroke-width:0.20290713px"
           y="85.169983"
           x="386.58752"
           sodipodi:role="line"
           id="tspan8214">értesítünk titeket, hogy</tspan><tspan
           style="font-style:normal;font-variant:normal;font-weight:normal;font-stretch:normal;font-size:4.03212118px;line-height:60.00000238%;font-family:'EB Garamond SC';-inkscape-font-specification:'EB Garamond SC, Normal';font-variant-ligatures:normal;font-variant-caps:normal;font-variant-numeric:normal;font-feature-settings:normal;text-align:start;writing-mode:lr-tb;text-anchor:start;fill:url(#linearGradient4604);fill-opacity:1;stroke-width:0.20290713px"
           y="90.752914"
           x="386.58752"
           sodipodi:role="line"
           id="tspan8216">1359 közösen eltöltött</tspan><tspan
           style="font-style:normal;font-variant:normal;font-weight:normal;font-stretch:normal;font-size:4.03212118px;line-height:60.00000238%;font-family:'EB Garamond SC';-inkscape-font-specification:'EB Garamond SC, Normal';font-variant-ligatures:normal;font-variant-caps:normal;font-variant-numeric:normal;font-feature-settings:normal;text-align:start;writing-mode:lr-tb;text-anchor:start;fill:url(#linearGradient4604);fill-opacity:1;stroke-width:0.20290713px"
           y="96.335854"
           x="386.58752"
           sodipodi:role="line"
           id="tspan8218">gyönyörű nap után,</tspan><tspan
           style="font-style:normal;font-variant:normal;font-weight:normal;font-stretch:normal;font-size:4.03212118px;line-height:60.00000238%;font-family:'EB Garamond SC';-inkscape-font-specification:'EB Garamond SC, Normal';font-variant-ligatures:normal;font-variant-caps:normal;font-variant-numeric:normal;font-feature-settings:normal;text-align:start;writing-mode:lr-tb;text-anchor:start;fill:url(#linearGradient4604);fill-opacity:1;stroke-width:0.20290713px"
           y="101.91879"
           x="386.58752"
           sodipodi:role="line"
           id="tspan8220">összekötjük életünket</tspan><tspan
           style="font-style:normal;font-variant:normal;font-weight:normal;font-stretch:normal;font-size:4.03212118px;line-height:60.00000238%;font-family:'EB Garamond SC';-inkscape-font-specification:'EB Garamond SC, Normal';font-variant-ligatures:normal;font-variant-caps:normal;font-variant-numeric:normal;font-feature-settings:normal;text-align:start;writing-mode:lr-tb;text-anchor:start;fill:url(#linearGradient4604);fill-opacity:1;stroke-width:0.20290713px"
           y="107.50173"
           x="386.58752"
           sodipodi:role="line"
           id="tspan8222">július 27-én Bournemouthban. </tspan><tspan
           style="font-style:normal;font-variant:normal;font-weight:normal;font-stretch:normal;font-size:4.03212118px;line-height:60.00000238%;font-family:'EB Garamond SC';-inkscape-font-specification:'EB Garamond SC, Normal';font-variant-ligatures:normal;font-variant-caps:normal;font-variant-numeric:normal;font-feature-settings:normal;text-align:start;writing-mode:lr-tb;text-anchor:start;fill:url(#linearGradient4604);fill-opacity:1;stroke-width:0.20290713px"
           y="113.08466"
           x="386.58752"
           sodipodi:role="line"
           id="tspan8224" /><tspan
           style="font-style:normal;font-variant:normal;font-weight:normal;font-stretch:normal;font-size:4.03212118px;line-height:60.00000238%;font-family:'EB Garamond SC';-inkscape-font-specification:'EB Garamond SC, Normal';font-variant-ligatures:normal;font-variant-caps:normal;font-variant-numeric:normal;font-feature-settings:normal;text-align:start;writing-mode:lr-tb;text-anchor:start;fill:url(#linearGradient4604);fill-opacity:1;stroke-width:0.20290713px"
           y="118.6676"
           x="386.58752"
           sodipodi:role="line"
           id="tspan8226">Szeretnénk ha velünk</tspan><tspan
           style="font-style:normal;font-variant:normal;font-weight:normal;font-stretch:normal;font-size:4.03212118px;line-height:60.00000238%;font-family:'EB Garamond SC';-inkscape-font-specification:'EB Garamond SC, Normal';font-variant-ligatures:normal;font-variant-caps:normal;font-variant-numeric:normal;font-feature-settings:normal;text-align:start;writing-mode:lr-tb;text-anchor:start;fill:url(#linearGradient4604);fill-opacity:1;stroke-width:0.20290713px"
           y="124.25054"
           x="386.58752"
           sodipodi:role="line"
           id="tspan8228">ünnepelnétek és együtt</tspan><tspan
           style="font-style:normal;font-variant:normal;font-weight:normal;font-stretch:normal;font-size:4.03212118px;line-height:60.00000238%;font-family:'EB Garamond SC';-inkscape-font-specification:'EB Garamond SC, Normal';font-variant-ligatures:normal;font-variant-caps:normal;font-variant-numeric:normal;font-feature-settings:normal;text-align:start;writing-mode:lr-tb;text-anchor:start;fill:url(#linearGradient4604);fill-opacity:1;stroke-width:0.20290713px"
           y="129.83348"
           x="386.58752"
           sodipodi:role="line"
           id="tspan8230">koccinthatnánk Budapesten. </tspan><tspan
           style="font-style:normal;font-variant:normal;font-weight:normal;font-stretch:normal;font-size:4.03212118px;line-height:60.00000238%;font-family:'EB Garamond SC';-inkscape-font-specification:'EB Garamond SC, Normal';font-variant-ligatures:normal;font-variant-caps:normal;font-variant-numeric:normal;font-feature-settings:normal;text-align:start;writing-mode:lr-tb;text-anchor:start;fill:url(#linearGradient4604);fill-opacity:1;stroke-width:0.20290713px"
           y="135.41641"
           x="386.58752"
           sodipodi:role="line"
           id="tspan8232">Szeretettel várunk</tspan><tspan
           style="font-style:normal;font-variant:normal;font-weight:normal;font-stretch:normal;font-size:4.03212118px;line-height:60.00000238%;font-family:'EB Garamond SC';-inkscape-font-specification:'EB Garamond SC, Normal';font-variant-ligatures:normal;font-variant-caps:normal;font-variant-numeric:normal;font-feature-settings:normal;text-align:start;writing-mode:lr-tb;text-anchor:start;fill:url(#linearGradient4604);fill-opacity:1;stroke-width:0.20290713px"
           y="140.99934"
           x="386.58752"
           sodipodi:role="line"
           id="tspan8234">2017. augusztus 20-án 14 órától,</tspan><tspan
           style="font-style:normal;font-variant:normal;font-weight:normal;font-stretch:normal;font-size:4.03212118px;line-height:60.00000238%;font-family:'EB Garamond SC';-inkscape-font-specification:'EB Garamond SC, Normal';font-variant-ligatures:normal;font-variant-caps:normal;font-variant-numeric:normal;font-feature-settings:normal;text-align:start;writing-mode:lr-tb;text-anchor:start;fill:url(#linearGradient4604);fill-opacity:1;stroke-width:0.20290713px"
           y="146.58229"
           x="386.58752"
           sodipodi:role="line"
           id="tspan8236">a III. Kerületi Rámhegy utca 7</tspan><tspan
           style="font-style:normal;font-variant:normal;font-weight:normal;font-stretch:normal;font-size:4.03212118px;line-height:60.00000238%;font-family:'EB Garamond SC';-inkscape-font-specification:'EB Garamond SC, Normal';font-variant-ligatures:normal;font-variant-caps:normal;font-variant-numeric:normal;font-feature-settings:normal;text-align:start;writing-mode:lr-tb;text-anchor:start;fill:url(#linearGradient4604);fill-opacity:1;stroke-width:0.20290713px"
           y="152.16522"
           x="386.58752"
           sodipodi:role="line"
           id="tspan8238">kertjében tartandó bulira! </tspan><tspan
           style="font-style:normal;font-variant:normal;font-weight:normal;font-stretch:normal;font-size:4.03212118px;line-height:60.00000238%;font-family:'EB Garamond SC';-inkscape-font-specification:'EB Garamond SC, Normal';font-variant-ligatures:normal;font-variant-caps:normal;font-variant-numeric:normal;font-feature-settings:normal;text-align:start;writing-mode:lr-tb;text-anchor:start;fill:url(#linearGradient4604);fill-opacity:1;stroke-width:0.20290713px"
           y="157.74815"
           x="386.58752"
           sodipodi:role="line"
           id="tspan8210" /><tspan
           style="font-style:normal;font-variant:normal;font-weight:normal;font-stretch:normal;font-size:4.03212118px;line-height:60.00000238%;font-family:'EB Garamond SC';-inkscape-font-specification:'EB Garamond SC, Normal';font-variant-ligatures:normal;font-variant-caps:normal;font-variant-numeric:normal;font-feature-settings:normal;text-align:start;writing-mode:lr-tb;text-anchor:start;fill:url(#linearGradient4604);fill-opacity:1;stroke-width:0.20290713px"
           y="163.3311"
           x="386.58752"
           sodipodi:role="line"
           id="tspan8267">Várjuk a visszajelzésed: </tspan><tspan
           style="font-style:normal;font-variant:normal;font-weight:normal;font-stretch:normal;font-size:4.03212118px;line-height:60.00000238%;font-family:'EB Garamond SC';-inkscape-font-specification:'EB Garamond SC, Normal';font-variant-ligatures:normal;font-variant-caps:normal;font-variant-numeric:normal;font-feature-settings:normal;text-align:start;writing-mode:lr-tb;text-anchor:start;fill:url(#linearGradient4604);fill-opacity:1;stroke-width:0.20290713px"
           y="168.91403"
           x="386.58752"
           sodipodi:role="line"
           id="tspan8271">dalmi.tomi.eskuvo@gmail.com!</tspan></text>
    </g>
  </g>
  <g
     inkscape:groupmode="layer"
     id="layer1"
     inkscape:label="mk"
     transform="translate(0,2)"
     sodipodi:insensitive="true">
    <rect
       style="opacity:1;fill:#ff0101;fill-opacity:1;fill-rule:evenodd;stroke:none;stroke-width:12.50000095;stroke-linecap:round;stroke-linejoin:miter;stroke-miterlimit:4;stroke-dasharray:none;stroke-opacity:0.36153846"
       id="rect5912"
       width="0.25"
       height="5"
       x="9.875"
       y="223" />
    <rect
       style="opacity:1;fill:#ff0101;fill-opacity:1;fill-rule:evenodd;stroke:none;stroke-width:12.50000095;stroke-linecap:round;stroke-linejoin:miter;stroke-miterlimit:4;stroke-dasharray:none;stroke-opacity:0.36153846;enable-background:new"
       id="rect5912-7"
       width="0.25"
       height="5"
       x="108.875"
       y="223" />
    <rect
       style="opacity:1;fill:#ff0101;fill-opacity:1;fill-rule:evenodd;stroke:none;stroke-width:12.50000095;stroke-linecap:round;stroke-linejoin:miter;stroke-miterlimit:4;stroke-dasharray:none;stroke-opacity:0.36153846;enable-background:new"
       id="rect5912-4"
       width="0.25"
       height="5"
       x="207.875"
       y="223" />
    <rect
       style="opacity:1;fill:#ff0101;fill-opacity:1;fill-rule:evenodd;stroke:none;stroke-width:12.50000095;stroke-linecap:round;stroke-linejoin:miter;stroke-miterlimit:4;stroke-dasharray:none;stroke-opacity:0.36153846;enable-background:new"
       id="rect5912-2"
       width="0.25"
       height="5"
       x="306.875"
       y="223" />
    <rect
       style="opacity:1;fill:#ff0101;fill-opacity:1;fill-rule:evenodd;stroke:none;stroke-width:12.50000095;stroke-linecap:round;stroke-linejoin:miter;stroke-miterlimit:4;stroke-dasharray:none;stroke-opacity:0.36153846;enable-background:new"
       id="rect5912-5"
       width="0.25"
       height="5"
       x="9.875"
       y="-2" />
    <rect
       style="opacity:1;fill:#ff0101;fill-opacity:1;fill-rule:evenodd;stroke:none;stroke-width:12.50000095;stroke-linecap:round;stroke-linejoin:miter;stroke-miterlimit:4;stroke-dasharray:none;stroke-opacity:0.36153846;enable-background:new"
       id="rect5912-7-2"
       width="0.25"
       height="5"
       x="108.875"
       y="-2" />
    <rect
       style="opacity:1;fill:#ff0101;fill-opacity:1;fill-rule:evenodd;stroke:none;stroke-width:12.50000095;stroke-linecap:round;stroke-linejoin:miter;stroke-miterlimit:4;stroke-dasharray:none;stroke-opacity:0.36153846;enable-background:new"
       id="rect5912-4-4"
       width="0.25"
       height="5"
       x="207.875"
       y="-2" />
    <rect
       style="opacity:1;fill:#ff0101;fill-opacity:1;fill-rule:evenodd;stroke:none;stroke-width:12.50000095;stroke-linecap:round;stroke-linejoin:miter;stroke-miterlimit:4;stroke-dasharray:none;stroke-opacity:0.36153846;enable-background:new"
       id="rect5912-2-4"
       width="0.25"
       height="5"
       x="306.875"
       y="-2" />
    <rect
       style="opacity:1;fill:#ff0101;fill-opacity:1;fill-rule:evenodd;stroke:none;stroke-width:12.50000095;stroke-linecap:round;stroke-linejoin:miter;stroke-miterlimit:4;stroke-dasharray:none;stroke-opacity:0.36153846;enable-background:new"
       id="rect5912-2-4-3"
       width="0.25"
       height="5"
       x="7.875"
       y="-317"
       transform="rotate(90)" />
    <rect
       style="opacity:1;fill:#ff0101;fill-opacity:1;fill-rule:evenodd;stroke:none;stroke-width:12.50000095;stroke-linecap:round;stroke-linejoin:miter;stroke-miterlimit:4;stroke-dasharray:none;stroke-opacity:0.36153846;enable-background:new"
       id="rect5912-2-4-3-8"
       width="0.25"
       height="5"
       x="217.875"
       y="-317"
       transform="rotate(90)" />
    <rect
       style="opacity:1;fill:#ff0101;fill-opacity:1;fill-rule:evenodd;stroke:none;stroke-width:12.50000095;stroke-linecap:round;stroke-linejoin:miter;stroke-miterlimit:4;stroke-dasharray:none;stroke-opacity:0.36153846;enable-background:new"
       id="rect5912-2-4-3-6"
       width="0.25"
       height="5"
       x="7.875"
       y="-5"
       transform="rotate(90)" />
    <rect
       style="opacity:1;fill:#ff0101;fill-opacity:1;fill-rule:evenodd;stroke:none;stroke-width:12.50000095;stroke-linecap:round;stroke-linejoin:miter;stroke-miterlimit:4;stroke-dasharray:none;stroke-opacity:0.36153846;enable-background:new"
       id="rect5912-2-4-3-8-0"
       width="0.25"
       height="5"
       x="217.875"
       y="-5"
       transform="rotate(90)" />
  </g>
</svg>
