<?xml version="1.0" encoding="UTF-8" standalone="no"?>
<svg
   xmlns:dc="http://purl.org/dc/elements/1.1/"
   xmlns:cc="http://creativecommons.org/ns#"
   xmlns:rdf="http://www.w3.org/1999/02/22-rdf-syntax-ns#"
   xmlns:svg="http://www.w3.org/2000/svg"
   xmlns="http://www.w3.org/2000/svg"
   id="svg4637"
   version="1.1"
   viewBox="0 0 80.697915 140.22917"
   display="block"
   height="530"
   width="305">
  <metadata
     id="metadata4634">
    <rdf:RDF>
      <cc:Work
         rdf:about="">
        <dc:format>image/svg+xml</dc:format>
        <dc:type
           rdf:resource="http://purl.org/dc/dcmitype/StillImage" />
        <dc:title></dc:title>
      </cc:Work>
    </rdf:RDF>
  </metadata>
  <g
     transform="translate(0,-156.77083)"
     id="layer1">
    <path
       id="path6406-5-2-2"
       d="m 10.813698,157.1286 -1.6603696,9.44231 h -1.02681 l -1.19631,-4.00027 -1.77612,5.96501 0.18036,0.47904 h 0.3576 v 12.14397 l 0.33796,2.09185 v 17.01912 h -3.09542 v 8.87698 h 8.0796096 c -0.0538,0.011 -0.11699,0.0204 -0.1664,0.032 -0.9314396,0.21961 -1.0661296,0.28789 -0.74259,0.37879 0.28125,0.079 0.32688,0.13614 0.15813,0.19844 -0.25857,0.0954 -4.5847996,0.41722 -7.7674796,0.57774 -2.12517999,0.10719 -2.94566999,0.34158 -1.19579,0.34158 0.71551,0 1.11626,0.0756 1.27899,0.24081 0.13033,0.13236 0.31726,0.24081 0.41548,0.24081 0.0983,0 0.13986,0.0638 0.0925,0.1416 -0.0474,0.0778 -0.55476,0.19246 -1.12758,0.25476 -1.85060999,0.20128 -0.94774,0.33986 2.49804,0.38396 l 1.6986,0.0217 v 0.40101 c 0,0.22061 0.14635,0.55024 0.32556,0.73226 0.46024,0.46741 0.32423,0.6706 -0.64699,0.9679 -0.46687,0.14293 -0.87366,0.33644 -0.90434,0.42994 -0.0309,0.0941 0.35391,0.25348 0.86145,0.35709 1.20671,0.24634 2.61482,0.64895 2.81275,0.80408 0.0869,0.0681 0.62016,0.24548 1.18494,0.39378 1.3788796,0.36207 2.6781996,0.7418 3.1594996,0.92346 l 0.39532,0.14882 -0.39532,0.22325 -0.39481,0.22272 0.55294,0.0217 c 0.30411,0.0119 0.73052,0.0745 0.94774,0.13901 0.381,0.11311 0.3758,0.12154 -0.15761,0.2496 -0.30411,0.0729 -1.0658,0.12366 -1.6924,0.11266 -0.6266,-0.011 -1.17623,0.0412 -1.22163,0.11575 -0.0983,0.16146 0.66849,0.33538 1.48001,0.33538 0.31932,0 0.65135,0.0718 0.73794,0.15968 0.0866,0.088 0.906,0.16663 1.82056,0.17363 1.61173,0.0131 2.40267,0.1752 1.86965,0.38293 -0.12938,0.0504 -1.01612,0.14965 -1.97042,0.22066 -1.46937,0.10924 -1.67444,0.15598 -1.33997,0.30747 0.21724,0.0984 0.30602,0.18313 0.1974,0.18913 -0.3638,0.0187 -0.20245,0.33125 0.17105,0.33125 0.50588,0 0.62847,0.16853 0.30076,0.41445 -0.47817,0.35883 -0.0113,0.56009 1.67122,0.72088 0.8762,0.0837 1.7565,0.21539 1.95646,0.29249 0.3386,0.13059 0.32579,0.14701 -0.18913,0.23461 -0.56312,0.0959 -1.70523,0.24583 -1.95492,0.25683 -0.25848,0.0114 0.2388,0.46769 0.58394,0.53589 0.1892,0.0374 -0.0249,0.0779 -0.47594,0.0899 -0.93262,0.0249 -1.34293,0.34313 -0.44235,0.34313 0.74528,0 3.1376,0.45298 3.95377,0.74879 0.3507,0.12711 0.70587,0.38617 0.78961,0.57567 0.0856,0.19371 0.39452,0.4135 0.70539,0.5023 0.50224,0.1435 0.51687,0.16319 0.15813,0.21239 -0.21722,0.0298 -0.67977,0.12034 -1.02733,0.20154 -0.34756,0.0812 -0.83905,0.19209 -1.09244,0.24649 l -0.46044,0.0992 0.75448,0.36949 c 0.75192,0.36805 0.75324,0.36996 0.31109,0.48266 -0.34626,0.0883 -0.39341,0.14529 -0.21497,0.25993 0.1258,0.0808 0.39798,0.14834 0.60513,0.14934 0.58329,0.004 1.59835,0.35395 1.59835,0.55139 0,0.0975 0.15345,0.2488 0.34106,0.3359 0.41235,0.19146 0.6943,0.85908 0.40618,0.9617 -0.10704,0.0381 -0.40309,0.14736 -0.65836,0.24236 l -0.46457,0.1726 0.46457,0.28008 c 0.25527,0.15396 0.77438,0.38117 1.15394,0.5054 0.37955,0.12422 0.85268,0.35629 1.05161,0.51522 0.19893,0.15891 0.47505,0.28886 0.6134,0.28886 0.13836,0 0.25167,0.072 0.25167,0.1602 0,0.0882 -0.14666,0.16072 -0.32557,0.16072 -0.53398,0 -0.20293,0.27068 0.44029,0.36018 0.32795,0.0456 0.84517,0.19416 1.14928,0.3297 l 0.55294,0.24649 -0.69867,0.0129 c -0.3876,0.007 -0.81703,0.12206 -0.96479,0.25787 -0.34545,0.3175 -1.91639,0.87715 -2.47996,0.88315 -0.7859,0.009 -0.0384,0.26775 1.04542,0.36225 0.55524,0.0484 1.05286,0.15153 1.10587,0.22893 0.15879,0.23189 1.29628,0.85731 1.41904,0.78031 0.0626,-0.0393 0.21746,-0.005 0.34365,0.076 0.19034,0.12225 0.18231,0.14786 -0.047,0.14986 -0.55662,0.005 -0.25626,0.27337 0.46612,0.41651 l 0.7431,0.14728 -0.54518,0.26716 c -0.30004,0.1467 -0.85026,0.35722 -1.22215,0.46819 -0.37189,0.11097 -0.6202,0.2579 -0.55242,0.3266 0.0678,0.0687 0.62624,0.15577 1.24127,0.19327 1.22386,0.0745 1.83947,0.31082 1.70893,0.65629 -0.1301,0.34434 0.9196,1.05525 1.77819,1.20407 0.42113,0.073 0.94343,0.20943 1.16065,0.30333 l 0.39533,0.17106 -0.4346,0.0103 c -0.39214,0.009 -0.65743,0.33072 -0.27285,0.33072 0.0889,0 0.0531,0.16854 -0.0796,0.37414 -0.13261,0.20559 -0.19519,0.4204 -0.13901,0.4775 0.12007,0.12193 -0.11464,0.2086 -0.94051,0.3483 -0.83565,0.14134 -0.66185,0.44482 0.37827,0.6599 l 0.85628,0.17726 -1.34307,0.0357 c -1.92439,0.0515 -1.82899,0.0306 -1.48156,0.3204 0.16753,0.13971 0.27839,0.39012 0.24598,0.55603 -0.0324,0.16592 0.0368,0.36333 0.15399,0.43874 0.17306,0.11132 0.16823,0.13968 -0.0243,0.15088 -0.38451,0.0223 0.33666,0.28786 0.81649,0.30076 0.23171,0.006 0.45051,0.10036 0.48628,0.2093 0.0357,0.10892 0.4859,0.27247 1.00045,0.36328 0.80519,0.1421 0.928,0.20936 0.88108,0.48369 -0.03,0.17538 -0.003,0.26723 0.0605,0.20412 0.0631,-0.0631 0.26324,-0.009 0.44494,0.1204 0.1817,0.12927 0.46151,0.23463 0.62167,0.23463 0.16015,0 0.4345,0.0783 0.60978,0.17363 0.29889,0.16244 0.30232,0.19149 0.0553,0.4687 -0.28059,0.31489 -0.21074,0.3985 0.77359,0.92242 0.24236,0.129 0.094,0.19568 -0.77773,0.34985 -1.04703,0.18517 -2.12855,0.55097 -2.12855,0.71985 0,0.0458 0.19566,0.19081 0.4346,0.32247 l 0.4346,0.23926 -0.40308,0.006 c -0.40522,0.006 -1.25557,0.3383 -1.25057,0.48782 0.008,0.23043 1.31086,0.64182 2.03244,0.64182 0.52573,0 0.91518,0.0876 1.06557,0.2403 0.13033,0.13237 0.37862,0.24081 0.5519,0.24081 0.37521,0 0.92604,0.27722 0.92604,0.46612 0,0.0738 -0.35254,0.18178 -0.78341,0.23978 -0.43088,0.0581 -0.82582,0.17578 -0.87799,0.26148 -0.0521,0.0857 -0.0155,0.15555 0.0816,0.15555 0.0971,0 0.12793,0.0807 0.0682,0.1788 -0.13729,0.22562 0.20867,0.45342 0.72192,0.47542 0.33654,0.0144 0.31302,0.0414 -0.15813,0.18397 l -0.55293,0.16743 0.3948,0.18242 c 0.21722,0.1003 0.82173,0.43284 1.34307,0.73897 0.94443,0.5546 0.9461,0.55664 0.47388,0.65164 -0.26067,0.0524 -0.95397,0.0621 -1.54048,0.0212 -0.86641,-0.0605 -1.06608,-0.0305 -1.06608,0.16123 0,0.25611 0.76457,0.5356 1.87637,0.68574 0.38029,0.0514 0.82566,0.18895 0.99012,0.30593 0.2613,0.18587 0.13133,0.22343 -1.03198,0.29713 -1.62029,0.10268 -1.82337,0.19993 -1.34979,0.64802 0.26095,0.24691 0.64671,0.35669 1.50327,0.42789 1.18403,0.0984 1.57133,0.24546 1.11518,0.42323 -0.36665,0.14288 -0.3271,0.72086 0.0563,0.82269 0.17378,0.0461 0.31574,0.10569 0.31574,0.13229 0,0.26492 -0.27742,0.6103 -0.64544,0.80357 -0.55114,0.28946 -0.46168,0.65368 0.19637,0.80047 0.25963,0.0579 0.43257,0.1454 0.38448,0.1943 -0.0481,0.0488 0.0524,0.21174 0.22324,0.36226 0.29933,0.26365 0.26618,0.28365 -0.91106,0.54208 -3.69471,0.81108 -3.64522,0.78611 -2.63033,1.3348 0.61851,0.3344 1.04219,0.42133 2.3859,0.49093 1.71394,0.0888 1.82067,0.21272 0.55811,0.64854 -0.55474,0.19149 -1.07824,0.62995 -0.93069,0.7798 0.0494,0.0501 0.32453,0.14492 0.61133,0.21032 l 0.52141,0.11885 -0.4346,0.17932 c -0.38467,0.15886 -0.62455,0.39926 -0.31574,0.31626 0.0652,-0.0175 0.4729,0.0254 0.9064,0.0956 l 0.78807,0.12764 -0.35812,0.29456 c -0.33485,0.27537 -0.34015,0.3057 -0.0775,0.46095 0.19992,0.11824 0.21654,0.16805 0.0569,0.17105 -0.38993,0.008 -0.80253,0.51887 -0.80253,0.99271 0,0.25105 0.0712,0.4563 0.15813,0.4563 0.0869,0 0.15813,0.21379 0.15813,0.47542 0,0.31779 0.10883,0.53525 0.32866,0.65474 0.30264,0.16449 0.30915,0.20165 0.0786,0.46044 -0.1379,0.15475 -0.33927,0.29006 -0.44752,0.30076 -0.10826,0.0107 -0.74329,0.0547 -1.41128,0.0977 -1.17733,0.0758 -2.1823,0.41945 -2.1823,0.74621 0,0.0879 -0.17759,0.24211 -0.39481,0.34262 -0.21722,0.10053 -0.39481,0.23457 -0.39481,0.29817 0,0.22203 1.35782,0.44874 3.35691,0.56069 2.43451,0.13634 2.67648,0.46749 0.57102,0.78135 -0.76414,0.11391 -1.49463,0.66249 -1.0666,0.80098 0.91962,0.29758 1.13076,0.39363 0.89038,0.40463 -0.5182,0.0237 -0.27819,0.3075 0.47543,0.56172 0.41357,0.13951 0.83521,0.38789 0.93637,0.55242 0.163,0.26506 0.1132,0.32282 -0.43614,0.50695 -0.59916,0.20082 -0.82821,0.46566 -0.42272,0.48886 0.10861,0.006 0.0554,0.0722 -0.11834,0.14676 -0.27945,0.11992 -0.25672,0.14889 0.19741,0.2496 0.68075,0.15098 0.64955,0.33445 -0.0791,0.4656 -0.83243,0.14983 -1.14515,0.25404 -1.14515,0.38189 0,0.14389 0.6905,0.44039 1.56424,0.67179 0.38236,0.10128 0.79601,0.28662 0.91932,0.41186 0.19362,0.19664 0.16352,0.25108 -0.22117,0.39998 -0.245,0.0948 -0.80114,0.2517 -1.23558,0.3483 -0.98999,0.22012 -1.18987,0.38847 -0.69815,0.58808 0.33991,0.13804 0.30869,0.15636 -0.28009,0.16536 -0.36415,0.006 -0.70063,0.0743 -0.74827,0.15245 -0.16556,0.27207 0.40365,0.55042 1.84278,0.90123 0.79627,0.19411 1.47182,0.42505 1.50068,0.51315 0.0298,0.0908 -0.44562,0.20582 -1.09812,0.26562 -3.04581,0.27901 -3.91613,0.47159 -3.41478,0.75654 0.14504,0.0824 0.44704,0.16559 0.67128,0.18448 0.22424,0.0189 0.40772,0.0883 0.40772,0.15452 0,0.0662 0.12441,0.0744 0.27647,0.0181 0.25589,-0.0948 0.25519,-0.0777 -0.0114,0.23099 -0.27993,0.32419 -0.27902,0.33666 0.0393,0.43925 0.18013,0.0581 0.32763,0.16683 0.32763,0.24133 0,0.16749 0.73969,0.28193 2.68563,0.41547 1.52021,0.10435 2.0804,0.22483 1.09295,0.23513 -1.40965,0.0148 -4.70955,0.31244 -5.0524,0.45579 -0.21157,0.0885 -0.72261,0.20555 -1.13533,0.26045 -1.17784,0.15656 -0.87826,0.40101 0.49144,0.40101 1.83369,0 2.7443,0.153 2.63498,0.44235 -0.049,0.12969 0.06,0.48036 0.24185,0.77928 0.34633,0.56911 0.32376,0.61014 -0.40618,0.74259 -0.17378,0.0315 0.43329,0.10598 1.34875,0.16588 0.91546,0.0599 1.88762,0.18804 2.16059,0.28474 0.49009,0.17351 0.4924,0.17935 0.19172,0.48472 -0.16748,0.17009 -0.30437,0.38154 -0.30437,0.46974 0,0.0882 -0.13779,0.16072 -0.30644,0.16072 -0.58867,0 -0.4662,0.27382 0.27285,0.61029 0.40958,0.18646 0.88663,0.36961 1.0604,0.40721 v 5.3e-4 c 0.71724,0.15475 0.89542,0.062 0.23616,-0.123 -0.69024,-0.19364 -1.4211,-0.52442 -1.4211,-0.64336 0,-0.0321 0.30031,-0.2174 0.66766,-0.41187 0.36734,-0.19445 0.76534,-0.49482 0.88418,-0.66713 0.19067,-0.27647 0.39551,-0.31117 1.7415,-0.29457 0.83887,0.01 1.73817,0.0121 1.99885,0.003 l 0.47387,-0.0155 -0.39481,-0.22945 c -0.21724,-0.1261 -0.30602,-0.23212 -0.19741,-0.23512 0.41832,-0.012 0.17346,-0.3266 -0.25424,-0.3266 -0.95463,0 -1.91456,-0.21366 -2.20814,-0.49144 -0.16829,-0.15921 -0.58055,-0.34156 -0.91622,-0.40566 l -0.6103,-0.11679 0.55294,-0.20257 c 0.70432,-0.25843 2.00787,-0.28616 2.08721,-0.0444 0.0438,0.13363 0.39834,0.11708 1.31672,-0.0605 l 1.25625,-0.24287 -1.02681,-0.03 c -1.12837,-0.0333 -0.96616,-0.20084 0.39119,-0.40411 l 0.786,-0.11782 -0.5488,-0.24184 c -0.49528,-0.21835 -0.51853,-0.2552 -0.23358,-0.37466 0.17378,-0.0729 0.63632,-0.13824 1.02733,-0.14624 0.972933,-0.0188 1.311383,-0.25482 0.568433,-0.39636 -0.655703,-0.12494 -0.710893,-0.27935 -0.218593,-0.61133 0.344203,-0.2321 0.340323,-0.23801 -0.24133,-0.34882 -0.32517,-0.062 -0.54965,-0.1813 -0.49867,-0.2651 0.051,-0.0838 0.0578,-0.15193 0.0155,-0.15193 -0.19392,0 -2.58778,-0.33731 -2.91248,-0.41031 -0.26415,-0.0594 -0.3396,-0.16138 -0.2744,-0.37 0.0771,-0.24676 -0.0908,-0.3269 -1.17616,-0.56379 -0.6962,-0.15194 -1.26556,-0.33671 -1.26556,-0.41031 0,-0.0736 -0.14248,-0.17136 -0.31626,-0.21756 -0.52958,-0.14065 -0.35524,-0.36189 0.4346,-0.5519 1.49757,-0.36031 2.34725,-0.54837 3.19929,-0.70746 0.84335,-0.15748 1.88591,-0.41226 2.36936,-0.57877 0.13034,-0.0449 -0.3317,-0.22375 -1.02681,-0.39791 -1.32617,-0.33227 -1.84725,-0.60278 -1.17667,-0.60978 0.32732,-0.004 0.28944,-0.0512 -0.24494,-0.30799 l -0.63201,-0.30386 0.65836,-0.0129 c 0.83492,-0.0165 1.16002,-0.14275 1.05833,-0.41186 -0.0515,-0.13638 0.0928,-0.2508 0.40463,-0.32039 0.26679,-0.0595 0.48524,-0.20617 0.48524,-0.32557 0,-0.11941 0.14196,-0.26284 0.31575,-0.31884 0.46505,-0.14991 0.38804,-0.31016 -0.26459,-0.54984 l -0.58084,-0.21342 0.76533,-0.29507 c 0.77896,-0.30031 1.254283,-0.62632 0.91312,-0.62632 -0.58006,0 -2.67401,-0.36912 -2.79983,-0.49351 -0.0825,-0.0816 -0.27768,-0.14831 -0.43408,-0.14831 -0.46074,0 -0.32593,-0.4022 0.22892,-0.68265 0.49776,-0.25158 0.50095,-0.25975 0.10904,-0.26975 -0.22233,-0.006 -0.5412,-0.11207 -0.709,-0.23668 -0.29587,-0.21972 -0.29364,-0.23146 0.0878,-0.38861 0.21636,-0.0891 0.94459,-0.24998 1.61799,-0.3576 1.02285,-0.16346 1.22421,-0.24553 1.22421,-0.49661 0,-0.1669 0.22854,-0.44149 0.51367,-0.61805 0.282423,-0.17486 0.423753,-0.31852 0.314193,-0.31884 -0.10955,-2.7e-4 -0.500873,-0.1424 -0.869203,-0.31574 -0.36833,-0.17332 -1.02489,-0.39249 -1.45934,-0.48679 -1.43921,-0.31255 -1.84885,-0.48955 -1.66191,-0.71831 0.13235,-0.16196 0.0144,-0.23042 -0.54209,-0.31522 -1.28718,-0.19603 -1.11406,-0.50024 0.4253,-0.74673 0.54371,-0.087 1.0712,-0.26879 1.17202,-0.40359 0.10746,-0.14368 0.66336,-0.31843 1.34307,-0.4222 1.10783,-0.16913 1.135,-0.18325 0.6165,-0.32194 -0.36534,-0.0977 -0.47609,-0.18664 -0.33951,-0.27233 0.1332,-0.0836 0.01,-0.16422 -0.36019,-0.23462 -0.81721,-0.1557 -0.84927,-0.39336 -0.0703,-0.51986 l 0.67645,-0.10956 -0.49248,-0.17414 c -0.27096,-0.0957 -0.679,-0.31766 -0.9064,-0.493 -0.36641,-0.28255 -0.38191,-0.33145 -0.13695,-0.42995 0.15202,-0.0611 0.79168,-0.11595 1.42162,-0.12195 0.62995,-0.006 1.145673,-0.075 1.145673,-0.15245 0,-0.15119 -0.603863,-0.42712 -1.291913,-0.59014 -0.46903,-0.11113 -0.6992,-0.48121 -0.37724,-0.60668 0.11374,-0.0443 0.53582,-0.13052 0.93793,-0.19172 0.40211,-0.0612 0.731223,-0.16972 0.731223,-0.24082 0,-0.0712 -0.507253,-0.24647 -1.127063,-0.38964 -1.54488,-0.35686 -2.24632,-0.67033 -2.13837,-0.95601 0.0477,-0.12639 -0.0173,-0.31795 -0.1447,-0.4253 -0.36717,-0.30946 0.1485,-0.75651 1.01906,-0.88366 0.40272,-0.0588 1.0167,-0.23333 1.36426,-0.38758 0.34756,-0.15426 0.73835,-0.31618 0.86868,-0.36018 0.130333,-0.0439 -0.10142,-0.13357 -0.51522,-0.19948 -0.41379,-0.0659 -0.79117,-0.18389 -0.8387,-0.262 -0.0475,-0.078 -0.29168,-0.1421 -0.54209,-0.1421 -0.55639,0 -0.75375,-0.25089 -0.29352,-0.37311 0.22718,-0.0603 0.30344,-0.17125 0.23771,-0.3452 -0.0612,-0.16201 0.004,-0.28857 0.17725,-0.34417 0.87902,-0.28254 1.50309,-0.68441 1.77147,-1.1405 0.239053,-0.40623 0.446213,-0.54115 0.957563,-0.62425 0.35891,-0.0583 0.68955,-0.20412 0.73484,-0.324 0.0453,-0.11988 0.21689,-0.21808 0.38137,-0.21808 0.16448,0 0.29921,-0.0618 0.29921,-0.13747 0,-0.0757 -0.42672,-0.18292 -0.94774,-0.23822 -1.02178,-0.10846 -2.787943,-0.78899 -2.728003,-1.0511 0.0202,-0.0883 -0.21202,-0.42845 -0.51574,-0.75551 -0.30372,-0.32704 -0.5334,-0.60484 -0.51056,-0.61754 0.0229,-0.0127 0.24088,-0.11003 0.48473,-0.21652 0.24384,-0.10648 0.40467,-0.2577 0.35708,-0.3359 -0.1279,-0.21018 0.79669,-0.34494 2.418973,-0.35295 1.47976,-0.007 1.99244,-0.19288 1.08676,-0.39376 -0.28315,-0.0628 -0.67834,-0.24477 -0.8785,-0.40412 l -0.3638,-0.28939 0.36328,-0.19792 0.36381,-0.1974 -0.46716,-0.15813 c -0.25683,-0.0869 -0.64201,-0.32271 -0.85576,-0.524 -0.213753,-0.20129 -0.572023,-0.40941 -0.796343,-0.46251 -0.72422,-0.17149 -2.06653,-0.75988 -2.06653,-0.90588 0,-0.078 0.1734,-0.14211 0.3855,-0.14211 0.21209,0 0.42951,-0.072 0.48318,-0.1602 0.0537,-0.0882 -0.009,-0.16072 -0.13901,-0.16072 -0.42265,0 -0.44372,-0.31729 -0.0315,-0.47645 0.22066,-0.0852 1.27372,-0.25953 2.339913,-0.38757 2.54488,-0.30558 4.13139,-0.47898 4.2292,-0.46198 0.58419,0.10166 1.41354,0.0756 1.40198,-0.0439 -0.008,-0.0848 -0.32349,-0.24538 -0.70073,-0.35709 -0.87132,-0.25803 -0.96017,-0.4152 -0.46043,-0.81442 0.3895,-0.31117 0.39176,-0.32417 0.078,-0.42529 -0.43025,-0.1387 -0.2768,-0.35143 0.35398,-0.49042 0.28139,-0.062 0.54723,-0.15941 0.59066,-0.21651 0.0435,-0.0571 0.26857,-0.22611 0.50023,-0.3757 0.51878,-0.33496 0.49326,-0.59907 -0.1111,-1.13842 -0.38706,-0.34544 -0.41742,-0.41873 -0.17467,-0.42273 0.19493,-0.003 0.26299,-0.0855 0.20257,-0.24546 -0.0548,-0.14517 -0.001,-0.24081 0.13591,-0.24081 0.12852,0 0.19067,-0.0964 0.14314,-0.2222 -0.0599,-0.15861 0.14869,-0.27857 0.72761,-0.41962 l 0.8108,-0.19792 -0.46767,-0.28887 c -0.25745,-0.15901 -0.51092,-0.35997 -0.56328,-0.44596 -0.16229,-0.2667 0.36762,-1.32033 0.73691,-1.46504 0.31249,-0.12245 0.32043,-0.14945 0.0739,-0.25063 -0.15205,-0.0624 -0.27646,-0.2112 -0.27646,-0.33073 0,-0.21951 0.6582,-0.44516 1.81694,-0.62269 0.34756,-0.0532 0.91645,-0.15031 1.264,-0.21602 l 0.63149,-0.11937 -0.47387,-0.18603 c -0.26069,-0.10183 -0.82907,-0.23343 -1.26351,-0.29223 -0.81721,-0.11064 -2.03993,-0.59614 -2.21176,-0.87849 -0.15353,-0.25228 0.61901,-0.47412 1.94459,-0.55812 0.90171,-0.0572 1.26489,-0.14786 1.4118,-0.35192 0.25388,-0.35261 0.0602,-0.48713 -0.90795,-0.62993 -0.9476,-0.13977 -1.36098,-0.37385 -0.67128,-0.38086 0.28239,-0.003 0.51314,-0.0772 0.51314,-0.16536 0,-0.0883 0.12442,-0.16178 0.27647,-0.16278 0.15206,-0.001 0.37315,-0.0648 0.49093,-0.14056 0.17807,-0.11459 0.17302,-0.20185 -0.0295,-0.51883 -0.20645,-0.3232 -0.2107,-0.42572 -0.0294,-0.67438 0.16359,-0.22445 0.54017,-0.3236 1.60558,-0.4222 0.76562,-0.0712 1.47031,-0.0982 1.5658,-0.061 0.27149,0.10581 1.04818,-0.24736 0.93896,-0.42685 -0.0538,-0.0884 0.0665,-0.16902 0.26717,-0.17932 0.24522,-0.0124 0.27861,-0.0413 0.1018,-0.0889 -0.3575,-0.0961 -0.4975,-0.52497 -0.20826,-0.63769 0.3057,-0.11916 0.30323,-0.53795 -0.003,-0.53795 -0.13033,0 -0.23668,-0.0644 -0.23668,-0.14263 0,-0.0782 0.40886,-0.21399 0.90848,-0.30179 0.72142,-0.12674 0.83523,-0.1838 0.55293,-0.2775 -0.1955,-0.0649 -0.35553,-0.17031 -0.35553,-0.23461 0,-0.20615 0.53486,-0.60846 1.18494,-0.8909 0.34755,-0.15101 0.5422,-0.30857 0.43305,-0.35037 -0.27252,-0.10438 -0.0837,-0.36949 0.26303,-0.36949 0.15536,0 0.44611,-0.14441 0.64648,-0.32091 0.20036,-0.17648 0.42972,-0.32091 0.50953,-0.32091 0.0798,0 0.24354,-0.10008 0.3638,-0.2222 0.18619,-0.18909 0.1434,-0.23745 -0.28784,-0.32815 -0.48319,-0.10158 -0.4926,-0.11712 -0.19999,-0.33952 0.27724,-0.21075 0.19221,-0.23306 -0.88677,-0.23306 -1.46869,0 -2.78304,-0.24064 -3.14812,-0.57619 -0.21491,-0.19758 -0.46264,-0.22843 -1.13895,-0.14263 -0.9118,0.1157 -1.597,-0.006 -1.44488,-0.25579 0.0498,-0.0819 0.49512,-0.1542 0.98961,-0.1602 1.26025,-0.0158 1.73676,-0.22232 0.84646,-0.3669 -0.91831,-0.14914 -0.70423,-0.36978 0.48679,-0.50178 0.54321,-0.0602 1.26456,-0.25198 1.603,-0.42633 0.56833,-0.29276 0.82312,-0.30934 3.3321,-0.21394 1.49409,0.0568 2.81687,0.10924 2.93936,0.11524 0.74116,0.039 1.41359,-0.0594 1.33118,-0.19482 -0.0522,-0.0858 -0.37646,-0.2416 -0.72037,-0.34624 -0.34391,-0.10465 -0.62528,-0.21171 -0.62528,-0.23771 0,-0.35586 0.45011,-0.86889 0.83819,-0.9555 0.39096,-0.0872 0.43179,-0.13326 0.22169,-0.25269 -0.16181,-0.0919 -0.85592,-0.0555 -1.87121,0.0987 -0.88764,0.13481 -1.7969,0.23904 -2.02054,0.23204 -0.92005,-0.0296 0.71738,-0.50468 2.19986,-0.63821 0.99588,-0.0897 1.81997,-0.27052 2.44895,-0.53744 0.52133,-0.22122 0.84481,-0.40476 0.71882,-0.40875 -0.37258,-0.011 0.007,-0.27542 0.76067,-0.52969 l 0.68989,-0.23254 -0.65785,-0.10697 c -0.78179,-0.12697 -0.71205,-0.38056 0.14263,-0.51936 0.76217,-0.12378 0.93503,-0.56879 0.39016,-1.00407 -0.39942,-0.31909 -0.35754,-0.50229 0.11472,-0.50229 0.17885,0 0.28939,-0.1163 0.28939,-0.30385 0,-0.16705 0.11122,-0.34698 0.24701,-0.39999 0.8511,-0.33168 2.52258,-0.58035 3.90984,-0.58083 1.56812,-0.001 1.59761,-0.008 1.13585,-0.25788 -0.37572,-0.20365 -0.80171,-0.24138 -2.05414,-0.18138 -1.60056,0.0766 -2.32731,-0.007 -2.28668,-0.26199 0.0123,-0.0773 -0.17029,-0.2685 -0.40566,-0.42531 l -0.42788,-0.28525 0.92811,-0.19791 c 0.51059,-0.10894 1.26864,-0.21785 1.68465,-0.24185 0.41601,-0.024 0.84294,-0.11184 0.94826,-0.19534 0.27889,-0.22104 1.20879,-0.51934 1.61954,-0.51934 0.19496,0 0.39545,-0.10846 0.44545,-0.24083 0.05,-0.13237 0.23953,-0.24028 0.42117,-0.24028 0.18161,0 0.28621,-0.0724 0.23254,-0.16072 -0.0537,-0.0883 -0.0222,-0.16019 0.0698,-0.16019 0.32925,0 0.15998,-0.28836 -0.22738,-0.38706 -0.21723,-0.0554 -0.39481,-0.1812 -0.39481,-0.28009 0,-0.059 -0.0477,-0.14565 -0.11576,-0.231 v -0.37516 c 0.13683,-0.0124 0.32463,-0.0208 0.58963,-0.0279 l 1.02681,-0.0274 -0.79013,-0.11421 c -0.16517,-0.0238 -0.49958,-0.0651 -0.82631,-0.10543 v -8.21551 h -3.09542 v -17.01907 l 0.33796,-2.09185 v -12.14397 h 0.3576 l 0.18035,-0.47904 -1.77612,-5.96501 -1.19631,4.00027 h -1.02681 l -1.66036,-9.44231 -1.65158,9.44231 h -1.02681 l -1.1958,-4.00027 -1.77663,5.96501 0.18087,0.47904 h 0.3576 v 4.31085 h -10.19525 v -0.4408 h -2.34972 v 0.4408 H 42.181878 v -1.23248 h -3.66541 v 1.23248 h -10.0459 v -0.4408 h -2.34921 v 0.4408 h -10.19524 v -4.31085 h 0.3576 l 0.18035,-0.47904 -1.77612,-5.96501 -1.19579,4.00027 h -1.02681 z m 5.11235,20.10988 h 48.846113 v 3.92018 l 0.33745,2.09185 v 17.01912 h -3.04633 l -19.469613,-9.3431 -0.88522,1.8619 c 0,0 11.437833,4.8784 20.305743,14.43633 v 1.4087 c -0.11949,0.001 -0.19567,0.009 -0.21187,0.0253 -0.0493,0.05 -0.012,0.0909 0.0832,0.0909 0.0344,0 0.0801,0.0159 0.12867,0.0377 v 0.35915 h 0.55035 c 0.16119,0.0774 0.3573,0.15304 0.54777,0.20412 l 0.62736,0.16795 -0.78962,0.0191 c -1.0818,0.0261 -1.37062,0.23377 -0.68678,0.49403 0.52809,0.20098 0.52837,0.20142 0.13384,0.32608 -0.21722,0.0687 -0.72876,0.13155 -1.13636,0.14056 -0.79981,0.0173 -1.1578,0.27584 -0.56844,0.41031 0.19906,0.0454 0.9462,0.10919 1.66036,0.14159 0.71415,0.0323 1.39961,0.1442 1.52342,0.24856 0.12382,0.10437 0.60589,0.23557 1.07126,0.29198 0.74671,0.0904 0.79405,0.11687 0.40307,0.22375 -0.46685,0.12767 -1.18754,0.18892 -1.84743,0.15762 -0.29016,-0.0138 -0.33715,-0.056 -0.17673,-0.15917 0.34686,-0.22315 -0.35554,-0.38089 -1.11466,-0.25063 -0.45506,0.0781 -0.58158,0.15225 -0.42789,0.25115 0.12,0.0772 0.14736,0.146 0.0605,0.154 -0.31965,0.0278 0.48859,0.28985 0.9276,0.30075 0.37927,0.009 0.42237,0.0498 0.26251,0.24547 -0.15758,0.19285 -0.11934,0.25206 0.21756,0.33796 0.38887,0.0991 0.47534,0.23353 0.42375,0.65888 -0.0125,0.10339 0.10254,0.21246 0.2558,0.24236 0.16913,0.0331 0.031,0.129 -0.3514,0.24391 -2.38891,0.71793 -3.01723,0.92527 -3.14968,1.04025 -0.0869,0.0754 -0.0372,0.13022 0.11834,0.13022 0.14771,0 0.26872,0.10844 0.26872,0.24081 0,0.15599 0.16669,0.24797 0.47387,0.26097 0.26067,0.0111 0.54512,0.0378 0.632,0.0599 0.0869,0.0221 0.26725,0.0495 0.40101,0.0605 0.20072,0.0165 0.20788,0.0607 0.0398,0.25321 -0.16236,0.18587 -0.57247,0.22033 -2.02055,0.17053 -1.73815,-0.0599 -2.90344,-0.17413 -5.54436,-0.54312 -1.14722,-0.16029 -2.1177,-0.0636 -2.1177,0.21084 0,0.28034 4.37274,1.18809 6.61148,1.37253 0.85594,0.0705 1.63802,0.2139 1.73788,0.31833 0.1397,0.14619 -0.4608,0.16354 -2.60553,0.0754 -3.22894,-0.13255 -4.46745,-0.0245 -4.84363,0.42168 -0.14269,0.16925 -0.33963,0.30748 -0.43718,0.30748 -0.20601,0 -0.78486,0.60928 -0.68007,0.71572 0.0388,0.0395 0.24537,0.14264 0.45941,0.22944 0.35779,0.14504 0.33973,0.15895 -0.22479,0.16795 -0.3377,0.006 -1.22615,-0.0723 -1.97456,-0.17312 -1.43413,-0.19327 -4.12533,-0.0646 -4.12533,0.19741 0,0.0803 0.11052,0.14624 0.24598,0.14624 0.13546,0 0.2025,0.072 0.14883,0.1602 -0.0537,0.0882 -0.3955,0.16229 -0.75965,0.16329 -0.36415,0.001 -0.768833,0.0721 -0.899173,0.15762 -0.16276,0.10677 0.2332,0.1605 1.264013,0.1695 1.61365,0.0148 2.27628,0.15338 1.89084,0.39532 -0.40761,0.25585 -1.3694,0.402 -5.208473,0.79168 l -0.86919,0.0884 0.73948,-0.28112 c 0.40659,-0.15455 0.78538,-0.32866 0.84181,-0.38706 0.16812,-0.17407 -1.93967,-0.36963 -3.63492,-0.33693 -4.97069,0.0959 -6.58253,0.0793 -6.72982,-0.0703 -0.2656,-0.27048 1.28927,-0.3685 4.31912,-0.2744 1.5413,0.0479 2.88892,0.0321 2.99516,-0.0346 0.23024,-0.14451 -1.84835,-0.58225 -2.87527,-0.60565 -0.39101,-0.009 -1.17258,0.0374 -1.73736,0.10284 -0.68392,0.0792 -0.94797,0.0665 -0.79014,-0.0377 0.18106,-0.11958 0.11869,-0.15664 -0.26355,-0.15864 -0.27515,-0.001 -0.524,0.0592 -0.55294,0.13487 -0.0666,0.17368 -2.81688,0.35265 -2.81688,0.18294 0,-0.069 0.11817,-0.17191 0.26304,-0.22841 0.49654,-0.19352 -0.0164,-0.39323 -1.28985,-0.50178 -0.69512,-0.0592 -1.46784,-0.20635 -1.71669,-0.32711 -0.24885,-0.12075 -1.24415,-0.29549 -2.21175,-0.38809 -1.98487,-0.19 -4.00425,-0.56981 -4.78162,-0.89969 -0.28719,-0.12187 -0.88848,-0.22169 -1.33635,-0.22169 -0.70604,0 -0.78811,-0.0321 -0.61754,-0.24081 0.16622,-0.2034 0.12022,-0.25637 -0.29662,-0.34107 -0.27134,-0.0551 -0.49351,-0.15112 -0.49351,-0.21342 0,-0.11394 0.50763,-0.40169 0.94826,-0.53795 0.21064,-0.0651 0.21064,-0.0823 0,-0.15452 -1.45099,-0.49731 -1.75173,-0.65084 -1.67431,-0.85576 0.0664,-0.17569 -0.12533,-0.22496 -0.89814,-0.22996 -2.18984,-0.0147 -3.92012,-0.38162 -3.67781,-0.7798 0.0438,-0.072 0.5036,-0.17037 1.02164,-0.21807 0.65278,-0.0601 1.05121,-0.19014 1.29811,-0.42375 0.19594,-0.18539 0.41178,-0.33693 0.47956,-0.33693 0.0678,0 0.0847,-0.10195 0.0377,-0.22634 -0.0514,-0.13598 0.045,-0.26836 0.24185,-0.33176 0.51349,-0.16552 0.38715,-0.3643 -0.34365,-0.54002 -0.36928,-0.0888 -0.93625,-0.26155 -1.25987,-0.38396 l -0.5886,-0.22272 0.79737,-0.3421 c 0.71699,-0.30766 0.79194,-0.38732 0.74621,-0.7922 -0.0389,-0.34492 -0.14283,-0.45968 -0.44545,-0.49248 -0.50715,-0.0549 -1.22328,-0.28073 -1.47847,-0.44338 h 4.0535 v -1.92185 c 8.86792,-9.55793 20.30574,-14.43633 20.30574,-14.43633 l -0.88522,-1.8619 -19.47013,9.3431 h -3.04581 v -17.019 l 0.33745,-2.09185 z m 28.51298,3.98684 c -0.0494,0 -0.0864,0.007 -0.1111,0.0212 -0.0247,0.0106 -0.053,0.0351 -0.0847,0.0739 l -0.36535,0.43925 c -0.0176,0.0177 -0.0264,0.0405 -0.0264,0.0687 0,0.0565 0.0283,0.0847 0.0847,0.0847 h 0.0796 c 0.0388,0 0.0688,-0.004 0.0899,-0.0109 0.0212,-0.007 0.0457,-0.0212 0.0739,-0.0424 l 0.57671,-0.47078 c 0.0176,-0.0177 0.0269,-0.0389 0.0269,-0.0636 0,-0.067 -0.0337,-0.10025 -0.10077,-0.10025 z m 5.694233,0 c -0.0494,0 -0.0864,0.007 -0.1111,0.0212 -0.0247,0.0106 -0.053,0.0351 -0.0848,0.0739 l -0.36484,0.43925 c -0.0177,0.0177 -0.0269,0.0405 -0.0269,0.0687 0,0.0565 0.0283,0.0847 0.0847,0.0847 h 0.0796 c 0.0388,0 0.0688,-0.004 0.0899,-0.0109 0.0212,-0.007 0.0457,-0.0212 0.0739,-0.0424 l 0.57723,-0.47078 c 0.0177,-0.0177 0.0264,-0.0389 0.0264,-0.0636 0,-0.067 -0.0337,-0.10025 -0.10077,-0.10025 z m -12.246803,0.89917 c -0.44097,0 -0.78339,0.12737 -1.02681,0.38137 -0.24341,0.254 -0.37191,0.59426 -0.38602,1.02113 -0.004,0.10583 -0.005,0.2735 -0.005,0.50281 0,0.2293 0.002,0.39698 0.005,0.50281 0.0141,0.42686 0.14261,0.76712 0.38602,1.02112 0.24342,0.254 0.58584,0.38086 1.02681,0.38086 0.29634,0 0.55221,-0.0599 0.7674,-0.17983 0.21519,-0.11995 0.37907,-0.28762 0.49196,-0.50281 0.11289,-0.2152 0.1695,-0.46399 0.1695,-0.74621 v -0.46561 c 0,-0.0388 -0.0109,-0.0687 -0.032,-0.0899 -0.0212,-0.0211 -0.0511,-0.0315 -0.0899,-0.0315 h -1.13223 c -0.0353,0 -0.0636,0.012 -0.0847,0.0367 -0.0212,0.0212 -0.0315,0.0495 -0.0315,0.0847 v 0.0744 c 0,0.0353 0.0104,0.0652 0.0315,0.0899 0.0212,0.0211 0.0495,0.0315 0.0847,0.0315 h 0.92087 v 0.26975 c 0,0.36688 -0.10071,0.64398 -0.30179,0.83095 -0.20108,0.18698 -0.46567,0.28061 -0.79375,0.28061 -0.32808,0 -0.58723,-0.0898 -0.77773,-0.26975 -0.18697,-0.17992 -0.28768,-0.46081 -0.30179,-0.84181 -0.003,-0.10584 -0.005,-0.26428 -0.005,-0.47594 0,-0.21167 0.002,-0.37063 0.005,-0.47646 0.0141,-0.381 0.11482,-0.66138 0.30179,-0.84129 0.1905,-0.17992 0.44965,-0.26975 0.77773,-0.26975 0.28928,0 0.51848,0.0637 0.68781,0.19068 0.17286,0.127 0.28936,0.2838 0.34934,0.47077 0.0141,0.0423 0.0283,0.0706 0.0424,0.0847 0.0141,0.0141 0.037,0.0212 0.0687,0.0212 h 0.11627 c 0.0318,0 0.0584,-0.009 0.0796,-0.0264 0.0212,-0.0177 0.0315,-0.041 0.0315,-0.0692 v -0.0103 c -0.007,-0.11994 -0.0615,-0.25603 -0.16382,-0.40772 -0.0988,-0.15523 -0.25065,-0.28916 -0.45527,-0.40205 -0.20461,-0.11288 -0.45668,-0.16949 -0.75654,-0.16949 z m 11.807553,0 c -0.42333,0 -0.75816,0.12358 -1.00511,0.37052 -0.24694,0.24694 -0.37759,0.61059 -0.3917,1.09037 -0.004,0.10583 -0.005,0.25392 -0.005,0.44442 0,0.1905 0.002,0.33858 0.005,0.44442 0.0247,0.97366 0.49017,1.46037 1.39681,1.46037 0.90664,0 1.37264,-0.48671 1.39733,-1.46037 0.007,-0.21167 0.0103,-0.35976 0.0103,-0.44442 0,-0.0847 -0.003,-0.23275 -0.0103,-0.44442 -0.0141,-0.47978 -0.14476,-0.84343 -0.3917,-1.09037 -0.24695,-0.24694 -0.58229,-0.37052 -1.00563,-0.37052 z m -20.169833,0.0532 c -0.0353,0 -0.0652,0.0104 -0.0899,0.0315 -0.0212,0.0212 -0.032,0.0511 -0.032,0.0899 v 3.46593 c 0,0.0353 0.0109,0.0636 0.032,0.0847 0.0247,0.0212 0.0546,0.032 0.0899,0.032 h 0.0951 c 0.0353,0 0.0636,-0.0108 0.0847,-0.032 0.0212,-0.0212 0.0315,-0.0495 0.0315,-0.0847 v -2.86804 l 1.01079,1.99007 c 0.0318,0.0705 0.0867,0.10541 0.16433,0.10541 h 0.11628 c 0.0776,0 0.13206,-0.0349 0.16381,-0.10541 l 1.01079,-1.99007 v 2.86804 c 0,0.0353 0.0109,0.0636 0.032,0.0847 0.0212,0.0212 0.0495,0.032 0.0847,0.032 h 0.0951 c 0.0353,0 0.0636,-0.0108 0.0847,-0.032 0.0247,-0.0212 0.0367,-0.0495 0.0367,-0.0847 v -3.46593 c 0,-0.0388 -0.0104,-0.0687 -0.0315,-0.0899 -0.0212,-0.0211 -0.0511,-0.0315 -0.0899,-0.0315 h -0.12711 c -0.0494,0 -0.0864,0.0229 -0.11112,0.0687 l -1.20664,2.33888 -1.20096,-2.33888 c -0.0212,-0.0459 -0.0582,-0.0687 -0.11109,-0.0687 z m 4.11861,0 c -0.0353,0 -0.0636,0.012 -0.0847,0.0367 -0.0212,0.0212 -0.032,0.0495 -0.032,0.0848 v 3.46593 c 0,0.0353 0.0109,0.0636 0.032,0.0847 0.0212,0.0212 0.0495,0.032 0.0847,0.032 h 2.10582 c 0.0353,0 0.0636,-0.0103 0.0847,-0.0315 0.0247,-0.0212 0.0372,-0.0495 0.0372,-0.0847 v -0.0796 c 0,-0.0388 -0.0109,-0.0687 -0.032,-0.0899 -0.0212,-0.0211 -0.0511,-0.0315 -0.0899,-0.0315 h -1.88929 v -1.4025 h 1.73064 c 0.0353,0 0.0636,-0.0104 0.0847,-0.0315 0.0247,-0.0212 0.0367,-0.0495 0.0367,-0.0847 v -0.0796 c 0,-0.0389 -0.0104,-0.0688 -0.0315,-0.0899 -0.0212,-0.0212 -0.0511,-0.032 -0.0899,-0.032 h -1.73064 v -1.34928 h 1.84691 c 0.0353,0 0.0636,-0.0104 0.0847,-0.0315 0.0247,-0.0212 0.0372,-0.0495 0.0372,-0.0848 v -0.0796 c 0,-0.0388 -0.0109,-0.0687 -0.032,-0.0899 -0.0212,-0.0211 -0.0511,-0.0315 -0.0899,-0.0315 z m 6.60425,0 c -0.0353,0 -0.0636,0.012 -0.0847,0.0367 -0.0212,0.0212 -0.032,0.0495 -0.032,0.0848 v 3.46593 c 0,0.0353 0.0109,0.0636 0.032,0.0847 0.0212,0.0212 0.0495,0.032 0.0847,0.032 h 0.0951 c 0.0353,0 0.0636,-0.0108 0.0847,-0.032 0.0247,-0.0212 0.0367,-0.0495 0.0367,-0.0847 v -1.603 h 2.04277 v 1.603 c 0,0.0353 0.0109,0.0636 0.032,0.0847 0.0212,0.0212 0.049,0.032 0.0842,0.032 h 0.0956 c 0.0353,0 0.0636,-0.0108 0.0847,-0.032 0.0247,-0.0212 0.0367,-0.0495 0.0367,-0.0847 v -3.46593 c 0,-0.0388 -0.0104,-0.0687 -0.0315,-0.0899 -0.0212,-0.0211 -0.0511,-0.0315 -0.0899,-0.0315 h -0.0956 c -0.0353,0 -0.0631,0.012 -0.0842,0.0367 -0.0212,0.0212 -0.032,0.0495 -0.032,0.0848 v 1.54512 h -2.04277 v -1.54512 c 0,-0.0388 -0.0104,-0.0687 -0.0315,-0.0899 -0.0212,-0.0211 -0.0511,-0.0315 -0.0899,-0.0315 z m 3.70004,0 c -0.0353,0 -0.0636,0.0104 -0.0847,0.0315 -0.0212,0.0212 -0.032,0.0495 -0.032,0.0848 v 3.4711 c 0,0.0353 0.0109,0.0636 0.032,0.0847 0.0212,0.0212 0.0495,0.032 0.0847,0.032 h 0.10025 c 0.0353,0 0.0636,-0.0108 0.0847,-0.032 0.0212,-0.0212 0.0315,-0.0495 0.0315,-0.0847 v -3.4711 c 0,-0.0353 -0.0104,-0.0636 -0.0315,-0.0848 -0.0212,-0.0211 -0.0495,-0.0315 -0.0847,-0.0315 z m 1.02061,0 c -0.0282,0 -0.0527,0.0104 -0.0739,0.0315 -0.0212,0.0212 -0.0315,0.0462 -0.0315,0.0744 l 0.0103,0.0579 1.227833,3.41323 c 0.0318,0.0847 0.0916,0.12712 0.17984,0.12712 h 0.14831 c 0.0882,0 0.14808,-0.0425 0.17983,-0.12712 l 1.22732,-3.41323 0.0109,-0.0579 c 0,-0.0282 -0.0104,-0.0532 -0.0315,-0.0744 -0.0212,-0.0211 -0.0462,-0.0315 -0.0744,-0.0315 h -0.1111 c -0.0318,0 -0.0579,0.009 -0.0791,0.0264 -0.0176,0.0176 -0.0302,0.0356 -0.0372,0.0532 l -1.15911,3.23856 -1.158583,-3.23856 c -0.007,-0.0176 -0.0212,-0.0356 -0.0424,-0.0532 -0.0176,-0.0177 -0.0427,-0.0264 -0.0744,-0.0264 z m 4.726323,0.26458 c 0.31398,0 0.56656,0.0969 0.75706,0.29094 0.1905,0.1905 0.29233,0.48338 0.30644,0.87849 0.007,0.21167 0.0109,0.35104 0.0109,0.41807 0,0.067 -0.004,0.20639 -0.0109,0.41806 -0.0141,0.39511 -0.11594,0.68964 -0.30644,0.88367 -0.18697,0.1905 -0.43956,0.28577 -0.75706,0.28577 -0.3175,0 -0.57121,-0.0953 -0.76171,-0.28577 -0.18697,-0.19403 -0.28768,-0.48856 -0.30179,-0.88367 -0.004,-0.10583 -0.005,-0.2452 -0.005,-0.41806 0,-0.17286 0.002,-0.31223 0.005,-0.41807 0.0141,-0.39511 0.11646,-0.68799 0.30696,-0.87849 0.1905,-0.19403 0.44257,-0.29094 0.75654,-0.29094 z m 29.9036,24.77574 c -0.0746,-0.0113 -0.0999,0.0212 -0.0584,0.0894 0.0531,0.0872 0.16318,0.15814 0.24495,0.15814 0.22725,0 0.17706,-0.11453 -0.0966,-0.22118 -0.0352,-0.0137 -0.0651,-0.0226 -0.0899,-0.0264 z m 0.10387,1.22887 c -0.0806,0 -0.071,0.0473 0.0734,0.14211 0.13033,0.0855 0.34354,0.15176 0.47388,0.14676 0.15625,-0.006 0.12926,-0.0559 -0.0791,-0.14676 -0.21717,-0.0948 -0.38764,-0.14211 -0.46819,-0.14211 z m -13.60537,0.6997 h 7.64915 c 0.0792,0.0727 0.2181,0.13629 0.4222,0.17518 0.30211,0.0575 0.51506,0.1617 0.47284,0.231 -0.1118,0.18371 0.33147,0.31987 1.04024,0.31987 0.35916,0 0.61857,0.077 0.61857,0.18346 0,0.12999 -0.31926,0.15339 -1.09606,0.0801 -0.67462,-0.0637 -1.13407,-0.0415 -1.19424,0.0574 -0.11804,0.19397 -2.08366,0.19393 -2.52801,0 -0.30144,-0.13157 -0.29938,-0.13813 0.0398,-0.14883 0.1955,-0.006 0.35553,-0.0719 0.35553,-0.14573 0,-0.2098 -3.09925,-0.66916 -4.51083,-0.66869 -0.52989,2.1e-4 -1.0241,-0.0343 -1.26918,-0.0837 z m -62.9418926,0.0977 c -2.52421999,-0.0108 -3.55571999,0.17805 -1.73788,0.31832 1.83341,0.1415 3.17912,0.15618 3.86385,0.0414 1.11841,-0.18757 0.15919,-0.34967 -2.12597,-0.35966 z m 68.0108326,1.4428 c 0.47834,0.006 0.55492,0.0395 0.31575,0.13643 -0.54271,0.21991 -1.72776,0.33888 -1.94717,0.19534 -0.24745,-0.16188 0.65175,-0.34476 1.63142,-0.33177 z m -65.8135526,0.80822 c 0.34361,9e-5 0.68104,0.008 0.92914,0.0243 0.49621,0.0317 0.0489,0.0577 -0.99374,0.0574 -1.04267,-2.6e-4 -1.44874,-0.0265 -0.90227,-0.0579 0.27323,-0.0157 0.62326,-0.0238 0.96687,-0.0238 z m 62.5977326,0.003 c 0.052,-2.6e-4 0.1052,0.004 0.15658,0.0119 0.31622,0.0505 0.29401,0.0729 -0.14469,0.14677 -0.31395,0.0529 -0.46127,0.0291 -0.37362,-0.0599 0.0597,-0.061 0.20568,-0.0978 0.36173,-0.0987 z m -17.08474,4.81107 c -0.12886,0 -0.25779,0.009 -0.35554,0.0284 -0.1955,0.0382 -0.0355,0.0698 0.35554,0.0698 0.39099,0 0.55104,-0.0315 0.35553,-0.0698 -0.0978,-0.0192 -0.22668,-0.0284 -0.35553,-0.0284 z m -9.360163,1.26763 c -0.69577,0.002 -0.91785,0.048 -0.75086,0.15761 0.17577,0.11536 0.0739,0.1593 -0.39481,0.1695 -0.91233,0.0198 -0.24564,0.28271 0.79014,0.31161 l 0.78961,0.0217 -0.64854,0.20619 c -0.95345,0.30307 -1.13435,0.44338 -0.76274,0.59118 0.51752,0.20582 1.33787,0.15652 1.89962,-0.11421 0.60264,-0.29043 0.57465,-0.53755 -0.063,-0.55655 -0.23381,-0.007 -0.32825,-0.0519 -0.20981,-0.0997 0.18182,-0.0734 0.18182,-0.10883 0,-0.22582 -0.16853,-0.10843 -0.15539,-0.13856 0.061,-0.14056 0.15206,-0.001 0.27647,-0.0751 0.27647,-0.1633 0,-0.0901 -0.43248,-0.15962 -0.98702,-0.15761 z m 3.5941,0.0532 c -0.2903,-0.0143 -0.2731,0.0147 0,0.0956 0.45657,0.13485 0.45022,0.13968 -0.16072,0.12558 -0.3488,-0.008 -0.77521,0.0753 -0.94774,0.185 -0.25616,0.16287 0.0691,0.18524 1.7725,0.12144 1.147383,-0.0429 2.213923,-0.15378 2.369883,-0.24598 0.21855,-0.12914 0.0478,-0.16963 -0.74362,-0.17363 -0.56479,-0.003 -1.41761,-0.0392 -1.895503,-0.0796 -0.16689,-0.0141 -0.29804,-0.0236 -0.3948,-0.0284 z m 5.783113,2.7156 c 0.10804,-0.01 0.29214,0.005 0.55862,0.0444 0.422,0.0623 0.79678,0.14032 0.83303,0.17312 0.0326,0.0327 -0.26368,0.0594 -0.66198,0.0594 -0.40036,0 -0.77517,-0.0775 -0.83302,-0.17259 -0.0365,-0.0601 -0.005,-0.0947 0.10335,-0.10439 z m -20.279903,1.72134 c 2.25069,0 3.51709,0.17393 3.51709,0.48369 0,0.17069 -1.64487,0.79944 -2.09134,0.79944 -0.31412,0 -0.40289,0.0635 -0.3359,0.24081 0.0515,0.1363 0.004,0.24081 -0.11007,0.24081 -0.11069,0 -0.17172,0.0298 -0.13539,0.0667 0.0363,0.0369 1.57268,0.009 3.41426,-0.0615 3.521,-0.13516 4.83724,-0.0772 4.74338,0.20877 -0.0796,0.24261 0.90549,0.73596 2.019,1.01131 0.66023,0.1632 1.2593,0.19902 1.97456,0.11782 1.07252,-0.12176 1.04103,-0.16152 -0.36174,-0.45733 -0.51539,-0.10869 -0.42391,-0.40463 0.12506,-0.40463 0.20696,0 0.41575,-0.0648 0.46405,-0.14418 0.0483,-0.0794 0.44813,-0.23226 0.88832,-0.33951 0.57033,-0.13895 0.77608,-0.25865 0.71624,-0.41703 -0.10546,-0.27914 0.0729,-0.27716 1.959573,0.0217 0.82545,0.13075 1.75002,0.27663 2.05414,0.32453 1.79582,0.28266 1.68196,0.2424 1.35495,0.48524 -0.16481,0.12239 -0.31212,0.43866 -0.32763,0.70332 -0.0247,0.42088 0.0427,0.50433 0.53847,0.66353 0.31175,0.1001 0.63762,0.26923 0.72451,0.3762 0.0869,0.10697 0.30061,0.27512 0.47439,0.37362 0.27805,0.15805 0.24941,0.17713 -0.2372,0.16123 -1.15153,-0.0377 -4.73925,0.25181 -4.73925,0.38241 0,0.075 0.0888,0.13752 0.19741,0.13952 0.10861,0.002 0.35353,0.17031 0.54467,0.37517 l 0.34778,0.37259 -0.57516,0.27802 c -0.44693,0.21645 -0.52403,0.3112 -0.34727,0.42478 0.12505,0.0803 0.36935,0.1479 0.54312,0.15089 0.24492,0.004 0.26625,0.0367 0.0951,0.14676 -0.16766,0.10781 -0.0742,0.2183 0.38654,0.45837 0.56759,0.29573 0.58357,0.32348 0.25166,0.43047 -0.27376,0.0882 -0.31505,0.16331 -0.18035,0.32814 0.19722,0.24134 0.0523,0.30688 -1.06712,0.4837 -1.14727,0.18122 -0.59553,0.44191 0.73174,0.34571 1.20896,-0.0877 1.24414,-0.0535 0.13384,0.13074 -0.37383,0.062 -0.55713,0.16425 -0.49041,0.27389 0.0751,0.1233 -0.26732,0.15045 -1.16117,0.0909 -0.69722,-0.0464 -1.334843,-0.0389 -1.416963,0.0171 -0.16479,0.11236 -0.41756,0.64534 -0.43564,0.91829 -0.006,0.096 -0.14303,0.30747 -0.30334,0.47026 -0.31226,0.31714 -0.2996,0.33824 0.47956,0.81597 0.24161,0.14814 0.25533,0.2185 0.0842,0.42789 -0.17283,0.21151 -0.15444,0.26671 0.11938,0.35502 0.17836,0.0575 0.32453,0.17195 0.32453,0.25423 0,0.0823 0.15426,0.30637 0.34314,0.49816 0.282093,0.2865 0.292803,0.32883 0.0589,0.23772 -0.246848,-0.0962 -0.272168,-0.0459 -0.188648,0.37827 0.0801,0.40685 0.0373,0.51222 -0.2558,0.62374 -0.19387,0.0738 -0.81496,0.17985 -1.37975,0.23565 -0.80095,0.0791 -1.09613,0.0469 -1.34256,-0.14728 -0.2462,-0.19396 -0.68202,-0.24207 -1.97456,-0.21808 -0.95174,0.0177 -1.84859,-0.0474 -2.10374,-0.15244 -0.2446,-0.10064 -0.79125,-0.18293 -1.21492,-0.18293 -0.42365,0 -0.81515,-0.0736 -0.86972,-0.1633 -0.0546,-0.0897 -0.1772,-0.11375 -0.27284,-0.0537 -0.10745,0.0674 -0.14001,0.0185 -0.0847,-0.12766 0.0707,-0.18697 -0.21229,-0.29421 -1.3472,-0.5121 -0.79005,-0.1517 -1.47545,-0.31563 -1.52343,-0.36433 -0.048,-0.0487 0.0411,-0.18381 0.19793,-0.30023 0.25761,-0.19132 0.2082,-0.23762 -0.51367,-0.48111 -0.9072,-0.30603 -1.01553,-0.52896 -0.32504,-0.66921 0.46092,-0.0936 0.67244,-0.51852 0.27647,-0.55552 -0.10861,-0.0102 0.087,-0.0742 0.4346,-0.14211 0.34754,-0.0678 0.91644,-0.0985 1.264,-0.0682 0.34756,0.0303 0.54708,0.0172 0.4439,-0.0289 -0.1273,-0.0568 -0.0821,-0.19039 0.14005,-0.416 0.29722,-0.30187 0.30311,-0.34612 0.0656,-0.48111 -0.3547,-0.20159 -0.17281,-0.44612 0.34675,-0.46612 0.39426,-0.0152 0.38517,-0.029 -0.12764,-0.19069 -0.30411,-0.0959 -0.58858,-0.22189 -0.63201,-0.28009 -0.0434,-0.0582 -0.85193,-0.15302 -1.7968,-0.21032 -2.42128,-0.14693 -3.75976,-0.41665 -3.85247,-0.77669 -0.0406,-0.15787 -0.14377,-0.24346 -0.22945,-0.18966 -0.0857,0.0538 -0.0704,-0.0641 0.0341,-0.26252 0.14892,-0.2826 0.1478,-0.38747 -0.005,-0.48317 -0.10697,-0.0672 -0.14548,-0.20214 -0.0858,-0.30024 0.0597,-0.0981 0.0289,-0.17828 -0.0682,-0.17828 -0.0971,0 -0.13274,-0.0724 -0.0791,-0.16072 0.0537,-0.0882 0.24322,-0.16019 0.42116,-0.16019 0.22485,0 0.29455,-0.0735 0.2279,-0.24082 -0.0527,-0.13236 -0.13437,-0.33642 -0.18139,-0.45371 -0.0847,-0.21111 0.41758,-0.41693 1.63711,-0.67076 0.59104,-0.12301 0.54859,-0.23902 -0.18087,-0.49661 l -0.50176,-0.17726 0.71054,-0.12195 c 1.54067,-0.26354 1.30513,-0.69274 -0.39481,-0.71934 -1.32953,-0.0208 -2.21156,-0.44935 -2.34766,-1.1405 -0.0807,-0.40957 -0.0308,-0.60697 0.22273,-0.88108 l 0.32659,-0.35347 -0.41031,-0.10438 c -0.97773,-0.24923 -0.0767,-0.416 2.24637,-0.416 z m 37.087663,1.28313 c -0.14057,0 -0.21129,0.0724 -0.15761,0.16071 0.0537,0.0882 0.12442,0.1602 0.15761,0.1602 0.0332,0 0.10446,-0.072 0.15813,-0.1602 0.0537,-0.0882 -0.0175,-0.16071 -0.15813,-0.16071 z m -32.009943,3.06906 c -0.0859,-0.001 -0.17739,0.009 -0.25425,0.0289 -0.1537,0.0407 -0.0664,0.0766 0.19431,0.0796 0.26066,0.003 0.38652,-0.0299 0.27957,-0.0739 -0.0535,-0.022 -0.13372,-0.0335 -0.21963,-0.0346 z m -1.90686,33.36334 c -0.45124,0.007 -0.5831,0.0506 -0.39067,0.12764 0.43738,0.1749 0.87724,0.17987 0.97978,0.0114 0.0518,-0.0851 -0.20371,-0.14501 -0.58911,-0.13901 z m 0.34623,7.04815 c -0.184,0 -0.29087,0.0725 -0.23719,0.16071 0.0537,0.0882 0.16057,0.1602 0.23719,0.1602 0.0766,0 0.183,-0.072 0.23668,-0.1602 0.0537,-0.0882 -0.0526,-0.16071 -0.23668,-0.16071 z m 8.09822,5.90661 c 0.28634,0.002 0.63791,0.0158 0.98547,0.0408 0.69512,0.05 1.19277,0.11024 1.10587,0.13384 -0.3303,0.0895 -0.8261,0.0936 -1.896,0.016 -0.60823,-0.0441 -0.96341,-0.11662 -0.78962,-0.16072 0.0869,-0.022 0.30794,-0.0319 0.59428,-0.03 z m -5.88646,11.44272 c 0.0716,0 0.14309,0.0108 0.1974,0.0331 0.10861,0.0445 0.0198,0.0811 -0.1974,0.0811 -0.21724,0 -0.30653,-0.0366 -0.19793,-0.0811 0.0543,-0.0222 0.12634,-0.0331 0.19793,-0.0331 z m 4.88549,4.67206 c -0.35437,0.0216 -1.19477,0.17621 -1.48932,0.29611 -0.30586,0.12452 -0.30435,0.13192 0.0398,0.23564 0.19791,0.0597 0.35554,0.23505 0.35554,0.39584 0,0.15885 0.0888,0.31947 0.1974,0.35657 0.15578,0.0532 0.15348,0.12139 -0.0103,0.32298 -0.17567,0.21617 -0.16066,0.28128 0.0977,0.42168 0.16796,0.0909 0.33891,0.13203 0.37982,0.0904 0.0409,-0.0416 0.18898,0.053 0.32918,0.21032 0.242,0.27166 0.20969,0.28467 -0.63975,0.25167 -0.58298,-0.0226 -0.81444,0.0154 -0.66456,0.10955 0.1935,0.12146 0.17986,0.18256 -0.0853,0.38603 -0.24257,0.1862 -0.2604,0.24673 -0.078,0.26303 0.13033,0.0116 0.0591,0.0792 -0.15813,0.14986 -0.3256,0.10586 -0.33954,0.13081 -0.0791,0.14211 0.5216,0.0228 1.02682,-0.16639 1.02682,-0.38447 0,-0.27386 0.36302,-0.39946 1.15393,-0.39946 0.64532,0 0.64933,-0.004 0.29249,-0.25735 -0.19896,-0.14152 -0.32615,-0.35152 -0.28267,-0.46664 0.0473,-0.12532 -0.0776,-0.24932 -0.31161,-0.30902 -0.215,-0.0548 -0.35175,-0.16483 -0.30334,-0.24443 0.0484,-0.0796 0.011,-0.19308 -0.0832,-0.25218 -0.0942,-0.0592 -0.13656,-0.19915 -0.094,-0.31161 0.0425,-0.11246 -0.11261,-0.29707 -0.34468,-0.4098 l -0.42168,-0.20464 0.62218,-0.14004 c 0.34241,-0.0769 0.66004,-0.17714 0.70539,-0.22324 0.0281,-0.0286 -0.0364,-0.0361 -0.15452,-0.0289 z m -2.68304,3.6804 c -0.51468,0.006 -1.25471,0.29996 -1.25471,0.53795 0,0.12242 -0.16003,0.30992 -0.35553,0.41651 l -0.35554,0.19379 0.47388,0.20567 c 0.26067,0.11319 0.97152,0.19715 1.57975,0.18655 l 1.10587,-0.0196 -1.21181,-0.0935 c -0.66649,-0.0516 -1.25933,-0.14287 -1.31775,-0.20257 -0.0584,-0.0597 0.10507,-0.21941 0.36329,-0.35502 0.25821,-0.13561 0.51149,-0.35736 0.56275,-0.49299 0.0512,-0.13564 0.2906,-0.25672 0.53227,-0.26872 0.37668,-0.0187 0.38819,-0.0316 0.0811,-0.0915 -0.0615,-0.012 -0.13008,-0.0173 -0.20361,-0.0165 z m 3.53001,1.26814 c -0.19696,-8e-4 -0.4643,0.007 -0.79788,0.0253 -0.71791,0.0388 -1.35184,0.118 -1.4087,0.1757 -0.0568,0.0578 0.0329,0.10652 0.19947,0.10852 0.27158,0.003 0.26399,0.0343 -0.076,0.29972 -0.25574,0.19969 -0.31262,0.31814 -0.17467,0.36484 0.11245,0.0381 -0.0921,0.15993 -0.45475,0.27026 -0.36265,0.11036 -0.61793,0.26905 -0.56688,0.35296 0.0511,0.0839 0.0134,0.15244 -0.0837,0.15244 -0.0971,0 -0.13275,0.0725 -0.0791,0.16071 0.0537,0.0882 0.23166,0.1602 0.39531,0.1602 0.20746,0 0.28015,-0.0925 0.23979,-0.30541 -0.0611,-0.32204 0.2745,-0.48591 1.02371,-0.49971 0.35787,-0.007 0.36966,-0.0269 0.12454,-0.21601 -0.24483,-0.18891 -0.21747,-0.23406 0.28731,-0.47852 0.30676,-0.14857 0.81955,-0.31218 1.13947,-0.36329 0.78134,-0.12476 0.82291,-0.20557 0.23204,-0.20773 z m -2.34301,2.35024 c -0.0205,10e-4 -0.0382,0.005 -0.0532,0.0103 -0.13171,0.0493 -0.007,0.15949 0.31574,0.27801 0.7889,0.28992 0.90903,0.26952 0.37621,-0.0636 -0.22809,-0.14262 -0.49516,-0.23417 -0.63872,-0.22479 z"
       style="display:inline;opacity:1;fill:#987cb0;fill-opacity:1;fill-rule:evenodd;stroke:none;stroke-width:0;stroke-linecap:butt;stroke-linejoin:miter;stroke-opacity:1;enable-background:new" />
  </g>
</svg>
